M48
; DRILL file {KiCad 9.0.7} date 2026-01-30T14:34:27-0500
; FORMAT={2:4/ absolute / inch / suppress leading zeros}
; #@! TF.CreationDate,2026-01-30T14:34:27-05:00
; #@! TF.GenerationSoftware,Kicad,Pcbnew,9.0.7
; #@! TF.FileFunction,Plated,1,2,PTH
FMAT,2
INCH,TZ
; #@! TA.AperFunction,Plated,PTH,ViaDrill
T1C0.0118
; #@! TA.AperFunction,Plated,PTH,ComponentDrill
T2C0.0315
; #@! TA.AperFunction,Plated,PTH,ComponentDrill
T3C0.0394
; #@! TA.AperFunction,Plated,PTH,ComponentDrill
T4C0.0512
%
G90
G05
T1
X21320Y-20479
X23640Y-29838
X24460Y-31105
X28907Y-42882
X39715Y-42012
X39739Y-43056
X39789Y-44000
T2
X34714Y-25405
X37714Y-25405
T3
X22047Y-27559
X22047Y-28559
X22047Y-29559
X22047Y-30559
X22047Y-31559
X22047Y-32559
X22047Y-33559
X22047Y-34559
X22047Y-35559
X22047Y-39370
X22047Y-40370
X22047Y-41370
X22047Y-42370
X22047Y-43370
X22047Y-44370
X22047Y-45370
X22047Y-46370
X29921Y-31496
X29921Y-32496
X29921Y-33496
X29921Y-34496
X29921Y-35496
X29921Y-36496
X29921Y-37496
X29921Y-38496
X29921Y-39496
X29921Y-40496
X29921Y-41496
X29921Y-42496
X29921Y-43496
X29921Y-44496
X29921Y-45496
X29921Y-46496
X37921Y-31496
X37921Y-32496
X37921Y-33496
X37921Y-34496
X37921Y-35496
X37921Y-36496
X37921Y-37496
X37921Y-38496
X37921Y-39496
X37921Y-40496
X37921Y-41496
X37921Y-42496
X37921Y-43496
X37921Y-44496
X37921Y-45496
X37921Y-46496
X41339Y-41528
X41339Y-42528
X41339Y-43528
X41339Y-44528
X41339Y-45528
X41339Y-46528
T4
X23622Y-21654
X25000Y-21654
X26378Y-21654
X31496Y-21654
X32874Y-21654
X34252Y-21654
M30
