%TF.GenerationSoftware,KiCad,Pcbnew,9.0.7*%
%TF.CreationDate,2026-01-30T14:29:26-05:00*%
%TF.ProjectId,CatShelterMonitor_Carrier,43617453-6865-46c7-9465-724d6f6e6974,rev?*%
%TF.SameCoordinates,Original*%
%TF.FileFunction,Copper,L1,Top*%
%TF.FilePolarity,Positive*%
%FSLAX46Y46*%
G04 Gerber Fmt 4.6, Leading zero omitted, Abs format (unit mm)*
G04 Created by KiCad (PCBNEW 9.0.7) date 2026-01-30 14:29:26*
%MOMM*%
%LPD*%
G01*
G04 APERTURE LIST*
G04 Aperture macros list*
%AMRoundRect*
0 Rectangle with rounded corners*
0 $1 Rounding radius*
0 $2 $3 $4 $5 $6 $7 $8 $9 X,Y pos of 4 corners*
0 Add a 4 corners polygon primitive as box body*
4,1,4,$2,$3,$4,$5,$6,$7,$8,$9,$2,$3,0*
0 Add four circle primitives for the rounded corners*
1,1,$1+$1,$2,$3*
1,1,$1+$1,$4,$5*
1,1,$1+$1,$6,$7*
1,1,$1+$1,$8,$9*
0 Add four rect primitives between the rounded corners*
20,1,$1+$1,$2,$3,$4,$5,0*
20,1,$1+$1,$4,$5,$6,$7,0*
20,1,$1+$1,$6,$7,$8,$9,0*
20,1,$1+$1,$8,$9,$2,$3,0*%
G04 Aperture macros list end*
%TA.AperFunction,ComponentPad*%
%ADD10R,1.700000X1.700000*%
%TD*%
%TA.AperFunction,ComponentPad*%
%ADD11C,1.700000*%
%TD*%
%TA.AperFunction,ComponentPad*%
%ADD12C,1.600000*%
%TD*%
%TA.AperFunction,ComponentPad*%
%ADD13RoundRect,0.250000X-1.050000X-1.050000X1.050000X-1.050000X1.050000X1.050000X-1.050000X1.050000X0*%
%TD*%
%TA.AperFunction,ComponentPad*%
%ADD14C,2.600000*%
%TD*%
%TA.AperFunction,ViaPad*%
%ADD15C,0.600000*%
%TD*%
%TA.AperFunction,Conductor*%
%ADD16C,0.500000*%
%TD*%
G04 APERTURE END LIST*
D10*
%TO.P,J1_Header1,1,Pin_1*%
%TO.N,Net-(J1_Header1-Pin_1)*%
X105000000Y-105480000D03*
D11*
%TO.P,J1_Header1,2,Pin_2*%
%TO.N,Net-(J1_Header1-Pin_2)*%
X105000000Y-108020000D03*
%TO.P,J1_Header1,3,Pin_3*%
%TO.N,Net-(J1_Header1-Pin_3)*%
X105000000Y-110560000D03*
%TO.P,J1_Header1,4,Pin_4*%
%TO.N,Net-(J1_Header1-Pin_4)*%
X105000000Y-113100000D03*
%TO.P,J1_Header1,5,Pin_5*%
%TO.N,unconnected-(J1_Header1-Pin_5-Pad5)*%
X105000000Y-115640000D03*
%TO.P,J1_Header1,6,Pin_6*%
%TO.N,unconnected-(J1_Header1-Pin_6-Pad6)*%
X105000000Y-118180000D03*
%TD*%
D10*
%TO.P,J_FEATHER_R1,1,Pin_1*%
%TO.N,unconnected-(J_FEATHER_R1-Pin_1-Pad1)*%
X96320000Y-80000000D03*
D11*
%TO.P,J_FEATHER_R1,2,Pin_2*%
%TO.N,unconnected-(J_FEATHER_R1-Pin_2-Pad2)*%
X96320000Y-82540000D03*
%TO.P,J_FEATHER_R1,3,Pin_3*%
%TO.N,unconnected-(J_FEATHER_R1-Pin_3-Pad3)*%
X96320000Y-85080000D03*
%TO.P,J_FEATHER_R1,4,Pin_4*%
%TO.N,unconnected-(J_FEATHER_R1-Pin_4-Pad4)*%
X96320000Y-87620000D03*
%TO.P,J_FEATHER_R1,5,Pin_5*%
%TO.N,unconnected-(J_FEATHER_R1-Pin_5-Pad5)*%
X96320000Y-90160000D03*
%TO.P,J_FEATHER_R1,6,Pin_6*%
%TO.N,unconnected-(J_FEATHER_R1-Pin_6-Pad6)*%
X96320000Y-92700000D03*
%TO.P,J_FEATHER_R1,7,Pin_7*%
%TO.N,unconnected-(J_FEATHER_R1-Pin_7-Pad7)*%
X96320000Y-95240000D03*
%TO.P,J_FEATHER_R1,8,Pin_8*%
%TO.N,unconnected-(J_FEATHER_R1-Pin_8-Pad8)*%
X96320000Y-97780000D03*
%TO.P,J_FEATHER_R1,9,Pin_9*%
%TO.N,unconnected-(J_FEATHER_R1-Pin_9-Pad9)*%
X96320000Y-100320000D03*
%TO.P,J_FEATHER_R1,10,Pin_10*%
%TO.N,unconnected-(J_FEATHER_R1-Pin_10-Pad10)*%
X96320000Y-102860000D03*
%TO.P,J_FEATHER_R1,11,Pin_11*%
%TO.N,/FRAM_CS_D10*%
X96320000Y-105400000D03*
%TO.P,J_FEATHER_R1,12,Pin_12*%
%TO.N,Net-(J1_Header1-Pin_1)*%
X96320000Y-107940000D03*
%TO.P,J_FEATHER_R1,13,Pin_13*%
%TO.N,Net-(J1_Header1-Pin_2)*%
X96320000Y-110480000D03*
%TO.P,J_FEATHER_R1,14,Pin_14*%
%TO.N,Net-(J1_Header1-Pin_3)*%
X96320000Y-113020000D03*
%TO.P,J_FEATHER_R1,15,Pin_15*%
%TO.N,Net-(J1_Header1-Pin_4)*%
X96320000Y-115560000D03*
%TO.P,J_FEATHER_R1,16,Pin_16*%
%TO.N,unconnected-(J_FEATHER_R1-Pin_16-Pad16)*%
X96320000Y-118100000D03*
%TD*%
D10*
%TO.P,J_FEATHER_L1,1,Pin_1*%
%TO.N,unconnected-(J_FEATHER_L1-Pin_1-Pad1)*%
X76000000Y-80000000D03*
D11*
%TO.P,J_FEATHER_L1,2,Pin_2*%
%TO.N,+3V3*%
X76000000Y-82540000D03*
%TO.P,J_FEATHER_L1,3,Pin_3*%
%TO.N,unconnected-(J_FEATHER_L1-Pin_3-Pad3)*%
X76000000Y-85080000D03*
%TO.P,J_FEATHER_L1,4,Pin_4*%
%TO.N,GND*%
X76000000Y-87620000D03*
%TO.P,J_FEATHER_L1,5,Pin_5*%
%TO.N,unconnected-(J_FEATHER_L1-Pin_5-Pad5)*%
X76000000Y-90160000D03*
%TO.P,J_FEATHER_L1,6,Pin_6*%
%TO.N,unconnected-(J_FEATHER_L1-Pin_6-Pad6)*%
X76000000Y-92700000D03*
%TO.P,J_FEATHER_L1,7,Pin_7*%
%TO.N,/A2_1WIRE*%
X76000000Y-95240000D03*
%TO.P,J_FEATHER_L1,8,Pin_8*%
%TO.N,unconnected-(J_FEATHER_L1-Pin_8-Pad8)*%
X76000000Y-97780000D03*
%TO.P,J_FEATHER_L1,9,Pin_9*%
%TO.N,/SPI_SCK*%
X76000000Y-100320000D03*
%TO.P,J_FEATHER_L1,10,Pin_10*%
%TO.N,unconnected-(J_FEATHER_L1-Pin_10-Pad10)*%
X76000000Y-102860000D03*
%TO.P,J_FEATHER_L1,11,Pin_11*%
%TO.N,unconnected-(J_FEATHER_L1-Pin_11-Pad11)*%
X76000000Y-105400000D03*
%TO.P,J_FEATHER_L1,12,Pin_12*%
%TO.N,/SPI_MISO*%
X76000000Y-107940000D03*
%TO.P,J_FEATHER_L1,13,Pin_13*%
%TO.N,/SPI_MOSI*%
X76000000Y-110480000D03*
%TO.P,J_FEATHER_L1,14,Pin_14*%
%TO.N,/I2C_SDA*%
X76000000Y-113020000D03*
%TO.P,J_FEATHER_L1,15,Pin_15*%
%TO.N,unconnected-(J_FEATHER_L1-Pin_15-Pad15)*%
X76000000Y-115560000D03*
%TO.P,J_FEATHER_L1,16,Pin_16*%
%TO.N,/I2C_SCL*%
X76000000Y-118100000D03*
%TD*%
D12*
%TO.P,R_PULLUP_A1,1*%
%TO.N,/A2_1WIRE*%
X95793109Y-64528821D03*
%TO.P,R_PULLUP_A1,2*%
%TO.N,+3V3*%
X88173109Y-64528821D03*
%TD*%
D13*
%TO.P,J_PROBE_2,1,Pin_1*%
%TO.N,+3V3*%
X80000000Y-55000000D03*
D14*
%TO.P,J_PROBE_2,2,Pin_2*%
%TO.N,GND*%
X83500000Y-55000000D03*
%TO.P,J_PROBE_2,3,Pin_3*%
%TO.N,/A2_1WIRE*%
X87000000Y-55000000D03*
%TD*%
D10*
%TO.P,J_FRAM1,1,Pin_1*%
%TO.N,/SPI_MISO*%
X56000000Y-70000000D03*
D11*
%TO.P,J_FRAM1,2,Pin_2*%
%TO.N,/SPI_MOSI*%
X56000000Y-72540000D03*
%TO.P,J_FRAM1,3,Pin_3*%
%TO.N,/SPI_SCK*%
X56000000Y-75080000D03*
%TO.P,J_FRAM1,4,Pin_4*%
%TO.N,+3V3*%
X56000000Y-77620000D03*
%TO.P,J_FRAM1,5,Pin_5*%
%TO.N,GND*%
X56000000Y-80160000D03*
%TO.P,J_FRAM1,6,Pin_6*%
%TO.N,/FRAM_CS_D10*%
X56000000Y-82700000D03*
%TO.P,J_FRAM1,7,Pin_7*%
%TO.N,unconnected-(J_FRAM1-Pin_7-Pad7)*%
X56000000Y-85240000D03*
%TO.P,J_FRAM1,8,Pin_8*%
%TO.N,unconnected-(J_FRAM1-Pin_8-Pad8)*%
X56000000Y-87780000D03*
%TO.P,J_FRAM1,9,Pin_9*%
%TO.N,unconnected-(J_FRAM1-Pin_9-Pad9)*%
X56000000Y-90320000D03*
%TD*%
D13*
%TO.P,J_PROBE_1,1,Pin_1*%
%TO.N,+3V3*%
X60000000Y-55000000D03*
D14*
%TO.P,J_PROBE_1,2,Pin_2*%
%TO.N,GND*%
X63500000Y-55000000D03*
%TO.P,J_PROBE_1,3,Pin_3*%
%TO.N,/A2_1WIRE*%
X67000000Y-55000000D03*
%TD*%
D10*
%TO.P,J_RTC1,1,Pin_1*%
%TO.N,+3V3*%
X56000000Y-100000000D03*
D11*
%TO.P,J_RTC1,2,Pin_2*%
%TO.N,GND*%
X56000000Y-102540000D03*
%TO.P,J_RTC1,3,Pin_3*%
%TO.N,unconnected-(J_RTC1-Pin_3-Pad3)*%
X56000000Y-105080000D03*
%TO.P,J_RTC1,4,Pin_4*%
%TO.N,unconnected-(J_RTC1-Pin_4-Pad4)*%
X56000000Y-107620000D03*
%TO.P,J_RTC1,5,Pin_5*%
%TO.N,/I2C_SCL*%
X56000000Y-110160000D03*
%TO.P,J_RTC1,6,Pin_6*%
%TO.N,/I2C_SDA*%
X56000000Y-112700000D03*
%TO.P,J_RTC1,7,Pin_7*%
%TO.N,unconnected-(J_RTC1-Pin_7-Pad7)*%
X56000000Y-115240000D03*
%TO.P,J_RTC1,8,Pin_8*%
%TO.N,unconnected-(J_RTC1-Pin_8-Pad8)*%
X56000000Y-117780000D03*
%TD*%
D15*
%TO.N,GND*%
X101064468Y-111759432D03*
X100938256Y-109361403D03*
X100875150Y-106710950D03*
X73424029Y-108919661D03*
X62128050Y-79007405D03*
X60045551Y-75788997D03*
X54151571Y-52016369D03*
%TD*%
D16*
%TO.N,Net-(J1_Header1-Pin_4)*%
X96380000Y-115620000D02*
X96320000Y-115560000D01*
X96320000Y-115560000D02*
X96330000Y-115570000D01*
X104990000Y-113020000D02*
X105000000Y-113030000D01*
X98780000Y-113100000D02*
X105000000Y-113100000D01*
X96320000Y-115560000D02*
X98780000Y-113100000D01*
%TO.N,Net-(J1_Header1-Pin_3)*%
X96320000Y-113020000D02*
X98780000Y-110560000D01*
X98780000Y-110560000D02*
X105000000Y-110560000D01*
%TO.N,Net-(J1_Header1-Pin_1)*%
X96320000Y-107940000D02*
X98780000Y-105480000D01*
X98780000Y-105480000D02*
X105000000Y-105480000D01*
X96201811Y-107821811D02*
X96320000Y-107940000D01*
%TO.N,Net-(J1_Header1-Pin_2)*%
X104990000Y-107940000D02*
X105000000Y-107950000D01*
X96380000Y-110540000D02*
X96320000Y-110480000D01*
X96201811Y-110361811D02*
X96320000Y-110480000D01*
X98780000Y-108020000D02*
X105000000Y-108020000D01*
X96320000Y-110480000D02*
X98780000Y-108020000D01*
X96320000Y-110480000D02*
X96330000Y-110490000D01*
%TO.N,/SPI_MOSI*%
X69370013Y-106202276D02*
X73647737Y-110480000D01*
X58296244Y-73871255D02*
X58296244Y-76942233D01*
X73647737Y-110480000D02*
X76000000Y-110480000D01*
X56000000Y-72540000D02*
X56964989Y-72540000D01*
X58296244Y-76942233D02*
X69370013Y-88016002D01*
X56964989Y-72540000D02*
X58296244Y-73871255D01*
X69370013Y-88016002D02*
X69370013Y-106202276D01*
%TO.N,/I2C_SDA*%
X56320000Y-113020000D02*
X56000000Y-112700000D01*
X76000000Y-113020000D02*
X56320000Y-113020000D01*
%TO.N,/SPI_MISO*%
X70472211Y-105467477D02*
X70472211Y-87097503D01*
X56000000Y-70000000D02*
X63374708Y-77374708D01*
X63374708Y-77374708D02*
X63374708Y-80000000D01*
X72944734Y-107940000D02*
X70472211Y-105467477D01*
X76000000Y-107940000D02*
X72944734Y-107940000D01*
X70472211Y-87097503D02*
X63374708Y-80000000D01*
%TO.N,/A2_1WIRE*%
X95793109Y-64528821D02*
X95793109Y-59760074D01*
X78423186Y-93628332D02*
X76811518Y-95240000D01*
X87000000Y-51752792D02*
X87000000Y-55000000D01*
X95793109Y-59760074D02*
X90902951Y-54869916D01*
X67000000Y-55000000D02*
X67000000Y-52891611D01*
X87130084Y-54869916D02*
X87000000Y-55000000D01*
X67000000Y-52891611D02*
X70634744Y-49256867D01*
X84504075Y-49256867D02*
X87000000Y-51752792D01*
X76811518Y-95240000D02*
X76000000Y-95240000D01*
X95793109Y-64528821D02*
X78423186Y-81898744D01*
X90902951Y-54869916D02*
X87130084Y-54869916D01*
X78423186Y-81898744D02*
X78423186Y-93628332D01*
X70634744Y-49256867D02*
X84504075Y-49256867D01*
%TO.N,+3V3*%
X56000000Y-100000000D02*
X52877104Y-96877104D01*
X54742786Y-77620000D02*
X56000000Y-77620000D01*
X88173109Y-64528821D02*
X81152491Y-64528821D01*
X52877104Y-79485682D02*
X54742786Y-77620000D01*
X56495232Y-55000000D02*
X52865673Y-58629559D01*
X80000000Y-55000000D02*
X75733724Y-59266276D01*
X60000000Y-55000000D02*
X64266276Y-59266276D01*
X52877104Y-96877104D02*
X52877104Y-79485682D01*
X52865673Y-74485673D02*
X56000000Y-77620000D01*
X80039628Y-63415958D02*
X80039628Y-55039628D01*
X75733724Y-59266276D02*
X64266276Y-59266276D01*
X52865673Y-58629559D02*
X52865673Y-74485673D01*
X60000000Y-55000000D02*
X56495232Y-55000000D01*
X80039628Y-55039628D02*
X80000000Y-55000000D01*
X81152491Y-64528821D02*
X80039628Y-63415958D01*
%TO.N,GND*%
X62009839Y-49260873D02*
X63479436Y-50730470D01*
X55437469Y-49260873D02*
X62009839Y-49260873D01*
X63500000Y-50751034D02*
X63500000Y-55000000D01*
X54151571Y-50546771D02*
X55437469Y-49260873D01*
X54151571Y-52016369D02*
X54151571Y-50546771D01*
X63479436Y-50730470D02*
X63500000Y-50751034D01*
%TO.N,/FRAM_CS_D10*%
X96108665Y-105188665D02*
X96320000Y-105400000D01*
%TD*%
%TA.AperFunction,Conductor*%
%TO.N,GND*%
G36*
X103879818Y-111330185D02*
G01*
X103913097Y-111361615D01*
X103969892Y-111439788D01*
X104120213Y-111590109D01*
X104292182Y-111715050D01*
X104300946Y-111719516D01*
X104351742Y-111767491D01*
X104368536Y-111835312D01*
X104345998Y-111901447D01*
X104300946Y-111940484D01*
X104292182Y-111944949D01*
X104120213Y-112069890D01*
X103969892Y-112220211D01*
X103913097Y-112298385D01*
X103857767Y-112341051D01*
X103812779Y-112349500D01*
X98706080Y-112349500D01*
X98561092Y-112378340D01*
X98561082Y-112378343D01*
X98424511Y-112434912D01*
X98424498Y-112434919D01*
X98301584Y-112517048D01*
X98301580Y-112517051D01*
X97874635Y-112943996D01*
X97863585Y-112950029D01*
X97855478Y-112959661D01*
X97833501Y-112966456D01*
X97813312Y-112977481D01*
X97800754Y-112976582D01*
X97788727Y-112980302D01*
X97766567Y-112974138D01*
X97743620Y-112972497D01*
X97733540Y-112964951D01*
X97721413Y-112961578D01*
X97706102Y-112944411D01*
X97687687Y-112930625D01*
X97682174Y-112917581D01*
X97674908Y-112909434D01*
X97664482Y-112875718D01*
X97655382Y-112818268D01*
X97664336Y-112748980D01*
X97690171Y-112711195D01*
X99054548Y-111346819D01*
X99115871Y-111313334D01*
X99142229Y-111310500D01*
X103812779Y-111310500D01*
X103879818Y-111330185D01*
G37*
%TD.AperFunction*%
%TA.AperFunction,Conductor*%
G36*
X103818028Y-108772041D02*
G01*
X103823391Y-108770955D01*
X103851198Y-108781781D01*
X103879818Y-108790185D01*
X103884751Y-108794844D01*
X103888500Y-108796304D01*
X103913097Y-108821615D01*
X103969892Y-108899788D01*
X104120213Y-109050109D01*
X104292182Y-109175050D01*
X104300946Y-109179516D01*
X104351742Y-109227491D01*
X104368536Y-109295312D01*
X104345998Y-109361447D01*
X104300946Y-109400484D01*
X104292182Y-109404949D01*
X104120213Y-109529890D01*
X103969892Y-109680211D01*
X103913097Y-109758385D01*
X103857767Y-109801051D01*
X103812779Y-109809500D01*
X98706080Y-109809500D01*
X98561092Y-109838340D01*
X98561082Y-109838343D01*
X98424511Y-109894912D01*
X98424498Y-109894919D01*
X98301584Y-109977048D01*
X98301580Y-109977051D01*
X97874635Y-110403996D01*
X97813312Y-110437481D01*
X97743620Y-110432497D01*
X97687687Y-110390625D01*
X97664481Y-110335716D01*
X97655382Y-110278268D01*
X97664336Y-110208980D01*
X97690171Y-110171195D01*
X99054548Y-108806819D01*
X99115871Y-108773334D01*
X99142229Y-108770500D01*
X103812779Y-108770500D01*
X103818028Y-108772041D01*
G37*
%TD.AperFunction*%
%TA.AperFunction,Conductor*%
G36*
X103592540Y-106250185D02*
G01*
X103638295Y-106302989D01*
X103649501Y-106354500D01*
X103649501Y-106377876D01*
X103655908Y-106437483D01*
X103706202Y-106572328D01*
X103706206Y-106572335D01*
X103792452Y-106687544D01*
X103792455Y-106687547D01*
X103907664Y-106773793D01*
X103907671Y-106773797D01*
X104039082Y-106822810D01*
X104095016Y-106864681D01*
X104119433Y-106930145D01*
X104104582Y-106998418D01*
X104083431Y-107026673D01*
X103969892Y-107140212D01*
X103913097Y-107218385D01*
X103857767Y-107261051D01*
X103812779Y-107269500D01*
X98706080Y-107269500D01*
X98561092Y-107298340D01*
X98561082Y-107298343D01*
X98424511Y-107354912D01*
X98424498Y-107354919D01*
X98301584Y-107437048D01*
X98301580Y-107437051D01*
X97874635Y-107863996D01*
X97863585Y-107870029D01*
X97855478Y-107879661D01*
X97833501Y-107886456D01*
X97813312Y-107897481D01*
X97800754Y-107896582D01*
X97788727Y-107900302D01*
X97766567Y-107894138D01*
X97743620Y-107892497D01*
X97733540Y-107884951D01*
X97721413Y-107881578D01*
X97706102Y-107864411D01*
X97687687Y-107850625D01*
X97682174Y-107837581D01*
X97674908Y-107829434D01*
X97664482Y-107795718D01*
X97655382Y-107738268D01*
X97664336Y-107668980D01*
X97690171Y-107631195D01*
X99054548Y-106266819D01*
X99115871Y-106233334D01*
X99142229Y-106230500D01*
X103525501Y-106230500D01*
X103592540Y-106250185D01*
G37*
%TD.AperFunction*%
%TA.AperFunction,Conductor*%
G36*
X57476456Y-75364625D02*
G01*
X57527931Y-75411869D01*
X57545744Y-75475902D01*
X57545744Y-77016151D01*
X57545744Y-77016153D01*
X57545743Y-77016153D01*
X57574584Y-77161140D01*
X57574587Y-77161150D01*
X57631158Y-77297725D01*
X57664056Y-77346960D01*
X57664057Y-77346963D01*
X57713290Y-77420647D01*
X57713296Y-77420654D01*
X68583194Y-88290550D01*
X68616679Y-88351873D01*
X68619513Y-88378231D01*
X68619513Y-106276194D01*
X68619513Y-106276196D01*
X68619512Y-106276196D01*
X68648353Y-106421183D01*
X68648356Y-106421193D01*
X68704926Y-106557766D01*
X68704929Y-106557771D01*
X68714655Y-106572326D01*
X68714656Y-106572331D01*
X68714658Y-106572331D01*
X68783466Y-106675312D01*
X68787064Y-106680696D01*
X68787065Y-106680697D01*
X72001282Y-109894912D01*
X73064785Y-110958415D01*
X73064786Y-110958416D01*
X73146156Y-111039786D01*
X73169322Y-111062952D01*
X73292235Y-111145080D01*
X73292248Y-111145087D01*
X73395406Y-111187816D01*
X73428824Y-111201658D01*
X73428828Y-111201658D01*
X73428829Y-111201659D01*
X73573816Y-111230500D01*
X73573819Y-111230500D01*
X74812779Y-111230500D01*
X74879818Y-111250185D01*
X74913097Y-111281615D01*
X74969892Y-111359788D01*
X75120213Y-111510109D01*
X75292182Y-111635050D01*
X75300946Y-111639516D01*
X75351742Y-111687491D01*
X75368536Y-111755312D01*
X75345998Y-111821447D01*
X75300946Y-111860484D01*
X75292182Y-111864949D01*
X75120213Y-111989890D01*
X74969892Y-112140211D01*
X74913097Y-112218385D01*
X74857767Y-112261051D01*
X74812779Y-112269500D01*
X57370213Y-112269500D01*
X57303174Y-112249815D01*
X57257419Y-112197011D01*
X57252282Y-112183819D01*
X57252178Y-112183499D01*
X57251557Y-112181588D01*
X57251556Y-112181587D01*
X57251557Y-112181587D01*
X57155048Y-111992179D01*
X57030109Y-111820213D01*
X56879786Y-111669890D01*
X56707820Y-111544951D01*
X56707115Y-111544591D01*
X56699054Y-111540485D01*
X56648259Y-111492512D01*
X56631463Y-111424692D01*
X56653999Y-111358556D01*
X56699054Y-111319515D01*
X56707816Y-111315051D01*
X56753837Y-111281615D01*
X56879786Y-111190109D01*
X56879788Y-111190106D01*
X56879792Y-111190104D01*
X57030104Y-111039792D01*
X57030106Y-111039788D01*
X57030109Y-111039786D01*
X57155048Y-110867820D01*
X57155047Y-110867820D01*
X57155051Y-110867816D01*
X57251557Y-110678412D01*
X57317246Y-110476243D01*
X57350500Y-110266287D01*
X57350500Y-110053713D01*
X57317246Y-109843757D01*
X57251557Y-109641588D01*
X57155051Y-109452184D01*
X57155049Y-109452181D01*
X57155048Y-109452179D01*
X57030109Y-109280213D01*
X56879786Y-109129890D01*
X56707820Y-109004951D01*
X56707115Y-109004591D01*
X56699054Y-109000485D01*
X56648259Y-108952512D01*
X56631463Y-108884692D01*
X56653999Y-108818556D01*
X56699054Y-108779515D01*
X56707816Y-108775051D01*
X56753837Y-108741615D01*
X56879786Y-108650109D01*
X56879788Y-108650106D01*
X56879792Y-108650104D01*
X57030104Y-108499792D01*
X57030106Y-108499788D01*
X57030109Y-108499786D01*
X57155048Y-108327820D01*
X57155047Y-108327820D01*
X57155051Y-108327816D01*
X57251557Y-108138412D01*
X57317246Y-107936243D01*
X57350500Y-107726287D01*
X57350500Y-107513713D01*
X57317246Y-107303757D01*
X57251557Y-107101588D01*
X57155051Y-106912184D01*
X57155049Y-106912181D01*
X57155048Y-106912179D01*
X57030109Y-106740213D01*
X56879786Y-106589890D01*
X56707820Y-106464951D01*
X56707115Y-106464591D01*
X56699054Y-106460485D01*
X56648259Y-106412512D01*
X56631463Y-106344692D01*
X56653999Y-106278556D01*
X56699054Y-106239515D01*
X56707816Y-106235051D01*
X56729789Y-106219086D01*
X56879786Y-106110109D01*
X56879788Y-106110106D01*
X56879792Y-106110104D01*
X57030104Y-105959792D01*
X57030106Y-105959788D01*
X57030109Y-105959786D01*
X57155048Y-105787820D01*
X57155047Y-105787820D01*
X57155051Y-105787816D01*
X57251557Y-105598412D01*
X57317246Y-105396243D01*
X57350500Y-105186287D01*
X57350500Y-104973713D01*
X57317246Y-104763757D01*
X57251557Y-104561588D01*
X57155051Y-104372184D01*
X57155049Y-104372181D01*
X57155048Y-104372179D01*
X57030109Y-104200213D01*
X56879786Y-104049890D01*
X56707817Y-103924949D01*
X56698504Y-103920204D01*
X56647707Y-103872230D01*
X56630912Y-103804409D01*
X56653449Y-103738274D01*
X56698507Y-103699232D01*
X56707555Y-103694622D01*
X56761716Y-103655270D01*
X56761717Y-103655270D01*
X56129408Y-103022962D01*
X56192993Y-103005925D01*
X56307007Y-102940099D01*
X56400099Y-102847007D01*
X56465925Y-102732993D01*
X56482962Y-102669409D01*
X57115270Y-103301717D01*
X57115270Y-103301716D01*
X57154622Y-103247554D01*
X57251095Y-103058217D01*
X57316757Y-102856130D01*
X57316757Y-102856127D01*
X57350000Y-102646246D01*
X57350000Y-102433753D01*
X57316757Y-102223872D01*
X57316757Y-102223869D01*
X57251095Y-102021782D01*
X57154624Y-101832449D01*
X57115270Y-101778282D01*
X57115269Y-101778282D01*
X56482962Y-102410590D01*
X56465925Y-102347007D01*
X56400099Y-102232993D01*
X56307007Y-102139901D01*
X56192993Y-102074075D01*
X56129409Y-102057037D01*
X56799627Y-101386818D01*
X56860950Y-101353333D01*
X56887307Y-101350499D01*
X56897872Y-101350499D01*
X56957483Y-101344091D01*
X57092331Y-101293796D01*
X57207546Y-101207546D01*
X57293796Y-101092331D01*
X57344091Y-100957483D01*
X57350500Y-100897873D01*
X57350499Y-99102128D01*
X57344091Y-99042517D01*
X57340003Y-99031557D01*
X57293797Y-98907671D01*
X57293793Y-98907664D01*
X57207547Y-98792455D01*
X57207544Y-98792452D01*
X57092335Y-98706206D01*
X57092328Y-98706202D01*
X56957482Y-98655908D01*
X56957483Y-98655908D01*
X56897883Y-98649501D01*
X56897881Y-98649500D01*
X56897873Y-98649500D01*
X56897865Y-98649500D01*
X55762230Y-98649500D01*
X55695191Y-98629815D01*
X55674549Y-98613181D01*
X53663923Y-96602555D01*
X53630438Y-96541232D01*
X53627604Y-96514874D01*
X53627604Y-79847911D01*
X53647289Y-79780872D01*
X53663918Y-79760235D01*
X54859449Y-78564703D01*
X54920770Y-78531220D01*
X54990462Y-78536204D01*
X55034809Y-78564705D01*
X55120213Y-78650109D01*
X55292179Y-78775048D01*
X55292181Y-78775049D01*
X55292184Y-78775051D01*
X55301493Y-78779794D01*
X55352290Y-78827766D01*
X55369087Y-78895587D01*
X55346552Y-78961722D01*
X55301505Y-79000760D01*
X55292446Y-79005376D01*
X55292440Y-79005380D01*
X55238282Y-79044727D01*
X55238282Y-79044728D01*
X55870591Y-79677037D01*
X55807007Y-79694075D01*
X55692993Y-79759901D01*
X55599901Y-79852993D01*
X55534075Y-79967007D01*
X55517037Y-80030591D01*
X54884728Y-79398282D01*
X54884727Y-79398282D01*
X54845380Y-79452439D01*
X54748904Y-79641782D01*
X54683242Y-79843869D01*
X54683242Y-79843872D01*
X54650000Y-80053753D01*
X54650000Y-80266246D01*
X54683242Y-80476127D01*
X54683242Y-80476130D01*
X54748904Y-80678217D01*
X54845375Y-80867550D01*
X54884728Y-80921716D01*
X55517037Y-80289408D01*
X55534075Y-80352993D01*
X55599901Y-80467007D01*
X55692993Y-80560099D01*
X55807007Y-80625925D01*
X55870590Y-80642962D01*
X55238282Y-81275269D01*
X55238282Y-81275270D01*
X55292452Y-81314626D01*
X55292451Y-81314626D01*
X55301495Y-81319234D01*
X55352292Y-81367208D01*
X55369087Y-81435029D01*
X55346550Y-81501164D01*
X55301499Y-81540202D01*
X55292182Y-81544949D01*
X55120213Y-81669890D01*
X54969890Y-81820213D01*
X54844951Y-81992179D01*
X54748444Y-82181585D01*
X54682753Y-82383760D01*
X54649500Y-82593713D01*
X54649500Y-82806287D01*
X54682754Y-83016243D01*
X54696456Y-83058414D01*
X54748444Y-83218414D01*
X54844951Y-83407820D01*
X54969890Y-83579786D01*
X55120213Y-83730109D01*
X55292182Y-83855050D01*
X55300946Y-83859516D01*
X55351742Y-83907491D01*
X55368536Y-83975312D01*
X55345998Y-84041447D01*
X55300946Y-84080484D01*
X55292182Y-84084949D01*
X55120213Y-84209890D01*
X54969890Y-84360213D01*
X54844951Y-84532179D01*
X54748444Y-84721585D01*
X54682753Y-84923760D01*
X54649500Y-85133713D01*
X54649500Y-85346287D01*
X54682754Y-85556243D01*
X54696456Y-85598414D01*
X54748444Y-85758414D01*
X54844951Y-85947820D01*
X54969890Y-86119786D01*
X55120213Y-86270109D01*
X55292182Y-86395050D01*
X55300946Y-86399516D01*
X55351742Y-86447491D01*
X55368536Y-86515312D01*
X55345998Y-86581447D01*
X55300946Y-86620484D01*
X55292182Y-86624949D01*
X55120213Y-86749890D01*
X54969890Y-86900213D01*
X54844951Y-87072179D01*
X54748444Y-87261585D01*
X54682753Y-87463760D01*
X54658007Y-87620000D01*
X54649500Y-87673713D01*
X54649500Y-87886287D01*
X54657394Y-87936127D01*
X54681119Y-88085925D01*
X54682754Y-88096243D01*
X54745888Y-88290550D01*
X54748444Y-88298414D01*
X54844951Y-88487820D01*
X54969890Y-88659786D01*
X55120213Y-88810109D01*
X55292182Y-88935050D01*
X55300946Y-88939516D01*
X55351742Y-88987491D01*
X55368536Y-89055312D01*
X55345998Y-89121447D01*
X55300946Y-89160484D01*
X55292182Y-89164949D01*
X55120213Y-89289890D01*
X54969890Y-89440213D01*
X54844951Y-89612179D01*
X54748444Y-89801585D01*
X54682753Y-90003760D01*
X54649500Y-90213713D01*
X54649500Y-90426287D01*
X54682754Y-90636243D01*
X54696456Y-90678414D01*
X54748444Y-90838414D01*
X54844951Y-91027820D01*
X54969890Y-91199786D01*
X55120213Y-91350109D01*
X55292179Y-91475048D01*
X55292181Y-91475049D01*
X55292184Y-91475051D01*
X55481588Y-91571557D01*
X55683757Y-91637246D01*
X55893713Y-91670500D01*
X55893714Y-91670500D01*
X56106286Y-91670500D01*
X56106287Y-91670500D01*
X56316243Y-91637246D01*
X56518412Y-91571557D01*
X56707816Y-91475051D01*
X56744439Y-91448443D01*
X56879786Y-91350109D01*
X56879788Y-91350106D01*
X56879792Y-91350104D01*
X57030104Y-91199792D01*
X57030106Y-91199788D01*
X57030109Y-91199786D01*
X57155048Y-91027820D01*
X57155047Y-91027820D01*
X57155051Y-91027816D01*
X57251557Y-90838412D01*
X57317246Y-90636243D01*
X57350500Y-90426287D01*
X57350500Y-90213713D01*
X57317246Y-90003757D01*
X57251557Y-89801588D01*
X57155051Y-89612184D01*
X57155049Y-89612181D01*
X57155048Y-89612179D01*
X57030109Y-89440213D01*
X56879786Y-89289890D01*
X56707820Y-89164951D01*
X56707115Y-89164591D01*
X56699054Y-89160485D01*
X56648259Y-89112512D01*
X56631463Y-89044692D01*
X56653999Y-88978556D01*
X56699054Y-88939515D01*
X56707816Y-88935051D01*
X56744439Y-88908443D01*
X56879786Y-88810109D01*
X56879788Y-88810106D01*
X56879792Y-88810104D01*
X57030104Y-88659792D01*
X57030106Y-88659788D01*
X57030109Y-88659786D01*
X57155048Y-88487820D01*
X57155047Y-88487820D01*
X57155051Y-88487816D01*
X57251557Y-88298412D01*
X57317246Y-88096243D01*
X57350500Y-87886287D01*
X57350500Y-87673713D01*
X57317246Y-87463757D01*
X57251557Y-87261588D01*
X57155051Y-87072184D01*
X57155049Y-87072181D01*
X57155048Y-87072179D01*
X57030109Y-86900213D01*
X56879786Y-86749890D01*
X56707820Y-86624951D01*
X56707115Y-86624591D01*
X56699054Y-86620485D01*
X56648259Y-86572512D01*
X56631463Y-86504692D01*
X56653999Y-86438556D01*
X56699054Y-86399515D01*
X56707816Y-86395051D01*
X56762134Y-86355587D01*
X56879786Y-86270109D01*
X56879788Y-86270106D01*
X56879792Y-86270104D01*
X57030104Y-86119792D01*
X57030106Y-86119788D01*
X57030109Y-86119786D01*
X57155048Y-85947820D01*
X57155047Y-85947820D01*
X57155051Y-85947816D01*
X57251557Y-85758412D01*
X57317246Y-85556243D01*
X57350500Y-85346287D01*
X57350500Y-85133713D01*
X57317246Y-84923757D01*
X57251557Y-84721588D01*
X57155051Y-84532184D01*
X57155049Y-84532181D01*
X57155048Y-84532179D01*
X57030109Y-84360213D01*
X56879786Y-84209890D01*
X56707820Y-84084951D01*
X56707115Y-84084591D01*
X56699054Y-84080485D01*
X56648259Y-84032512D01*
X56631463Y-83964692D01*
X56653999Y-83898556D01*
X56699054Y-83859515D01*
X56707816Y-83855051D01*
X56744439Y-83828443D01*
X56879786Y-83730109D01*
X56879788Y-83730106D01*
X56879792Y-83730104D01*
X57030104Y-83579792D01*
X57030106Y-83579788D01*
X57030109Y-83579786D01*
X57155048Y-83407820D01*
X57155047Y-83407820D01*
X57155051Y-83407816D01*
X57251557Y-83218412D01*
X57317246Y-83016243D01*
X57350500Y-82806287D01*
X57350500Y-82593713D01*
X57317246Y-82383757D01*
X57251557Y-82181588D01*
X57155051Y-81992184D01*
X57155049Y-81992181D01*
X57155048Y-81992179D01*
X57030109Y-81820213D01*
X56879786Y-81669890D01*
X56707817Y-81544949D01*
X56698504Y-81540204D01*
X56647707Y-81492230D01*
X56630912Y-81424409D01*
X56653449Y-81358274D01*
X56698507Y-81319232D01*
X56707555Y-81314622D01*
X56761716Y-81275270D01*
X56761717Y-81275270D01*
X56129408Y-80642962D01*
X56192993Y-80625925D01*
X56307007Y-80560099D01*
X56400099Y-80467007D01*
X56465925Y-80352993D01*
X56482962Y-80289409D01*
X57115270Y-80921717D01*
X57115270Y-80921716D01*
X57154622Y-80867554D01*
X57251095Y-80678217D01*
X57316757Y-80476130D01*
X57316757Y-80476127D01*
X57350000Y-80266246D01*
X57350000Y-80053753D01*
X57316757Y-79843872D01*
X57316757Y-79843869D01*
X57251095Y-79641782D01*
X57154624Y-79452449D01*
X57115270Y-79398282D01*
X57115269Y-79398282D01*
X56482962Y-80030590D01*
X56465925Y-79967007D01*
X56400099Y-79852993D01*
X56307007Y-79759901D01*
X56192993Y-79694075D01*
X56129409Y-79677037D01*
X56761716Y-79044728D01*
X56707547Y-79005373D01*
X56707547Y-79005372D01*
X56698500Y-79000763D01*
X56647706Y-78952788D01*
X56630912Y-78884966D01*
X56653451Y-78818832D01*
X56698508Y-78779793D01*
X56707816Y-78775051D01*
X56802574Y-78706206D01*
X56879786Y-78650109D01*
X56879788Y-78650106D01*
X56879792Y-78650104D01*
X57030104Y-78499792D01*
X57030106Y-78499788D01*
X57030109Y-78499786D01*
X57155048Y-78327820D01*
X57155047Y-78327820D01*
X57155051Y-78327816D01*
X57251557Y-78138412D01*
X57317246Y-77936243D01*
X57350500Y-77726287D01*
X57350500Y-77513713D01*
X57317246Y-77303757D01*
X57251557Y-77101588D01*
X57155051Y-76912184D01*
X57155049Y-76912181D01*
X57155048Y-76912179D01*
X57030109Y-76740213D01*
X56879786Y-76589890D01*
X56707820Y-76464951D01*
X56707115Y-76464591D01*
X56699054Y-76460485D01*
X56648259Y-76412512D01*
X56631463Y-76344692D01*
X56653999Y-76278556D01*
X56699054Y-76239515D01*
X56707816Y-76235051D01*
X56729789Y-76219086D01*
X56879786Y-76110109D01*
X56879788Y-76110106D01*
X56879792Y-76110104D01*
X57030104Y-75959792D01*
X57030106Y-75959788D01*
X57030109Y-75959786D01*
X57155048Y-75787820D01*
X57155047Y-75787820D01*
X57155051Y-75787816D01*
X57251557Y-75598412D01*
X57303813Y-75437582D01*
X57343251Y-75379908D01*
X57407609Y-75352710D01*
X57476456Y-75364625D01*
G37*
%TD.AperFunction*%
%TA.AperFunction,Conductor*%
G36*
X74879818Y-108710185D02*
G01*
X74913097Y-108741615D01*
X74969892Y-108819788D01*
X75120213Y-108970109D01*
X75292182Y-109095050D01*
X75300946Y-109099516D01*
X75351742Y-109147491D01*
X75368536Y-109215312D01*
X75345998Y-109281447D01*
X75300946Y-109320484D01*
X75292182Y-109324949D01*
X75120213Y-109449890D01*
X74969892Y-109600211D01*
X74913097Y-109678385D01*
X74857767Y-109721051D01*
X74812779Y-109729500D01*
X74009966Y-109729500D01*
X73942927Y-109709815D01*
X73922285Y-109693181D01*
X73131285Y-108902181D01*
X73097800Y-108840858D01*
X73102784Y-108771166D01*
X73144656Y-108715233D01*
X73210120Y-108690816D01*
X73218966Y-108690500D01*
X74812779Y-108690500D01*
X74879818Y-108710185D01*
G37*
%TD.AperFunction*%
%TA.AperFunction,Conductor*%
G36*
X82923978Y-55307890D02*
G01*
X82995112Y-55414351D01*
X83085649Y-55504888D01*
X83192110Y-55576022D01*
X83252511Y-55601041D01*
X82416275Y-56437277D01*
X82497827Y-56499854D01*
X82497828Y-56499855D01*
X82702171Y-56617834D01*
X82702180Y-56617839D01*
X82920163Y-56708129D01*
X82920161Y-56708129D01*
X83148085Y-56769200D01*
X83382014Y-56799999D01*
X83382029Y-56800000D01*
X83617971Y-56800000D01*
X83617985Y-56799999D01*
X83851914Y-56769200D01*
X84079837Y-56708129D01*
X84297819Y-56617839D01*
X84297828Y-56617834D01*
X84502181Y-56499850D01*
X84583723Y-56437279D01*
X84583723Y-56437276D01*
X83747487Y-55601041D01*
X83807890Y-55576022D01*
X83914351Y-55504888D01*
X84004888Y-55414351D01*
X84076022Y-55307890D01*
X84101041Y-55247488D01*
X84937276Y-56083723D01*
X84937279Y-56083723D01*
X84999850Y-56002181D01*
X85117834Y-55797828D01*
X85117835Y-55797827D01*
X85135167Y-55755983D01*
X85179007Y-55701579D01*
X85245301Y-55679513D01*
X85313001Y-55696791D01*
X85360612Y-55747928D01*
X85364290Y-55755980D01*
X85381716Y-55798049D01*
X85381719Y-55798056D01*
X85425855Y-55874500D01*
X85499727Y-56002450D01*
X85499729Y-56002453D01*
X85499730Y-56002454D01*
X85643406Y-56189697D01*
X85643412Y-56189704D01*
X85810295Y-56356587D01*
X85810302Y-56356593D01*
X85920306Y-56441001D01*
X85997550Y-56500273D01*
X86128918Y-56576118D01*
X86201943Y-56618280D01*
X86201948Y-56618282D01*
X86201951Y-56618284D01*
X86420007Y-56708606D01*
X86647986Y-56769693D01*
X86881989Y-56800500D01*
X86881996Y-56800500D01*
X87118004Y-56800500D01*
X87118011Y-56800500D01*
X87352014Y-56769693D01*
X87579993Y-56708606D01*
X87798049Y-56618284D01*
X88002450Y-56500273D01*
X88189699Y-56356592D01*
X88356592Y-56189699D01*
X88500273Y-56002450D01*
X88618284Y-55798049D01*
X88635709Y-55755983D01*
X88660155Y-55696964D01*
X88703996Y-55642560D01*
X88770290Y-55620495D01*
X88774716Y-55620416D01*
X90540721Y-55620416D01*
X90607760Y-55640101D01*
X90628402Y-55656735D01*
X95006290Y-60034623D01*
X95039775Y-60095946D01*
X95042609Y-60122304D01*
X95042609Y-63403403D01*
X95022924Y-63470442D01*
X94991494Y-63503721D01*
X94945896Y-63536849D01*
X94945891Y-63536853D01*
X94801137Y-63681607D01*
X94680824Y-63847207D01*
X94587890Y-64029597D01*
X94524631Y-64224286D01*
X94492609Y-64426469D01*
X94492609Y-64631172D01*
X94501427Y-64686847D01*
X94492472Y-64756141D01*
X94466635Y-64793926D01*
X77840235Y-81420326D01*
X77840229Y-81420333D01*
X77821447Y-81448443D01*
X77821448Y-81448444D01*
X77758100Y-81543252D01*
X77701529Y-81679826D01*
X77701526Y-81679836D01*
X77672686Y-81824823D01*
X77672686Y-93266101D01*
X77653001Y-93333140D01*
X77636367Y-93353782D01*
X76897026Y-94093122D01*
X76835703Y-94126607D01*
X76766011Y-94121623D01*
X76736462Y-94105761D01*
X76707815Y-94084948D01*
X76703176Y-94082584D01*
X76699054Y-94080485D01*
X76648259Y-94032512D01*
X76631463Y-93964692D01*
X76653999Y-93898556D01*
X76699054Y-93859515D01*
X76707816Y-93855051D01*
X76729789Y-93839086D01*
X76879786Y-93730109D01*
X76879788Y-93730106D01*
X76879792Y-93730104D01*
X77030104Y-93579792D01*
X77030106Y-93579788D01*
X77030109Y-93579786D01*
X77155048Y-93407820D01*
X77155047Y-93407820D01*
X77155051Y-93407816D01*
X77251557Y-93218412D01*
X77317246Y-93016243D01*
X77350500Y-92806287D01*
X77350500Y-92593713D01*
X77317246Y-92383757D01*
X77251557Y-92181588D01*
X77155051Y-91992184D01*
X77155049Y-91992181D01*
X77155048Y-91992179D01*
X77030109Y-91820213D01*
X76879786Y-91669890D01*
X76707820Y-91544951D01*
X76707115Y-91544591D01*
X76699054Y-91540485D01*
X76648259Y-91492512D01*
X76631463Y-91424692D01*
X76653999Y-91358556D01*
X76699054Y-91319515D01*
X76707816Y-91315051D01*
X76866458Y-91199792D01*
X76879786Y-91190109D01*
X76879788Y-91190106D01*
X76879792Y-91190104D01*
X77030104Y-91039792D01*
X77030106Y-91039788D01*
X77030109Y-91039786D01*
X77155048Y-90867820D01*
X77155047Y-90867820D01*
X77155051Y-90867816D01*
X77251557Y-90678412D01*
X77317246Y-90476243D01*
X77350500Y-90266287D01*
X77350500Y-90053713D01*
X77317246Y-89843757D01*
X77251557Y-89641588D01*
X77155051Y-89452184D01*
X77155049Y-89452181D01*
X77155048Y-89452179D01*
X77030109Y-89280213D01*
X76879786Y-89129890D01*
X76707817Y-89004949D01*
X76698504Y-89000204D01*
X76647707Y-88952230D01*
X76630912Y-88884409D01*
X76653449Y-88818274D01*
X76698507Y-88779232D01*
X76707555Y-88774622D01*
X76761716Y-88735270D01*
X76761717Y-88735270D01*
X76129408Y-88102962D01*
X76192993Y-88085925D01*
X76307007Y-88020099D01*
X76400099Y-87927007D01*
X76465925Y-87812993D01*
X76482962Y-87749408D01*
X77115270Y-88381717D01*
X77115270Y-88381716D01*
X77154622Y-88327554D01*
X77251095Y-88138217D01*
X77316757Y-87936130D01*
X77316757Y-87936127D01*
X77350000Y-87726246D01*
X77350000Y-87513753D01*
X77316757Y-87303872D01*
X77316757Y-87303869D01*
X77251095Y-87101782D01*
X77154624Y-86912449D01*
X77115270Y-86858282D01*
X77115269Y-86858282D01*
X76482962Y-87490590D01*
X76465925Y-87427007D01*
X76400099Y-87312993D01*
X76307007Y-87219901D01*
X76192993Y-87154075D01*
X76129409Y-87137037D01*
X76761716Y-86504728D01*
X76707547Y-86465373D01*
X76707547Y-86465372D01*
X76698500Y-86460763D01*
X76647706Y-86412788D01*
X76630912Y-86344966D01*
X76653451Y-86278832D01*
X76698508Y-86239793D01*
X76707816Y-86235051D01*
X76866458Y-86119792D01*
X76879786Y-86110109D01*
X76879788Y-86110106D01*
X76879792Y-86110104D01*
X77030104Y-85959792D01*
X77030106Y-85959788D01*
X77030109Y-85959786D01*
X77155048Y-85787820D01*
X77155047Y-85787820D01*
X77155051Y-85787816D01*
X77251557Y-85598412D01*
X77317246Y-85396243D01*
X77350500Y-85186287D01*
X77350500Y-84973713D01*
X77317246Y-84763757D01*
X77251557Y-84561588D01*
X77155051Y-84372184D01*
X77155049Y-84372181D01*
X77155048Y-84372179D01*
X77030109Y-84200213D01*
X76879786Y-84049890D01*
X76707820Y-83924951D01*
X76707115Y-83924591D01*
X76699054Y-83920485D01*
X76648259Y-83872512D01*
X76631463Y-83804692D01*
X76653999Y-83738556D01*
X76699054Y-83699515D01*
X76707816Y-83695051D01*
X76866458Y-83579792D01*
X76879786Y-83570109D01*
X76879788Y-83570106D01*
X76879792Y-83570104D01*
X77030104Y-83419792D01*
X77030106Y-83419788D01*
X77030109Y-83419786D01*
X77155048Y-83247820D01*
X77155047Y-83247820D01*
X77155051Y-83247816D01*
X77251557Y-83058412D01*
X77317246Y-82856243D01*
X77350500Y-82646287D01*
X77350500Y-82433713D01*
X77317246Y-82223757D01*
X77251557Y-82021588D01*
X77155051Y-81832184D01*
X77155049Y-81832181D01*
X77155048Y-81832179D01*
X77030109Y-81660213D01*
X76916569Y-81546673D01*
X76883084Y-81485350D01*
X76888068Y-81415658D01*
X76929940Y-81359725D01*
X76960915Y-81342810D01*
X77092331Y-81293796D01*
X77207546Y-81207546D01*
X77293796Y-81092331D01*
X77344091Y-80957483D01*
X77350500Y-80897873D01*
X77350499Y-79102128D01*
X77344091Y-79042517D01*
X77342387Y-79037949D01*
X77293797Y-78907671D01*
X77293793Y-78907664D01*
X77207547Y-78792455D01*
X77207544Y-78792452D01*
X77092335Y-78706206D01*
X77092328Y-78706202D01*
X76957482Y-78655908D01*
X76957483Y-78655908D01*
X76897883Y-78649501D01*
X76897881Y-78649500D01*
X76897873Y-78649500D01*
X76897864Y-78649500D01*
X75102129Y-78649500D01*
X75102123Y-78649501D01*
X75042516Y-78655908D01*
X74907671Y-78706202D01*
X74907664Y-78706206D01*
X74792455Y-78792452D01*
X74792452Y-78792455D01*
X74706206Y-78907664D01*
X74706202Y-78907671D01*
X74655908Y-79042517D01*
X74649501Y-79102116D01*
X74649501Y-79102123D01*
X74649500Y-79102135D01*
X74649500Y-80897870D01*
X74649501Y-80897876D01*
X74655908Y-80957483D01*
X74706202Y-81092328D01*
X74706206Y-81092335D01*
X74792452Y-81207544D01*
X74792455Y-81207547D01*
X74907664Y-81293793D01*
X74907671Y-81293797D01*
X75039082Y-81342810D01*
X75095016Y-81384681D01*
X75119433Y-81450145D01*
X75104582Y-81518418D01*
X75083431Y-81546673D01*
X74969889Y-81660215D01*
X74844951Y-81832179D01*
X74748444Y-82021585D01*
X74682753Y-82223760D01*
X74649500Y-82433713D01*
X74649500Y-82646286D01*
X74674841Y-82806287D01*
X74682754Y-82856243D01*
X74734741Y-83016243D01*
X74748444Y-83058414D01*
X74844951Y-83247820D01*
X74969890Y-83419786D01*
X75120213Y-83570109D01*
X75292182Y-83695050D01*
X75300946Y-83699516D01*
X75351742Y-83747491D01*
X75368536Y-83815312D01*
X75345998Y-83881447D01*
X75300946Y-83920484D01*
X75292182Y-83924949D01*
X75120213Y-84049890D01*
X74969890Y-84200213D01*
X74844951Y-84372179D01*
X74748444Y-84561585D01*
X74682753Y-84763760D01*
X74649500Y-84973713D01*
X74649500Y-85186286D01*
X74674841Y-85346287D01*
X74682754Y-85396243D01*
X74734741Y-85556243D01*
X74748444Y-85598414D01*
X74844951Y-85787820D01*
X74969890Y-85959786D01*
X75120213Y-86110109D01*
X75292179Y-86235048D01*
X75292181Y-86235049D01*
X75292184Y-86235051D01*
X75301493Y-86239794D01*
X75352290Y-86287766D01*
X75369087Y-86355587D01*
X75346552Y-86421722D01*
X75301505Y-86460760D01*
X75292446Y-86465376D01*
X75292440Y-86465380D01*
X75238282Y-86504727D01*
X75238282Y-86504728D01*
X75870591Y-87137037D01*
X75807007Y-87154075D01*
X75692993Y-87219901D01*
X75599901Y-87312993D01*
X75534075Y-87427007D01*
X75517037Y-87490591D01*
X74884728Y-86858282D01*
X74884727Y-86858282D01*
X74845380Y-86912439D01*
X74748904Y-87101782D01*
X74683242Y-87303869D01*
X74683242Y-87303872D01*
X74650000Y-87513753D01*
X74650000Y-87726246D01*
X74683242Y-87936127D01*
X74683242Y-87936130D01*
X74748904Y-88138217D01*
X74845375Y-88327550D01*
X74884728Y-88381716D01*
X75517037Y-87749408D01*
X75534075Y-87812993D01*
X75599901Y-87927007D01*
X75692993Y-88020099D01*
X75807007Y-88085925D01*
X75870590Y-88102962D01*
X75238282Y-88735269D01*
X75238282Y-88735270D01*
X75292452Y-88774626D01*
X75292451Y-88774626D01*
X75301495Y-88779234D01*
X75352292Y-88827208D01*
X75369087Y-88895029D01*
X75346550Y-88961164D01*
X75301499Y-89000202D01*
X75292182Y-89004949D01*
X75120213Y-89129890D01*
X74969890Y-89280213D01*
X74844951Y-89452179D01*
X74748444Y-89641585D01*
X74682753Y-89843760D01*
X74649500Y-90053713D01*
X74649500Y-90266286D01*
X74674841Y-90426287D01*
X74682754Y-90476243D01*
X74734741Y-90636243D01*
X74748444Y-90678414D01*
X74844951Y-90867820D01*
X74969890Y-91039786D01*
X75120213Y-91190109D01*
X75292182Y-91315050D01*
X75300946Y-91319516D01*
X75351742Y-91367491D01*
X75368536Y-91435312D01*
X75345998Y-91501447D01*
X75300946Y-91540484D01*
X75292182Y-91544949D01*
X75120213Y-91669890D01*
X74969890Y-91820213D01*
X74844951Y-91992179D01*
X74748444Y-92181585D01*
X74682753Y-92383760D01*
X74649500Y-92593713D01*
X74649500Y-92806286D01*
X74682753Y-93016239D01*
X74748444Y-93218414D01*
X74844951Y-93407820D01*
X74969890Y-93579786D01*
X75120213Y-93730109D01*
X75292182Y-93855050D01*
X75300946Y-93859516D01*
X75351742Y-93907491D01*
X75368536Y-93975312D01*
X75345998Y-94041447D01*
X75300946Y-94080484D01*
X75292182Y-94084949D01*
X75120213Y-94209890D01*
X74969890Y-94360213D01*
X74844951Y-94532179D01*
X74748444Y-94721585D01*
X74682753Y-94923760D01*
X74649500Y-95133713D01*
X74649500Y-95346286D01*
X74682753Y-95556239D01*
X74748444Y-95758414D01*
X74844951Y-95947820D01*
X74969890Y-96119786D01*
X75120213Y-96270109D01*
X75292182Y-96395050D01*
X75300946Y-96399516D01*
X75351742Y-96447491D01*
X75368536Y-96515312D01*
X75345998Y-96581447D01*
X75300946Y-96620484D01*
X75292182Y-96624949D01*
X75120213Y-96749890D01*
X74969890Y-96900213D01*
X74844951Y-97072179D01*
X74748444Y-97261585D01*
X74748444Y-97261586D01*
X74748443Y-97261588D01*
X74717921Y-97355524D01*
X74682753Y-97463760D01*
X74649500Y-97673713D01*
X74649500Y-97886286D01*
X74682753Y-98096239D01*
X74748444Y-98298414D01*
X74844951Y-98487820D01*
X74969890Y-98659786D01*
X75120213Y-98810109D01*
X75292182Y-98935050D01*
X75300946Y-98939516D01*
X75351742Y-98987491D01*
X75368536Y-99055312D01*
X75345998Y-99121447D01*
X75300946Y-99160484D01*
X75292182Y-99164949D01*
X75120213Y-99289890D01*
X74969890Y-99440213D01*
X74844951Y-99612179D01*
X74748444Y-99801585D01*
X74682753Y-100003760D01*
X74649500Y-100213713D01*
X74649500Y-100426286D01*
X74682753Y-100636239D01*
X74748444Y-100838414D01*
X74844951Y-101027820D01*
X74969890Y-101199786D01*
X75120213Y-101350109D01*
X75292182Y-101475050D01*
X75300946Y-101479516D01*
X75351742Y-101527491D01*
X75368536Y-101595312D01*
X75345998Y-101661447D01*
X75300946Y-101700484D01*
X75292182Y-101704949D01*
X75120213Y-101829890D01*
X74969890Y-101980213D01*
X74844951Y-102152179D01*
X74748444Y-102341585D01*
X74682753Y-102543760D01*
X74672923Y-102605826D01*
X74649500Y-102753713D01*
X74649500Y-102966287D01*
X74682754Y-103176243D01*
X74705924Y-103247554D01*
X74748444Y-103378414D01*
X74844951Y-103567820D01*
X74969890Y-103739786D01*
X75120213Y-103890109D01*
X75292182Y-104015050D01*
X75300946Y-104019516D01*
X75351742Y-104067491D01*
X75368536Y-104135312D01*
X75345998Y-104201447D01*
X75300946Y-104240484D01*
X75292182Y-104244949D01*
X75120213Y-104369890D01*
X74969890Y-104520213D01*
X74844951Y-104692179D01*
X74748444Y-104881585D01*
X74682753Y-105083760D01*
X74649500Y-105293713D01*
X74649500Y-105506286D01*
X74682753Y-105716239D01*
X74748444Y-105918414D01*
X74844951Y-106107820D01*
X74969890Y-106279786D01*
X75120213Y-106430109D01*
X75292182Y-106555050D01*
X75300946Y-106559516D01*
X75351742Y-106607491D01*
X75368536Y-106675312D01*
X75345998Y-106741447D01*
X75300946Y-106780484D01*
X75292182Y-106784949D01*
X75120213Y-106909890D01*
X74969892Y-107060211D01*
X74913097Y-107138385D01*
X74857767Y-107181051D01*
X74812779Y-107189500D01*
X73306963Y-107189500D01*
X73239924Y-107169815D01*
X73219282Y-107153181D01*
X71259030Y-105192928D01*
X71225545Y-105131605D01*
X71222711Y-105105247D01*
X71222711Y-87023582D01*
X71193870Y-86878595D01*
X71193869Y-86878594D01*
X71193869Y-86878590D01*
X71137295Y-86742008D01*
X71081129Y-86657949D01*
X71081127Y-86657946D01*
X71055168Y-86619093D01*
X71055163Y-86619087D01*
X64161527Y-79725451D01*
X64128042Y-79664128D01*
X64125208Y-79637770D01*
X64125208Y-77300787D01*
X64096367Y-77155800D01*
X64096366Y-77155799D01*
X64096366Y-77155795D01*
X64064587Y-77079073D01*
X64039793Y-77019215D01*
X64027271Y-77000474D01*
X63968278Y-76912184D01*
X63968276Y-76912181D01*
X63957660Y-76896292D01*
X57386818Y-70325450D01*
X57353333Y-70264127D01*
X57350499Y-70237769D01*
X57350499Y-69102129D01*
X57350498Y-69102123D01*
X57350497Y-69102116D01*
X57344091Y-69042517D01*
X57293796Y-68907669D01*
X57293795Y-68907668D01*
X57293793Y-68907664D01*
X57207547Y-68792455D01*
X57207544Y-68792452D01*
X57092335Y-68706206D01*
X57092328Y-68706202D01*
X56957482Y-68655908D01*
X56957483Y-68655908D01*
X56897883Y-68649501D01*
X56897881Y-68649500D01*
X56897873Y-68649500D01*
X56897864Y-68649500D01*
X55102129Y-68649500D01*
X55102123Y-68649501D01*
X55042516Y-68655908D01*
X54907671Y-68706202D01*
X54907664Y-68706206D01*
X54792455Y-68792452D01*
X54792452Y-68792455D01*
X54706206Y-68907664D01*
X54706202Y-68907671D01*
X54655908Y-69042517D01*
X54649501Y-69102116D01*
X54649501Y-69102123D01*
X54649500Y-69102135D01*
X54649500Y-70897870D01*
X54649501Y-70897876D01*
X54655908Y-70957483D01*
X54706202Y-71092328D01*
X54706206Y-71092335D01*
X54792452Y-71207544D01*
X54792455Y-71207547D01*
X54907664Y-71293793D01*
X54907671Y-71293797D01*
X55039082Y-71342810D01*
X55095016Y-71384681D01*
X55119433Y-71450145D01*
X55104582Y-71518418D01*
X55083431Y-71546673D01*
X54969889Y-71660215D01*
X54844951Y-71832179D01*
X54748444Y-72021585D01*
X54682753Y-72223760D01*
X54649500Y-72433713D01*
X54649500Y-72646286D01*
X54682753Y-72856239D01*
X54748444Y-73058414D01*
X54844951Y-73247820D01*
X54969890Y-73419786D01*
X55120213Y-73570109D01*
X55292182Y-73695050D01*
X55300946Y-73699516D01*
X55351742Y-73747491D01*
X55368536Y-73815312D01*
X55345998Y-73881447D01*
X55300946Y-73920484D01*
X55292182Y-73924949D01*
X55120213Y-74049890D01*
X54969890Y-74200213D01*
X54844951Y-74372179D01*
X54748444Y-74561585D01*
X54682753Y-74763760D01*
X54655518Y-74935713D01*
X54625589Y-74998848D01*
X54566277Y-75035779D01*
X54496414Y-75034781D01*
X54445364Y-75003996D01*
X53652492Y-74211124D01*
X53619007Y-74149801D01*
X53616173Y-74123443D01*
X53616173Y-58991788D01*
X53635858Y-58924749D01*
X53652492Y-58904107D01*
X56769780Y-55786819D01*
X56831103Y-55753334D01*
X56857461Y-55750500D01*
X58075501Y-55750500D01*
X58142540Y-55770185D01*
X58188295Y-55822989D01*
X58199501Y-55874500D01*
X58199501Y-56100018D01*
X58210000Y-56202796D01*
X58210001Y-56202799D01*
X58258885Y-56350319D01*
X58265186Y-56369334D01*
X58357288Y-56518656D01*
X58481344Y-56642712D01*
X58630666Y-56734814D01*
X58797203Y-56789999D01*
X58899991Y-56800500D01*
X60687769Y-56800499D01*
X60754808Y-56820184D01*
X60775450Y-56836818D01*
X62349278Y-58410645D01*
X63683324Y-59744691D01*
X63683325Y-59744692D01*
X63787859Y-59849226D01*
X63787861Y-59849228D01*
X63910774Y-59931356D01*
X63910787Y-59931363D01*
X64047358Y-59987932D01*
X64047363Y-59987934D01*
X64047367Y-59987934D01*
X64047368Y-59987935D01*
X64192355Y-60016776D01*
X64192358Y-60016776D01*
X75807644Y-60016776D01*
X75905186Y-59997372D01*
X75952637Y-59987934D01*
X76089219Y-59931360D01*
X76138453Y-59898462D01*
X76212140Y-59849228D01*
X79077447Y-56983918D01*
X79138770Y-56950434D01*
X79208462Y-56955418D01*
X79264395Y-56997290D01*
X79288812Y-57062754D01*
X79289128Y-57071600D01*
X79289128Y-63489876D01*
X79289128Y-63489878D01*
X79289127Y-63489878D01*
X79317968Y-63634865D01*
X79317971Y-63634875D01*
X79374540Y-63771446D01*
X79374548Y-63771460D01*
X79398402Y-63807159D01*
X79398403Y-63807162D01*
X79398404Y-63807162D01*
X79456679Y-63894378D01*
X79456680Y-63894379D01*
X80674075Y-65111773D01*
X80674077Y-65111775D01*
X80703549Y-65131466D01*
X80747761Y-65161007D01*
X80796996Y-65193905D01*
X80796997Y-65193905D01*
X80796998Y-65193906D01*
X80797000Y-65193907D01*
X80933573Y-65250477D01*
X80933578Y-65250479D01*
X80933582Y-65250479D01*
X80933583Y-65250480D01*
X81078570Y-65279321D01*
X81078573Y-65279321D01*
X81078574Y-65279321D01*
X81226408Y-65279321D01*
X87047691Y-65279321D01*
X87114730Y-65299006D01*
X87148009Y-65330436D01*
X87181137Y-65376033D01*
X87181141Y-65376038D01*
X87325895Y-65520792D01*
X87480858Y-65633377D01*
X87491499Y-65641108D01*
X87607716Y-65700324D01*
X87673885Y-65734039D01*
X87673887Y-65734039D01*
X87673890Y-65734041D01*
X87778246Y-65767948D01*
X87868574Y-65797298D01*
X87952673Y-65810618D01*
X88070757Y-65829321D01*
X88070758Y-65829321D01*
X88275460Y-65829321D01*
X88275461Y-65829321D01*
X88477643Y-65797298D01*
X88672328Y-65734041D01*
X88854719Y-65641108D01*
X88947699Y-65573553D01*
X89020322Y-65520792D01*
X89020324Y-65520789D01*
X89020328Y-65520787D01*
X89165075Y-65376040D01*
X89165077Y-65376036D01*
X89165080Y-65376034D01*
X89235345Y-65279321D01*
X89285396Y-65210431D01*
X89378329Y-65028040D01*
X89441586Y-64833355D01*
X89473609Y-64631173D01*
X89473609Y-64426469D01*
X89441586Y-64224287D01*
X89378329Y-64029602D01*
X89378327Y-64029599D01*
X89378327Y-64029597D01*
X89309429Y-63894379D01*
X89285396Y-63847211D01*
X89235345Y-63778321D01*
X89165080Y-63681607D01*
X89020322Y-63536849D01*
X88854722Y-63416536D01*
X88854721Y-63416535D01*
X88854719Y-63416534D01*
X88797762Y-63387512D01*
X88672332Y-63323602D01*
X88477643Y-63260343D01*
X88303104Y-63232699D01*
X88275461Y-63228321D01*
X88070757Y-63228321D01*
X88046438Y-63232172D01*
X87868574Y-63260343D01*
X87673885Y-63323602D01*
X87491495Y-63416536D01*
X87325895Y-63536849D01*
X87181141Y-63681603D01*
X87181137Y-63681608D01*
X87148009Y-63727206D01*
X87092680Y-63769872D01*
X87047691Y-63778321D01*
X81514721Y-63778321D01*
X81447682Y-63758636D01*
X81427040Y-63742002D01*
X80826447Y-63141409D01*
X80792962Y-63080086D01*
X80790128Y-63053728D01*
X80790128Y-56924499D01*
X80809813Y-56857460D01*
X80862617Y-56811705D01*
X80914128Y-56800499D01*
X81100002Y-56800499D01*
X81100008Y-56800499D01*
X81202797Y-56789999D01*
X81369334Y-56734814D01*
X81518656Y-56642712D01*
X81642712Y-56518656D01*
X81734814Y-56369334D01*
X81789999Y-56202797D01*
X81800500Y-56100009D01*
X81800500Y-56100008D01*
X81800821Y-56096868D01*
X81801782Y-56096966D01*
X81823517Y-56034789D01*
X81878571Y-55991767D01*
X81948144Y-55985340D01*
X82010148Y-56017546D01*
X82022679Y-56031540D01*
X82062721Y-56083723D01*
X82898958Y-55247487D01*
X82923978Y-55307890D01*
G37*
%TD.AperFunction*%
%TA.AperFunction,Conductor*%
G36*
X59251947Y-74313761D02*
G01*
X59258425Y-74319793D01*
X62587889Y-77649257D01*
X62621374Y-77710580D01*
X62624208Y-77736938D01*
X62624208Y-79909467D01*
X62604523Y-79976506D01*
X62551719Y-80022261D01*
X62482561Y-80032205D01*
X62419005Y-80003180D01*
X62412527Y-79997148D01*
X59083063Y-76667684D01*
X59049578Y-76606361D01*
X59046744Y-76580003D01*
X59046744Y-74407474D01*
X59066429Y-74340435D01*
X59119233Y-74294680D01*
X59188391Y-74284736D01*
X59251947Y-74313761D01*
G37*
%TD.AperFunction*%
%TA.AperFunction,Conductor*%
G36*
X84208884Y-50027052D02*
G01*
X84229526Y-50043686D01*
X86213181Y-52027341D01*
X86246666Y-52088664D01*
X86249500Y-52115022D01*
X86249500Y-53282671D01*
X86229815Y-53349710D01*
X86187501Y-53390058D01*
X86063699Y-53461535D01*
X85997550Y-53499727D01*
X85997547Y-53499728D01*
X85997542Y-53499732D01*
X85810302Y-53643406D01*
X85810295Y-53643412D01*
X85643412Y-53810295D01*
X85643406Y-53810302D01*
X85499730Y-53997545D01*
X85499727Y-53997549D01*
X85499727Y-53997550D01*
X85492734Y-54009662D01*
X85381719Y-54201943D01*
X85381712Y-54201958D01*
X85364289Y-54244020D01*
X85320447Y-54298422D01*
X85254153Y-54320486D01*
X85186454Y-54303206D01*
X85138844Y-54252068D01*
X85135168Y-54244017D01*
X85117839Y-54202180D01*
X85117834Y-54202171D01*
X84999855Y-53997828D01*
X84999854Y-53997827D01*
X84937277Y-53916275D01*
X84101041Y-54752511D01*
X84076022Y-54692110D01*
X84004888Y-54585649D01*
X83914351Y-54495112D01*
X83807890Y-54423978D01*
X83747488Y-54398958D01*
X84583723Y-53562721D01*
X84502172Y-53500145D01*
X84502171Y-53500144D01*
X84297828Y-53382165D01*
X84297819Y-53382160D01*
X84079836Y-53291870D01*
X84079838Y-53291870D01*
X83851914Y-53230799D01*
X83617985Y-53200000D01*
X83382014Y-53200000D01*
X83148085Y-53230799D01*
X82920162Y-53291870D01*
X82702180Y-53382160D01*
X82702171Y-53382165D01*
X82497828Y-53500144D01*
X82497818Y-53500150D01*
X82416275Y-53562720D01*
X82416275Y-53562721D01*
X83252512Y-54398958D01*
X83192110Y-54423978D01*
X83085649Y-54495112D01*
X82995112Y-54585649D01*
X82923978Y-54692110D01*
X82898958Y-54752512D01*
X82062721Y-53916275D01*
X82062719Y-53916275D01*
X82022678Y-53968459D01*
X81966250Y-54009662D01*
X81896504Y-54013817D01*
X81835584Y-53979605D01*
X81802831Y-53917887D01*
X81800952Y-53903118D01*
X81800820Y-53903132D01*
X81789999Y-53797203D01*
X81789998Y-53797200D01*
X81741114Y-53649678D01*
X81741113Y-53649676D01*
X81739037Y-53643412D01*
X81734814Y-53630666D01*
X81642712Y-53481344D01*
X81518656Y-53357288D01*
X81369334Y-53265186D01*
X81202797Y-53210001D01*
X81202795Y-53210000D01*
X81100010Y-53199500D01*
X78899998Y-53199500D01*
X78899981Y-53199501D01*
X78797203Y-53210000D01*
X78797200Y-53210001D01*
X78630668Y-53265185D01*
X78630663Y-53265187D01*
X78481342Y-53357289D01*
X78357289Y-53481342D01*
X78265187Y-53630663D01*
X78265185Y-53630668D01*
X78237349Y-53714670D01*
X78210001Y-53797203D01*
X78210001Y-53797204D01*
X78210000Y-53797204D01*
X78199500Y-53899983D01*
X78199500Y-55687769D01*
X78179815Y-55754808D01*
X78163181Y-55775450D01*
X75459175Y-58479457D01*
X75397852Y-58512942D01*
X75371494Y-58515776D01*
X64628505Y-58515776D01*
X64561466Y-58496091D01*
X64540824Y-58479457D01*
X63040728Y-56979361D01*
X63007243Y-56918038D01*
X63012227Y-56848346D01*
X63054099Y-56792413D01*
X63119563Y-56767996D01*
X63144595Y-56768741D01*
X63382014Y-56799999D01*
X63382029Y-56800000D01*
X63617971Y-56800000D01*
X63617985Y-56799999D01*
X63851914Y-56769200D01*
X64079837Y-56708129D01*
X64297819Y-56617839D01*
X64297828Y-56617834D01*
X64502181Y-56499850D01*
X64583723Y-56437279D01*
X64583723Y-56437276D01*
X63747488Y-55601041D01*
X63807890Y-55576022D01*
X63914351Y-55504888D01*
X64004888Y-55414351D01*
X64076022Y-55307890D01*
X64101041Y-55247488D01*
X64937276Y-56083723D01*
X64937279Y-56083723D01*
X64999850Y-56002181D01*
X65117834Y-55797828D01*
X65117835Y-55797827D01*
X65135167Y-55755983D01*
X65179007Y-55701579D01*
X65245301Y-55679513D01*
X65313001Y-55696791D01*
X65360612Y-55747928D01*
X65364290Y-55755980D01*
X65381716Y-55798049D01*
X65381719Y-55798056D01*
X65425855Y-55874500D01*
X65499727Y-56002450D01*
X65499729Y-56002453D01*
X65499730Y-56002454D01*
X65643406Y-56189697D01*
X65643412Y-56189704D01*
X65810295Y-56356587D01*
X65810302Y-56356593D01*
X65920306Y-56441001D01*
X65997550Y-56500273D01*
X66128918Y-56576118D01*
X66201943Y-56618280D01*
X66201948Y-56618282D01*
X66201951Y-56618284D01*
X66420007Y-56708606D01*
X66647986Y-56769693D01*
X66881989Y-56800500D01*
X66881996Y-56800500D01*
X67118004Y-56800500D01*
X67118011Y-56800500D01*
X67352014Y-56769693D01*
X67579993Y-56708606D01*
X67798049Y-56618284D01*
X68002450Y-56500273D01*
X68189699Y-56356592D01*
X68356592Y-56189699D01*
X68500273Y-56002450D01*
X68618284Y-55798049D01*
X68708606Y-55579993D01*
X68769693Y-55352014D01*
X68800500Y-55118011D01*
X68800500Y-54881989D01*
X68769693Y-54647986D01*
X68708606Y-54420007D01*
X68618284Y-54201951D01*
X68618282Y-54201948D01*
X68618280Y-54201943D01*
X68559267Y-54099731D01*
X68500273Y-53997550D01*
X68356592Y-53810301D01*
X68356587Y-53810295D01*
X68189704Y-53643412D01*
X68189697Y-53643406D01*
X68002457Y-53499732D01*
X68002455Y-53499730D01*
X68002450Y-53499727D01*
X67893548Y-53436852D01*
X67812499Y-53390058D01*
X67804215Y-53381370D01*
X67793297Y-53376384D01*
X67780551Y-53356551D01*
X67764284Y-53339490D01*
X67761068Y-53326234D01*
X67755523Y-53317606D01*
X67750500Y-53282671D01*
X67750500Y-53253840D01*
X67770185Y-53186801D01*
X67786819Y-53166159D01*
X70909292Y-50043686D01*
X70970615Y-50010201D01*
X70996973Y-50007367D01*
X84141845Y-50007367D01*
X84208884Y-50027052D01*
G37*
%TD.AperFunction*%
%TA.AperFunction,Conductor*%
G36*
X121942539Y-46020185D02*
G01*
X121988294Y-46072989D01*
X121999500Y-46124500D01*
X121999500Y-124375500D01*
X121979815Y-124442539D01*
X121927011Y-124488294D01*
X121875500Y-124499500D01*
X43124500Y-124499500D01*
X43057461Y-124479815D01*
X43011706Y-124427011D01*
X43000500Y-124375500D01*
X43000500Y-119878711D01*
X46149500Y-119878711D01*
X46149500Y-120121288D01*
X46181161Y-120361785D01*
X46243947Y-120596104D01*
X46336773Y-120820205D01*
X46336776Y-120820212D01*
X46458064Y-121030289D01*
X46458066Y-121030292D01*
X46458067Y-121030293D01*
X46605733Y-121222736D01*
X46605739Y-121222743D01*
X46777256Y-121394260D01*
X46777262Y-121394265D01*
X46969711Y-121541936D01*
X47179788Y-121663224D01*
X47403900Y-121756054D01*
X47638211Y-121818838D01*
X47818586Y-121842584D01*
X47878711Y-121850500D01*
X47878712Y-121850500D01*
X48121289Y-121850500D01*
X48169388Y-121844167D01*
X48361789Y-121818838D01*
X48596100Y-121756054D01*
X48820212Y-121663224D01*
X49030289Y-121541936D01*
X49222738Y-121394265D01*
X49394265Y-121222738D01*
X49541936Y-121030289D01*
X49663224Y-120820212D01*
X49756054Y-120596100D01*
X49818838Y-120361789D01*
X49850500Y-120121288D01*
X49850500Y-119878712D01*
X49850500Y-119878711D01*
X113149500Y-119878711D01*
X113149500Y-120121288D01*
X113181161Y-120361785D01*
X113243947Y-120596104D01*
X113336773Y-120820205D01*
X113336776Y-120820212D01*
X113458064Y-121030289D01*
X113458066Y-121030292D01*
X113458067Y-121030293D01*
X113605733Y-121222736D01*
X113605739Y-121222743D01*
X113777256Y-121394260D01*
X113777262Y-121394265D01*
X113969711Y-121541936D01*
X114179788Y-121663224D01*
X114403900Y-121756054D01*
X114638211Y-121818838D01*
X114818586Y-121842584D01*
X114878711Y-121850500D01*
X114878712Y-121850500D01*
X115121289Y-121850500D01*
X115169388Y-121844167D01*
X115361789Y-121818838D01*
X115596100Y-121756054D01*
X115820212Y-121663224D01*
X116030289Y-121541936D01*
X116222738Y-121394265D01*
X116394265Y-121222738D01*
X116541936Y-121030289D01*
X116663224Y-120820212D01*
X116756054Y-120596100D01*
X116818838Y-120361789D01*
X116850500Y-120121288D01*
X116850500Y-119878712D01*
X116818838Y-119638211D01*
X116756054Y-119403900D01*
X116663224Y-119179788D01*
X116541936Y-118969711D01*
X116479096Y-118887816D01*
X116394266Y-118777263D01*
X116394260Y-118777256D01*
X116222743Y-118605739D01*
X116222736Y-118605733D01*
X116030293Y-118458067D01*
X116030292Y-118458066D01*
X116030289Y-118458064D01*
X115820212Y-118336776D01*
X115820205Y-118336773D01*
X115596104Y-118243947D01*
X115361785Y-118181161D01*
X115121289Y-118149500D01*
X115121288Y-118149500D01*
X114878712Y-118149500D01*
X114878711Y-118149500D01*
X114638214Y-118181161D01*
X114403895Y-118243947D01*
X114179794Y-118336773D01*
X114179785Y-118336777D01*
X113969706Y-118458067D01*
X113777263Y-118605733D01*
X113777256Y-118605739D01*
X113605739Y-118777256D01*
X113605733Y-118777263D01*
X113458067Y-118969706D01*
X113336777Y-119179785D01*
X113336773Y-119179794D01*
X113243947Y-119403895D01*
X113181161Y-119638214D01*
X113149500Y-119878711D01*
X49850500Y-119878711D01*
X49818838Y-119638211D01*
X49756054Y-119403900D01*
X49663224Y-119179788D01*
X49541936Y-118969711D01*
X49479096Y-118887816D01*
X49394266Y-118777263D01*
X49394260Y-118777256D01*
X49222743Y-118605739D01*
X49222736Y-118605733D01*
X49030293Y-118458067D01*
X49030292Y-118458066D01*
X49030289Y-118458064D01*
X48820212Y-118336776D01*
X48820205Y-118336773D01*
X48596104Y-118243947D01*
X48361785Y-118181161D01*
X48121289Y-118149500D01*
X48121288Y-118149500D01*
X47878712Y-118149500D01*
X47878711Y-118149500D01*
X47638214Y-118181161D01*
X47403895Y-118243947D01*
X47179794Y-118336773D01*
X47179785Y-118336777D01*
X46969706Y-118458067D01*
X46777263Y-118605733D01*
X46777256Y-118605739D01*
X46605739Y-118777256D01*
X46605733Y-118777263D01*
X46458067Y-118969706D01*
X46336777Y-119179785D01*
X46336773Y-119179794D01*
X46243947Y-119403895D01*
X46181161Y-119638214D01*
X46149500Y-119878711D01*
X43000500Y-119878711D01*
X43000500Y-74559593D01*
X52115172Y-74559593D01*
X52144013Y-74704580D01*
X52144016Y-74704590D01*
X52200587Y-74841165D01*
X52233485Y-74890400D01*
X52233486Y-74890403D01*
X52282719Y-74964087D01*
X52282725Y-74964094D01*
X54222343Y-76903711D01*
X54255828Y-76965034D01*
X54250844Y-77034726D01*
X54222343Y-77079073D01*
X52294151Y-79007266D01*
X52283879Y-79022640D01*
X52273651Y-79037949D01*
X52242729Y-79084226D01*
X52212018Y-79130189D01*
X52155447Y-79266764D01*
X52155444Y-79266774D01*
X52126604Y-79411761D01*
X52126604Y-79411764D01*
X52126604Y-96951022D01*
X52126604Y-96951024D01*
X52126603Y-96951024D01*
X52155444Y-97096011D01*
X52155447Y-97096021D01*
X52212017Y-97232594D01*
X52212018Y-97232595D01*
X52212020Y-97232599D01*
X52231388Y-97261585D01*
X52231389Y-97261586D01*
X52231390Y-97261588D01*
X52294155Y-97355524D01*
X52294156Y-97355525D01*
X54613181Y-99674549D01*
X54646666Y-99735872D01*
X54649500Y-99762230D01*
X54649500Y-100897870D01*
X54649501Y-100897876D01*
X54655908Y-100957483D01*
X54706202Y-101092328D01*
X54706206Y-101092335D01*
X54792452Y-101207544D01*
X54792455Y-101207547D01*
X54907664Y-101293793D01*
X54907671Y-101293797D01*
X54952618Y-101310561D01*
X55042517Y-101344091D01*
X55102127Y-101350500D01*
X55112685Y-101350499D01*
X55179723Y-101370179D01*
X55200372Y-101386818D01*
X55870591Y-102057037D01*
X55807007Y-102074075D01*
X55692993Y-102139901D01*
X55599901Y-102232993D01*
X55534075Y-102347007D01*
X55517037Y-102410591D01*
X54884728Y-101778282D01*
X54884727Y-101778282D01*
X54845380Y-101832439D01*
X54748904Y-102021782D01*
X54683242Y-102223869D01*
X54683242Y-102223872D01*
X54650000Y-102433753D01*
X54650000Y-102646246D01*
X54683242Y-102856127D01*
X54683242Y-102856130D01*
X54748904Y-103058217D01*
X54845375Y-103247550D01*
X54884728Y-103301716D01*
X55517037Y-102669408D01*
X55534075Y-102732993D01*
X55599901Y-102847007D01*
X55692993Y-102940099D01*
X55807007Y-103005925D01*
X55870590Y-103022962D01*
X55238282Y-103655269D01*
X55238282Y-103655270D01*
X55292452Y-103694626D01*
X55292451Y-103694626D01*
X55301495Y-103699234D01*
X55352292Y-103747208D01*
X55369087Y-103815029D01*
X55346550Y-103881164D01*
X55301499Y-103920202D01*
X55292182Y-103924949D01*
X55120213Y-104049890D01*
X54969890Y-104200213D01*
X54844951Y-104372179D01*
X54748444Y-104561585D01*
X54682753Y-104763760D01*
X54649500Y-104973713D01*
X54649500Y-105186286D01*
X54676614Y-105357481D01*
X54682754Y-105396243D01*
X54726943Y-105532243D01*
X54748444Y-105598414D01*
X54844951Y-105787820D01*
X54969890Y-105959786D01*
X55120213Y-106110109D01*
X55292182Y-106235050D01*
X55300946Y-106239516D01*
X55351742Y-106287491D01*
X55368536Y-106355312D01*
X55345998Y-106421447D01*
X55300946Y-106460484D01*
X55292182Y-106464949D01*
X55120213Y-106589890D01*
X54969890Y-106740213D01*
X54844951Y-106912179D01*
X54748444Y-107101585D01*
X54682753Y-107303760D01*
X54661642Y-107437049D01*
X54649500Y-107513713D01*
X54649500Y-107726287D01*
X54659534Y-107789644D01*
X54679185Y-107913713D01*
X54682754Y-107936243D01*
X54744503Y-108126287D01*
X54748444Y-108138414D01*
X54844951Y-108327820D01*
X54969890Y-108499786D01*
X55120213Y-108650109D01*
X55292182Y-108775050D01*
X55300946Y-108779516D01*
X55351742Y-108827491D01*
X55368536Y-108895312D01*
X55345998Y-108961447D01*
X55300946Y-109000484D01*
X55292182Y-109004949D01*
X55120213Y-109129890D01*
X54969890Y-109280213D01*
X54844951Y-109452179D01*
X54748444Y-109641585D01*
X54682753Y-109843760D01*
X54661642Y-109977049D01*
X54649500Y-110053713D01*
X54649500Y-110266287D01*
X54659534Y-110329644D01*
X54679185Y-110453713D01*
X54682754Y-110476243D01*
X54744503Y-110666287D01*
X54748444Y-110678414D01*
X54844951Y-110867820D01*
X54969890Y-111039786D01*
X55120213Y-111190109D01*
X55292182Y-111315050D01*
X55300946Y-111319516D01*
X55351742Y-111367491D01*
X55368536Y-111435312D01*
X55345998Y-111501447D01*
X55300946Y-111540484D01*
X55292182Y-111544949D01*
X55120213Y-111669890D01*
X54969890Y-111820213D01*
X54844951Y-111992179D01*
X54748444Y-112181585D01*
X54682753Y-112383760D01*
X54661642Y-112517049D01*
X54649500Y-112593713D01*
X54649500Y-112806287D01*
X54659534Y-112869644D01*
X54679185Y-112993713D01*
X54682754Y-113016243D01*
X54744503Y-113206287D01*
X54748444Y-113218414D01*
X54844951Y-113407820D01*
X54969890Y-113579786D01*
X55120213Y-113730109D01*
X55292182Y-113855050D01*
X55300946Y-113859516D01*
X55351742Y-113907491D01*
X55368536Y-113975312D01*
X55345998Y-114041447D01*
X55300946Y-114080484D01*
X55292182Y-114084949D01*
X55120213Y-114209890D01*
X54969890Y-114360213D01*
X54844951Y-114532179D01*
X54748444Y-114721585D01*
X54682753Y-114923760D01*
X54649500Y-115133713D01*
X54649500Y-115346286D01*
X54679185Y-115533713D01*
X54682754Y-115556243D01*
X54744503Y-115746287D01*
X54748444Y-115758414D01*
X54844951Y-115947820D01*
X54969890Y-116119786D01*
X55120213Y-116270109D01*
X55292182Y-116395050D01*
X55300946Y-116399516D01*
X55351742Y-116447491D01*
X55368536Y-116515312D01*
X55345998Y-116581447D01*
X55300946Y-116620484D01*
X55292182Y-116624949D01*
X55120213Y-116749890D01*
X54969890Y-116900213D01*
X54844951Y-117072179D01*
X54748444Y-117261585D01*
X54682753Y-117463760D01*
X54649500Y-117673713D01*
X54649500Y-117886286D01*
X54679185Y-118073713D01*
X54682754Y-118096243D01*
X54744503Y-118286287D01*
X54748444Y-118298414D01*
X54844951Y-118487820D01*
X54969890Y-118659786D01*
X55120213Y-118810109D01*
X55292179Y-118935048D01*
X55292181Y-118935049D01*
X55292184Y-118935051D01*
X55481588Y-119031557D01*
X55683757Y-119097246D01*
X55893713Y-119130500D01*
X55893714Y-119130500D01*
X56106286Y-119130500D01*
X56106287Y-119130500D01*
X56316243Y-119097246D01*
X56518412Y-119031557D01*
X56707816Y-118935051D01*
X56729789Y-118919086D01*
X56879786Y-118810109D01*
X56879788Y-118810106D01*
X56879792Y-118810104D01*
X57030104Y-118659792D01*
X57030106Y-118659788D01*
X57030109Y-118659786D01*
X57155048Y-118487820D01*
X57155047Y-118487820D01*
X57155051Y-118487816D01*
X57251557Y-118298412D01*
X57317246Y-118096243D01*
X57350500Y-117886287D01*
X57350500Y-117673713D01*
X57317246Y-117463757D01*
X57251557Y-117261588D01*
X57155051Y-117072184D01*
X57155049Y-117072181D01*
X57155048Y-117072179D01*
X57030109Y-116900213D01*
X56879786Y-116749890D01*
X56707820Y-116624951D01*
X56707115Y-116624591D01*
X56699054Y-116620485D01*
X56648259Y-116572512D01*
X56631463Y-116504692D01*
X56653999Y-116438556D01*
X56699054Y-116399515D01*
X56707816Y-116395051D01*
X56729789Y-116379086D01*
X56879786Y-116270109D01*
X56879788Y-116270106D01*
X56879792Y-116270104D01*
X57030104Y-116119792D01*
X57030106Y-116119788D01*
X57030109Y-116119786D01*
X57155048Y-115947820D01*
X57155047Y-115947820D01*
X57155051Y-115947816D01*
X57251557Y-115758412D01*
X57317246Y-115556243D01*
X57350500Y-115346287D01*
X57350500Y-115133713D01*
X57317246Y-114923757D01*
X57251557Y-114721588D01*
X57155051Y-114532184D01*
X57155049Y-114532181D01*
X57155048Y-114532179D01*
X57030109Y-114360213D01*
X56879786Y-114209890D01*
X56707820Y-114084951D01*
X56707115Y-114084591D01*
X56699054Y-114080485D01*
X56695985Y-114077586D01*
X56691896Y-114076535D01*
X56670804Y-114053804D01*
X56648259Y-114032512D01*
X56647243Y-114028413D01*
X56644372Y-114025318D01*
X56638917Y-113994792D01*
X56631463Y-113964692D01*
X56632824Y-113960695D01*
X56632082Y-113956538D01*
X56643997Y-113927907D01*
X56653999Y-113898556D01*
X56657767Y-113894820D01*
X56658928Y-113892032D01*
X56667985Y-113884692D01*
X56684800Y-113868025D01*
X56691639Y-113863293D01*
X56707816Y-113855051D01*
X56792761Y-113793335D01*
X56793932Y-113792525D01*
X56825788Y-113781981D01*
X56857402Y-113770702D01*
X56860104Y-113770624D01*
X56860264Y-113770572D01*
X56860433Y-113770615D01*
X56864481Y-113770500D01*
X74812779Y-113770500D01*
X74879818Y-113790185D01*
X74913097Y-113821615D01*
X74969892Y-113899788D01*
X75120213Y-114050109D01*
X75292182Y-114175050D01*
X75300946Y-114179516D01*
X75351742Y-114227491D01*
X75368536Y-114295312D01*
X75345998Y-114361447D01*
X75300946Y-114400484D01*
X75292182Y-114404949D01*
X75120213Y-114529890D01*
X74969890Y-114680213D01*
X74844951Y-114852179D01*
X74748444Y-115041585D01*
X74682753Y-115243760D01*
X74664616Y-115358272D01*
X74649500Y-115453713D01*
X74649500Y-115666287D01*
X74682754Y-115876243D01*
X74708746Y-115956239D01*
X74748444Y-116078414D01*
X74844951Y-116267820D01*
X74969890Y-116439786D01*
X75120213Y-116590109D01*
X75292182Y-116715050D01*
X75300946Y-116719516D01*
X75351742Y-116767491D01*
X75368536Y-116835312D01*
X75345998Y-116901447D01*
X75300946Y-116940484D01*
X75292182Y-116944949D01*
X75120213Y-117069890D01*
X74969890Y-117220213D01*
X74844951Y-117392179D01*
X74748444Y-117581585D01*
X74682753Y-117783760D01*
X74649500Y-117993713D01*
X74649500Y-118206286D01*
X74670167Y-118336776D01*
X74682754Y-118416243D01*
X74744325Y-118605739D01*
X74748444Y-118618414D01*
X74844951Y-118807820D01*
X74969890Y-118979786D01*
X75120213Y-119130109D01*
X75292179Y-119255048D01*
X75292181Y-119255049D01*
X75292184Y-119255051D01*
X75481588Y-119351557D01*
X75683757Y-119417246D01*
X75893713Y-119450500D01*
X75893714Y-119450500D01*
X76106286Y-119450500D01*
X76106287Y-119450500D01*
X76316243Y-119417246D01*
X76518412Y-119351557D01*
X76707816Y-119255051D01*
X76769681Y-119210104D01*
X76879786Y-119130109D01*
X76879788Y-119130106D01*
X76879792Y-119130104D01*
X77030104Y-118979792D01*
X77030106Y-118979788D01*
X77030109Y-118979786D01*
X77155048Y-118807820D01*
X77155047Y-118807820D01*
X77155051Y-118807816D01*
X77251557Y-118618412D01*
X77317246Y-118416243D01*
X77350500Y-118206287D01*
X77350500Y-117993713D01*
X77317246Y-117783757D01*
X77251557Y-117581588D01*
X77155051Y-117392184D01*
X77155049Y-117392181D01*
X77155048Y-117392179D01*
X77030109Y-117220213D01*
X76879786Y-117069890D01*
X76707820Y-116944951D01*
X76707115Y-116944591D01*
X76699054Y-116940485D01*
X76648259Y-116892512D01*
X76631463Y-116824692D01*
X76653999Y-116758556D01*
X76699054Y-116719515D01*
X76707816Y-116715051D01*
X76831832Y-116624949D01*
X76879786Y-116590109D01*
X76879788Y-116590106D01*
X76879792Y-116590104D01*
X77030104Y-116439792D01*
X77030106Y-116439788D01*
X77030109Y-116439786D01*
X77155048Y-116267820D01*
X77155047Y-116267820D01*
X77155051Y-116267816D01*
X77251557Y-116078412D01*
X77317246Y-115876243D01*
X77350500Y-115666287D01*
X77350500Y-115453713D01*
X77317246Y-115243757D01*
X77251557Y-115041588D01*
X77155051Y-114852184D01*
X77155049Y-114852181D01*
X77155048Y-114852179D01*
X77030109Y-114680213D01*
X76879786Y-114529890D01*
X76707820Y-114404951D01*
X76707115Y-114404591D01*
X76699054Y-114400485D01*
X76648259Y-114352512D01*
X76631463Y-114284692D01*
X76653999Y-114218556D01*
X76699054Y-114179515D01*
X76707816Y-114175051D01*
X76831832Y-114084949D01*
X76879786Y-114050109D01*
X76879788Y-114050106D01*
X76879792Y-114050104D01*
X77030104Y-113899792D01*
X77030106Y-113899788D01*
X77030109Y-113899786D01*
X77155048Y-113727820D01*
X77155047Y-113727820D01*
X77155051Y-113727816D01*
X77251557Y-113538412D01*
X77317246Y-113336243D01*
X77350500Y-113126287D01*
X77350500Y-112913713D01*
X77317246Y-112703757D01*
X77251557Y-112501588D01*
X77155051Y-112312184D01*
X77155049Y-112312181D01*
X77155048Y-112312179D01*
X77030109Y-112140213D01*
X76879786Y-111989890D01*
X76707820Y-111864951D01*
X76707115Y-111864591D01*
X76699054Y-111860485D01*
X76648259Y-111812512D01*
X76631463Y-111744692D01*
X76653999Y-111678556D01*
X76699054Y-111639515D01*
X76707816Y-111635051D01*
X76831832Y-111544949D01*
X76879786Y-111510109D01*
X76879788Y-111510106D01*
X76879792Y-111510104D01*
X77030104Y-111359792D01*
X77030106Y-111359788D01*
X77030109Y-111359786D01*
X77155048Y-111187820D01*
X77155047Y-111187820D01*
X77155051Y-111187816D01*
X77251557Y-110998412D01*
X77317246Y-110796243D01*
X77350500Y-110586287D01*
X77350500Y-110373713D01*
X77317246Y-110163757D01*
X77251557Y-109961588D01*
X77155051Y-109772184D01*
X77155049Y-109772181D01*
X77155048Y-109772179D01*
X77030109Y-109600213D01*
X76879786Y-109449890D01*
X76707820Y-109324951D01*
X76707115Y-109324591D01*
X76699054Y-109320485D01*
X76648259Y-109272512D01*
X76631463Y-109204692D01*
X76653999Y-109138556D01*
X76699054Y-109099515D01*
X76707816Y-109095051D01*
X76831832Y-109004949D01*
X76879786Y-108970109D01*
X76879788Y-108970106D01*
X76879792Y-108970104D01*
X77030104Y-108819792D01*
X77030106Y-108819788D01*
X77030109Y-108819786D01*
X77155048Y-108647820D01*
X77155047Y-108647820D01*
X77155051Y-108647816D01*
X77251557Y-108458412D01*
X77317246Y-108256243D01*
X77350500Y-108046287D01*
X77350500Y-107833713D01*
X77317246Y-107623757D01*
X77251557Y-107421588D01*
X77155051Y-107232184D01*
X77155049Y-107232181D01*
X77155048Y-107232179D01*
X77030109Y-107060213D01*
X76879786Y-106909890D01*
X76707820Y-106784951D01*
X76707115Y-106784591D01*
X76699054Y-106780485D01*
X76648259Y-106732512D01*
X76631463Y-106664692D01*
X76653999Y-106598556D01*
X76699054Y-106559515D01*
X76707816Y-106555051D01*
X76831832Y-106464949D01*
X76879786Y-106430109D01*
X76879788Y-106430106D01*
X76879792Y-106430104D01*
X77030104Y-106279792D01*
X77030106Y-106279788D01*
X77030109Y-106279786D01*
X77155048Y-106107820D01*
X77155047Y-106107820D01*
X77155051Y-106107816D01*
X77251557Y-105918412D01*
X77317246Y-105716243D01*
X77350500Y-105506287D01*
X77350500Y-105293713D01*
X77317246Y-105083757D01*
X77251557Y-104881588D01*
X77155051Y-104692184D01*
X77155049Y-104692181D01*
X77155048Y-104692179D01*
X77030109Y-104520213D01*
X76879786Y-104369890D01*
X76707820Y-104244951D01*
X76707115Y-104244591D01*
X76699054Y-104240485D01*
X76648259Y-104192512D01*
X76631463Y-104124692D01*
X76653999Y-104058556D01*
X76699054Y-104019515D01*
X76707816Y-104015051D01*
X76838363Y-103920204D01*
X76879786Y-103890109D01*
X76879788Y-103890106D01*
X76879792Y-103890104D01*
X77030104Y-103739792D01*
X77030106Y-103739788D01*
X77030109Y-103739786D01*
X77155048Y-103567820D01*
X77155047Y-103567820D01*
X77155051Y-103567816D01*
X77251557Y-103378412D01*
X77317246Y-103176243D01*
X77350500Y-102966287D01*
X77350500Y-102753713D01*
X77317246Y-102543757D01*
X77251557Y-102341588D01*
X77155051Y-102152184D01*
X77155049Y-102152181D01*
X77155048Y-102152179D01*
X77030109Y-101980213D01*
X76879786Y-101829890D01*
X76707820Y-101704951D01*
X76707115Y-101704591D01*
X76699054Y-101700485D01*
X76648259Y-101652512D01*
X76631463Y-101584692D01*
X76653999Y-101518556D01*
X76699054Y-101479515D01*
X76707816Y-101475051D01*
X76729789Y-101459086D01*
X76879786Y-101350109D01*
X76879788Y-101350106D01*
X76879792Y-101350104D01*
X77030104Y-101199792D01*
X77030106Y-101199788D01*
X77030109Y-101199786D01*
X77155048Y-101027820D01*
X77155047Y-101027820D01*
X77155051Y-101027816D01*
X77251557Y-100838412D01*
X77317246Y-100636243D01*
X77350500Y-100426287D01*
X77350500Y-100213713D01*
X77317246Y-100003757D01*
X77251557Y-99801588D01*
X77155051Y-99612184D01*
X77155049Y-99612181D01*
X77155048Y-99612179D01*
X77030109Y-99440213D01*
X76879786Y-99289890D01*
X76707820Y-99164951D01*
X76707115Y-99164591D01*
X76699054Y-99160485D01*
X76648259Y-99112512D01*
X76631463Y-99044692D01*
X76653999Y-98978556D01*
X76699054Y-98939515D01*
X76707816Y-98935051D01*
X76745511Y-98907664D01*
X76879786Y-98810109D01*
X76879788Y-98810106D01*
X76879792Y-98810104D01*
X77030104Y-98659792D01*
X77030106Y-98659788D01*
X77030109Y-98659786D01*
X77155048Y-98487820D01*
X77155047Y-98487820D01*
X77155051Y-98487816D01*
X77251557Y-98298412D01*
X77317246Y-98096243D01*
X77350500Y-97886287D01*
X77350500Y-97673713D01*
X77317246Y-97463757D01*
X77251557Y-97261588D01*
X77155051Y-97072184D01*
X77155049Y-97072181D01*
X77155048Y-97072179D01*
X77030109Y-96900213D01*
X76879786Y-96749890D01*
X76707820Y-96624951D01*
X76707115Y-96624591D01*
X76699054Y-96620485D01*
X76648259Y-96572512D01*
X76631463Y-96504692D01*
X76653999Y-96438556D01*
X76699054Y-96399515D01*
X76707816Y-96395051D01*
X76729789Y-96379086D01*
X76879786Y-96270109D01*
X76879788Y-96270106D01*
X76879792Y-96270104D01*
X77030104Y-96119792D01*
X77155051Y-95947816D01*
X77167197Y-95923975D01*
X77177448Y-95912440D01*
X77182538Y-95900749D01*
X77208789Y-95877168D01*
X77216247Y-95872186D01*
X77216250Y-95872183D01*
X77216252Y-95872183D01*
X77241027Y-95855629D01*
X77289934Y-95822952D01*
X79006138Y-94106748D01*
X79065940Y-94017246D01*
X79088270Y-93983827D01*
X79113567Y-93922754D01*
X79144845Y-93847244D01*
X79173686Y-93702249D01*
X79173686Y-93554414D01*
X79173686Y-82260972D01*
X79193371Y-82193933D01*
X79210000Y-82173296D01*
X82281161Y-79102135D01*
X94969500Y-79102135D01*
X94969500Y-80897870D01*
X94969501Y-80897876D01*
X94975908Y-80957483D01*
X95026202Y-81092328D01*
X95026206Y-81092335D01*
X95112452Y-81207544D01*
X95112455Y-81207547D01*
X95227664Y-81293793D01*
X95227671Y-81293797D01*
X95359082Y-81342810D01*
X95415016Y-81384681D01*
X95439433Y-81450145D01*
X95424582Y-81518418D01*
X95403431Y-81546673D01*
X95289889Y-81660215D01*
X95164951Y-81832179D01*
X95068444Y-82021585D01*
X95002753Y-82223760D01*
X94969500Y-82433713D01*
X94969500Y-82646286D01*
X94994841Y-82806287D01*
X95002754Y-82856243D01*
X95054741Y-83016243D01*
X95068444Y-83058414D01*
X95164951Y-83247820D01*
X95289890Y-83419786D01*
X95440213Y-83570109D01*
X95612182Y-83695050D01*
X95620946Y-83699516D01*
X95671742Y-83747491D01*
X95688536Y-83815312D01*
X95665998Y-83881447D01*
X95620946Y-83920484D01*
X95612182Y-83924949D01*
X95440213Y-84049890D01*
X95289890Y-84200213D01*
X95164951Y-84372179D01*
X95068444Y-84561585D01*
X95002753Y-84763760D01*
X94969500Y-84973713D01*
X94969500Y-85186286D01*
X94994841Y-85346287D01*
X95002754Y-85396243D01*
X95054741Y-85556243D01*
X95068444Y-85598414D01*
X95164951Y-85787820D01*
X95289890Y-85959786D01*
X95440213Y-86110109D01*
X95612182Y-86235050D01*
X95620946Y-86239516D01*
X95671742Y-86287491D01*
X95688536Y-86355312D01*
X95665998Y-86421447D01*
X95620946Y-86460484D01*
X95612182Y-86464949D01*
X95440213Y-86589890D01*
X95289890Y-86740213D01*
X95164951Y-86912179D01*
X95068444Y-87101585D01*
X95002753Y-87303760D01*
X94969500Y-87513713D01*
X94969500Y-87726286D01*
X95002735Y-87936127D01*
X95002754Y-87936243D01*
X95054741Y-88096243D01*
X95068444Y-88138414D01*
X95164951Y-88327820D01*
X95289890Y-88499786D01*
X95440213Y-88650109D01*
X95612182Y-88775050D01*
X95620946Y-88779516D01*
X95671742Y-88827491D01*
X95688536Y-88895312D01*
X95665998Y-88961447D01*
X95620946Y-89000484D01*
X95612182Y-89004949D01*
X95440213Y-89129890D01*
X95289890Y-89280213D01*
X95164951Y-89452179D01*
X95068444Y-89641585D01*
X95002753Y-89843760D01*
X94969500Y-90053713D01*
X94969500Y-90266286D01*
X94994841Y-90426287D01*
X95002754Y-90476243D01*
X95054741Y-90636243D01*
X95068444Y-90678414D01*
X95164951Y-90867820D01*
X95289890Y-91039786D01*
X95440213Y-91190109D01*
X95612182Y-91315050D01*
X95620946Y-91319516D01*
X95671742Y-91367491D01*
X95688536Y-91435312D01*
X95665998Y-91501447D01*
X95620946Y-91540484D01*
X95612182Y-91544949D01*
X95440213Y-91669890D01*
X95289890Y-91820213D01*
X95164951Y-91992179D01*
X95068444Y-92181585D01*
X95002753Y-92383760D01*
X94969500Y-92593713D01*
X94969500Y-92806286D01*
X95002753Y-93016239D01*
X95068444Y-93218414D01*
X95164951Y-93407820D01*
X95289890Y-93579786D01*
X95440213Y-93730109D01*
X95612182Y-93855050D01*
X95620946Y-93859516D01*
X95671742Y-93907491D01*
X95688536Y-93975312D01*
X95665998Y-94041447D01*
X95620946Y-94080484D01*
X95612182Y-94084949D01*
X95440213Y-94209890D01*
X95289890Y-94360213D01*
X95164951Y-94532179D01*
X95068444Y-94721585D01*
X95002753Y-94923760D01*
X94969500Y-95133713D01*
X94969500Y-95346286D01*
X95002753Y-95556239D01*
X95068444Y-95758414D01*
X95164951Y-95947820D01*
X95289890Y-96119786D01*
X95440213Y-96270109D01*
X95612182Y-96395050D01*
X95620946Y-96399516D01*
X95671742Y-96447491D01*
X95688536Y-96515312D01*
X95665998Y-96581447D01*
X95620946Y-96620484D01*
X95612182Y-96624949D01*
X95440213Y-96749890D01*
X95289890Y-96900213D01*
X95164951Y-97072179D01*
X95068444Y-97261585D01*
X95068444Y-97261586D01*
X95068443Y-97261588D01*
X95037921Y-97355524D01*
X95002753Y-97463760D01*
X94969500Y-97673713D01*
X94969500Y-97886286D01*
X95002753Y-98096239D01*
X95068444Y-98298414D01*
X95164951Y-98487820D01*
X95289890Y-98659786D01*
X95440213Y-98810109D01*
X95612182Y-98935050D01*
X95620946Y-98939516D01*
X95671742Y-98987491D01*
X95688536Y-99055312D01*
X95665998Y-99121447D01*
X95620946Y-99160484D01*
X95612182Y-99164949D01*
X95440213Y-99289890D01*
X95289890Y-99440213D01*
X95164951Y-99612179D01*
X95068444Y-99801585D01*
X95002753Y-100003760D01*
X94969500Y-100213713D01*
X94969500Y-100426286D01*
X95002753Y-100636239D01*
X95068444Y-100838414D01*
X95164951Y-101027820D01*
X95289890Y-101199786D01*
X95440213Y-101350109D01*
X95612182Y-101475050D01*
X95620946Y-101479516D01*
X95671742Y-101527491D01*
X95688536Y-101595312D01*
X95665998Y-101661447D01*
X95620946Y-101700484D01*
X95612182Y-101704949D01*
X95440213Y-101829890D01*
X95289890Y-101980213D01*
X95164951Y-102152179D01*
X95068444Y-102341585D01*
X95002753Y-102543760D01*
X94992923Y-102605826D01*
X94969500Y-102753713D01*
X94969500Y-102966287D01*
X95002754Y-103176243D01*
X95025924Y-103247554D01*
X95068444Y-103378414D01*
X95164951Y-103567820D01*
X95289890Y-103739786D01*
X95440213Y-103890109D01*
X95612182Y-104015050D01*
X95620946Y-104019516D01*
X95671742Y-104067491D01*
X95688536Y-104135312D01*
X95665998Y-104201447D01*
X95620946Y-104240484D01*
X95612182Y-104244949D01*
X95440213Y-104369890D01*
X95289890Y-104520213D01*
X95164951Y-104692179D01*
X95068444Y-104881585D01*
X95002753Y-105083760D01*
X94969500Y-105293713D01*
X94969500Y-105506286D01*
X95002753Y-105716239D01*
X95068444Y-105918414D01*
X95164951Y-106107820D01*
X95289890Y-106279786D01*
X95440213Y-106430109D01*
X95612182Y-106555050D01*
X95620946Y-106559516D01*
X95671742Y-106607491D01*
X95688536Y-106675312D01*
X95665998Y-106741447D01*
X95620946Y-106780484D01*
X95612182Y-106784949D01*
X95440213Y-106909890D01*
X95289890Y-107060213D01*
X95164951Y-107232179D01*
X95068444Y-107421585D01*
X95002753Y-107623760D01*
X94984616Y-107738273D01*
X94969500Y-107833713D01*
X94969500Y-108046287D01*
X95002754Y-108256243D01*
X95028746Y-108336239D01*
X95068444Y-108458414D01*
X95164951Y-108647820D01*
X95289890Y-108819786D01*
X95440213Y-108970109D01*
X95612182Y-109095050D01*
X95620946Y-109099516D01*
X95671742Y-109147491D01*
X95688536Y-109215312D01*
X95665998Y-109281447D01*
X95620946Y-109320484D01*
X95612182Y-109324949D01*
X95440213Y-109449890D01*
X95289890Y-109600213D01*
X95164951Y-109772179D01*
X95068444Y-109961585D01*
X95002753Y-110163760D01*
X94984616Y-110278273D01*
X94969500Y-110373713D01*
X94969500Y-110586287D01*
X95002754Y-110796243D01*
X95055447Y-110958416D01*
X95068444Y-110998414D01*
X95164951Y-111187820D01*
X95289890Y-111359786D01*
X95440213Y-111510109D01*
X95612182Y-111635050D01*
X95620946Y-111639516D01*
X95671742Y-111687491D01*
X95688536Y-111755312D01*
X95665998Y-111821447D01*
X95620946Y-111860484D01*
X95612182Y-111864949D01*
X95440213Y-111989890D01*
X95289890Y-112140213D01*
X95164951Y-112312179D01*
X95068444Y-112501585D01*
X95002753Y-112703760D01*
X94984616Y-112818273D01*
X94969500Y-112913713D01*
X94969500Y-113126287D01*
X95002754Y-113336243D01*
X95028746Y-113416239D01*
X95068444Y-113538414D01*
X95164951Y-113727820D01*
X95289890Y-113899786D01*
X95440213Y-114050109D01*
X95612182Y-114175050D01*
X95620946Y-114179516D01*
X95671742Y-114227491D01*
X95688536Y-114295312D01*
X95665998Y-114361447D01*
X95620946Y-114400484D01*
X95612182Y-114404949D01*
X95440213Y-114529890D01*
X95289890Y-114680213D01*
X95164951Y-114852179D01*
X95068444Y-115041585D01*
X95002753Y-115243760D01*
X94984616Y-115358272D01*
X94969500Y-115453713D01*
X94969500Y-115666287D01*
X95002754Y-115876243D01*
X95028746Y-115956239D01*
X95068444Y-116078414D01*
X95164951Y-116267820D01*
X95289890Y-116439786D01*
X95440213Y-116590109D01*
X95612182Y-116715050D01*
X95620946Y-116719516D01*
X95671742Y-116767491D01*
X95688536Y-116835312D01*
X95665998Y-116901447D01*
X95620946Y-116940484D01*
X95612182Y-116944949D01*
X95440213Y-117069890D01*
X95289890Y-117220213D01*
X95164951Y-117392179D01*
X95068444Y-117581585D01*
X95002753Y-117783760D01*
X94969500Y-117993713D01*
X94969500Y-118206286D01*
X94990167Y-118336776D01*
X95002754Y-118416243D01*
X95064325Y-118605739D01*
X95068444Y-118618414D01*
X95164951Y-118807820D01*
X95289890Y-118979786D01*
X95440213Y-119130109D01*
X95612179Y-119255048D01*
X95612181Y-119255049D01*
X95612184Y-119255051D01*
X95801588Y-119351557D01*
X96003757Y-119417246D01*
X96213713Y-119450500D01*
X96213714Y-119450500D01*
X96426286Y-119450500D01*
X96426287Y-119450500D01*
X96636243Y-119417246D01*
X96838412Y-119351557D01*
X97027816Y-119255051D01*
X97089681Y-119210104D01*
X97199786Y-119130109D01*
X97199788Y-119130106D01*
X97199792Y-119130104D01*
X97350104Y-118979792D01*
X97350106Y-118979788D01*
X97350109Y-118979786D01*
X97475048Y-118807820D01*
X97475047Y-118807820D01*
X97475051Y-118807816D01*
X97571557Y-118618412D01*
X97637246Y-118416243D01*
X97670500Y-118206287D01*
X97670500Y-117993713D01*
X97637246Y-117783757D01*
X97571557Y-117581588D01*
X97475051Y-117392184D01*
X97475049Y-117392181D01*
X97475048Y-117392179D01*
X97350109Y-117220213D01*
X97199786Y-117069890D01*
X97027820Y-116944951D01*
X97027115Y-116944591D01*
X97019054Y-116940485D01*
X96968259Y-116892512D01*
X96951463Y-116824692D01*
X96973999Y-116758556D01*
X97019054Y-116719515D01*
X97027816Y-116715051D01*
X97151832Y-116624949D01*
X97199786Y-116590109D01*
X97199788Y-116590106D01*
X97199792Y-116590104D01*
X97350104Y-116439792D01*
X97350106Y-116439788D01*
X97350109Y-116439786D01*
X97475048Y-116267820D01*
X97475047Y-116267820D01*
X97475051Y-116267816D01*
X97571557Y-116078412D01*
X97637246Y-115876243D01*
X97670500Y-115666287D01*
X97670500Y-115453713D01*
X97655382Y-115358268D01*
X97664336Y-115288979D01*
X97690171Y-115251195D01*
X99054548Y-113886819D01*
X99115871Y-113853334D01*
X99142229Y-113850500D01*
X103812779Y-113850500D01*
X103879818Y-113870185D01*
X103913097Y-113901615D01*
X103969892Y-113979788D01*
X104120213Y-114130109D01*
X104292182Y-114255050D01*
X104300946Y-114259516D01*
X104351742Y-114307491D01*
X104368536Y-114375312D01*
X104345998Y-114441447D01*
X104300946Y-114480484D01*
X104292182Y-114484949D01*
X104120213Y-114609890D01*
X103969890Y-114760213D01*
X103844951Y-114932179D01*
X103748444Y-115121585D01*
X103682753Y-115323760D01*
X103649500Y-115533713D01*
X103649500Y-115746287D01*
X103651421Y-115758414D01*
X103670082Y-115876239D01*
X103682754Y-115956243D01*
X103722449Y-116078412D01*
X103748444Y-116158414D01*
X103844951Y-116347820D01*
X103969890Y-116519786D01*
X104120213Y-116670109D01*
X104292182Y-116795050D01*
X104300946Y-116799516D01*
X104351742Y-116847491D01*
X104368536Y-116915312D01*
X104345998Y-116981447D01*
X104300946Y-117020484D01*
X104292182Y-117024949D01*
X104120213Y-117149890D01*
X103969890Y-117300213D01*
X103844951Y-117472179D01*
X103748444Y-117661585D01*
X103682753Y-117863760D01*
X103662171Y-117993713D01*
X103649500Y-118073713D01*
X103649500Y-118286287D01*
X103651421Y-118298414D01*
X103670082Y-118416239D01*
X103682754Y-118496243D01*
X103722449Y-118618412D01*
X103748444Y-118698414D01*
X103844951Y-118887820D01*
X103969890Y-119059786D01*
X104120213Y-119210109D01*
X104292179Y-119335048D01*
X104292181Y-119335049D01*
X104292184Y-119335051D01*
X104481588Y-119431557D01*
X104683757Y-119497246D01*
X104893713Y-119530500D01*
X104893714Y-119530500D01*
X105106286Y-119530500D01*
X105106287Y-119530500D01*
X105316243Y-119497246D01*
X105518412Y-119431557D01*
X105707816Y-119335051D01*
X105729789Y-119319086D01*
X105879786Y-119210109D01*
X105879788Y-119210106D01*
X105879792Y-119210104D01*
X106030104Y-119059792D01*
X106030106Y-119059788D01*
X106030109Y-119059786D01*
X106155048Y-118887820D01*
X106155047Y-118887820D01*
X106155051Y-118887816D01*
X106251557Y-118698412D01*
X106317246Y-118496243D01*
X106350500Y-118286287D01*
X106350500Y-118073713D01*
X106317246Y-117863757D01*
X106251557Y-117661588D01*
X106155051Y-117472184D01*
X106155049Y-117472181D01*
X106155048Y-117472179D01*
X106030109Y-117300213D01*
X105879786Y-117149890D01*
X105707820Y-117024951D01*
X105707115Y-117024591D01*
X105699054Y-117020485D01*
X105648259Y-116972512D01*
X105631463Y-116904692D01*
X105653999Y-116838556D01*
X105699054Y-116799515D01*
X105707816Y-116795051D01*
X105745749Y-116767491D01*
X105879786Y-116670109D01*
X105879788Y-116670106D01*
X105879792Y-116670104D01*
X106030104Y-116519792D01*
X106030106Y-116519788D01*
X106030109Y-116519786D01*
X106155048Y-116347820D01*
X106155047Y-116347820D01*
X106155051Y-116347816D01*
X106251557Y-116158412D01*
X106317246Y-115956243D01*
X106350500Y-115746287D01*
X106350500Y-115533713D01*
X106317246Y-115323757D01*
X106251557Y-115121588D01*
X106155051Y-114932184D01*
X106155049Y-114932181D01*
X106155048Y-114932179D01*
X106030109Y-114760213D01*
X105879786Y-114609890D01*
X105707820Y-114484951D01*
X105707115Y-114484591D01*
X105699054Y-114480485D01*
X105648259Y-114432512D01*
X105631463Y-114364692D01*
X105653999Y-114298556D01*
X105699054Y-114259515D01*
X105707816Y-114255051D01*
X105745749Y-114227491D01*
X105879786Y-114130109D01*
X105879788Y-114130106D01*
X105879792Y-114130104D01*
X106030104Y-113979792D01*
X106030106Y-113979788D01*
X106030109Y-113979786D01*
X106139086Y-113829789D01*
X106155051Y-113807816D01*
X106251557Y-113618412D01*
X106317246Y-113416243D01*
X106350500Y-113206287D01*
X106350500Y-112993713D01*
X106317246Y-112783757D01*
X106251557Y-112581588D01*
X106155051Y-112392184D01*
X106155049Y-112392181D01*
X106155048Y-112392179D01*
X106030109Y-112220213D01*
X105879786Y-112069890D01*
X105707820Y-111944951D01*
X105707115Y-111944591D01*
X105699054Y-111940485D01*
X105648259Y-111892512D01*
X105631463Y-111824692D01*
X105653999Y-111758556D01*
X105699054Y-111719515D01*
X105707816Y-111715051D01*
X105745749Y-111687491D01*
X105879786Y-111590109D01*
X105879788Y-111590106D01*
X105879792Y-111590104D01*
X106030104Y-111439792D01*
X106030106Y-111439788D01*
X106030109Y-111439786D01*
X106139086Y-111289789D01*
X106155051Y-111267816D01*
X106251557Y-111078412D01*
X106317246Y-110876243D01*
X106350500Y-110666287D01*
X106350500Y-110453713D01*
X106317246Y-110243757D01*
X106251557Y-110041588D01*
X106155051Y-109852184D01*
X106155049Y-109852181D01*
X106155048Y-109852179D01*
X106030109Y-109680213D01*
X105879786Y-109529890D01*
X105707820Y-109404951D01*
X105707115Y-109404591D01*
X105699054Y-109400485D01*
X105648259Y-109352512D01*
X105631463Y-109284692D01*
X105653999Y-109218556D01*
X105699054Y-109179515D01*
X105707816Y-109175051D01*
X105745749Y-109147491D01*
X105879786Y-109050109D01*
X105879788Y-109050106D01*
X105879792Y-109050104D01*
X106030104Y-108899792D01*
X106030106Y-108899788D01*
X106030109Y-108899786D01*
X106139086Y-108749789D01*
X106155051Y-108727816D01*
X106251557Y-108538412D01*
X106317246Y-108336243D01*
X106350500Y-108126287D01*
X106350500Y-107913713D01*
X106317246Y-107703757D01*
X106251557Y-107501588D01*
X106155051Y-107312184D01*
X106155049Y-107312181D01*
X106155048Y-107312179D01*
X106030109Y-107140213D01*
X105916569Y-107026673D01*
X105883084Y-106965350D01*
X105888068Y-106895658D01*
X105929940Y-106839725D01*
X105960915Y-106822810D01*
X106092331Y-106773796D01*
X106207546Y-106687546D01*
X106293796Y-106572331D01*
X106344091Y-106437483D01*
X106350500Y-106377873D01*
X106350499Y-104582128D01*
X106344091Y-104522517D01*
X106293796Y-104387669D01*
X106293795Y-104387668D01*
X106293793Y-104387664D01*
X106207547Y-104272455D01*
X106207544Y-104272452D01*
X106092335Y-104186206D01*
X106092328Y-104186202D01*
X105957482Y-104135908D01*
X105957483Y-104135908D01*
X105897883Y-104129501D01*
X105897881Y-104129500D01*
X105897873Y-104129500D01*
X105897864Y-104129500D01*
X104102129Y-104129500D01*
X104102123Y-104129501D01*
X104042516Y-104135908D01*
X103907671Y-104186202D01*
X103907664Y-104186206D01*
X103792455Y-104272452D01*
X103792452Y-104272455D01*
X103706206Y-104387664D01*
X103706202Y-104387671D01*
X103655908Y-104522517D01*
X103651708Y-104561588D01*
X103649501Y-104582123D01*
X103649500Y-104582135D01*
X103649500Y-104605500D01*
X103629815Y-104672539D01*
X103577011Y-104718294D01*
X103525500Y-104729500D01*
X98706080Y-104729500D01*
X98561092Y-104758340D01*
X98561082Y-104758343D01*
X98424511Y-104814912D01*
X98424498Y-104814919D01*
X98301584Y-104897048D01*
X98301580Y-104897051D01*
X97874635Y-105323996D01*
X97813312Y-105357481D01*
X97743620Y-105352497D01*
X97687687Y-105310625D01*
X97664481Y-105255713D01*
X97648784Y-105156609D01*
X97637246Y-105083757D01*
X97571557Y-104881588D01*
X97475051Y-104692184D01*
X97475049Y-104692181D01*
X97475048Y-104692179D01*
X97350109Y-104520213D01*
X97199786Y-104369890D01*
X97027820Y-104244951D01*
X97027115Y-104244591D01*
X97019054Y-104240485D01*
X96968259Y-104192512D01*
X96951463Y-104124692D01*
X96973999Y-104058556D01*
X97019054Y-104019515D01*
X97027816Y-104015051D01*
X97158363Y-103920204D01*
X97199786Y-103890109D01*
X97199788Y-103890106D01*
X97199792Y-103890104D01*
X97350104Y-103739792D01*
X97350106Y-103739788D01*
X97350109Y-103739786D01*
X97475048Y-103567820D01*
X97475047Y-103567820D01*
X97475051Y-103567816D01*
X97571557Y-103378412D01*
X97637246Y-103176243D01*
X97670500Y-102966287D01*
X97670500Y-102753713D01*
X97637246Y-102543757D01*
X97571557Y-102341588D01*
X97475051Y-102152184D01*
X97475049Y-102152181D01*
X97475048Y-102152179D01*
X97350109Y-101980213D01*
X97199786Y-101829890D01*
X97027820Y-101704951D01*
X97027115Y-101704591D01*
X97019054Y-101700485D01*
X96968259Y-101652512D01*
X96951463Y-101584692D01*
X96973999Y-101518556D01*
X97019054Y-101479515D01*
X97027816Y-101475051D01*
X97049789Y-101459086D01*
X97199786Y-101350109D01*
X97199788Y-101350106D01*
X97199792Y-101350104D01*
X97350104Y-101199792D01*
X97350106Y-101199788D01*
X97350109Y-101199786D01*
X97475048Y-101027820D01*
X97475047Y-101027820D01*
X97475051Y-101027816D01*
X97571557Y-100838412D01*
X97637246Y-100636243D01*
X97670500Y-100426287D01*
X97670500Y-100213713D01*
X97637246Y-100003757D01*
X97571557Y-99801588D01*
X97475051Y-99612184D01*
X97475049Y-99612181D01*
X97475048Y-99612179D01*
X97350109Y-99440213D01*
X97199786Y-99289890D01*
X97027820Y-99164951D01*
X97027115Y-99164591D01*
X97019054Y-99160485D01*
X96968259Y-99112512D01*
X96951463Y-99044692D01*
X96973999Y-98978556D01*
X97019054Y-98939515D01*
X97027816Y-98935051D01*
X97065511Y-98907664D01*
X97199786Y-98810109D01*
X97199788Y-98810106D01*
X97199792Y-98810104D01*
X97350104Y-98659792D01*
X97350106Y-98659788D01*
X97350109Y-98659786D01*
X97475048Y-98487820D01*
X97475047Y-98487820D01*
X97475051Y-98487816D01*
X97571557Y-98298412D01*
X97637246Y-98096243D01*
X97670500Y-97886287D01*
X97670500Y-97673713D01*
X97637246Y-97463757D01*
X97571557Y-97261588D01*
X97475051Y-97072184D01*
X97475049Y-97072181D01*
X97475048Y-97072179D01*
X97350109Y-96900213D01*
X97199786Y-96749890D01*
X97027820Y-96624951D01*
X97027115Y-96624591D01*
X97019054Y-96620485D01*
X96968259Y-96572512D01*
X96951463Y-96504692D01*
X96973999Y-96438556D01*
X97019054Y-96399515D01*
X97027816Y-96395051D01*
X97049789Y-96379086D01*
X97199786Y-96270109D01*
X97199788Y-96270106D01*
X97199792Y-96270104D01*
X97350104Y-96119792D01*
X97350106Y-96119788D01*
X97350109Y-96119786D01*
X97475048Y-95947820D01*
X97475047Y-95947820D01*
X97475051Y-95947816D01*
X97571557Y-95758412D01*
X97637246Y-95556243D01*
X97670500Y-95346287D01*
X97670500Y-95133713D01*
X97637246Y-94923757D01*
X97571557Y-94721588D01*
X97475051Y-94532184D01*
X97475049Y-94532181D01*
X97475048Y-94532179D01*
X97350109Y-94360213D01*
X97199786Y-94209890D01*
X97027820Y-94084951D01*
X97027115Y-94084591D01*
X97019054Y-94080485D01*
X96968259Y-94032512D01*
X96951463Y-93964692D01*
X96973999Y-93898556D01*
X97019054Y-93859515D01*
X97027816Y-93855051D01*
X97049789Y-93839086D01*
X97199786Y-93730109D01*
X97199788Y-93730106D01*
X97199792Y-93730104D01*
X97350104Y-93579792D01*
X97350106Y-93579788D01*
X97350109Y-93579786D01*
X97475048Y-93407820D01*
X97475047Y-93407820D01*
X97475051Y-93407816D01*
X97571557Y-93218412D01*
X97637246Y-93016243D01*
X97670500Y-92806287D01*
X97670500Y-92593713D01*
X97637246Y-92383757D01*
X97571557Y-92181588D01*
X97475051Y-91992184D01*
X97475049Y-91992181D01*
X97475048Y-91992179D01*
X97350109Y-91820213D01*
X97199786Y-91669890D01*
X97027820Y-91544951D01*
X97027115Y-91544591D01*
X97019054Y-91540485D01*
X96968259Y-91492512D01*
X96951463Y-91424692D01*
X96973999Y-91358556D01*
X97019054Y-91319515D01*
X97027816Y-91315051D01*
X97186458Y-91199792D01*
X97199786Y-91190109D01*
X97199788Y-91190106D01*
X97199792Y-91190104D01*
X97350104Y-91039792D01*
X97350106Y-91039788D01*
X97350109Y-91039786D01*
X97475048Y-90867820D01*
X97475047Y-90867820D01*
X97475051Y-90867816D01*
X97571557Y-90678412D01*
X97637246Y-90476243D01*
X97670500Y-90266287D01*
X97670500Y-90053713D01*
X97637246Y-89843757D01*
X97571557Y-89641588D01*
X97475051Y-89452184D01*
X97475049Y-89452181D01*
X97475048Y-89452179D01*
X97350109Y-89280213D01*
X97199786Y-89129890D01*
X97027820Y-89004951D01*
X97027115Y-89004591D01*
X97019054Y-89000485D01*
X96968259Y-88952512D01*
X96951463Y-88884692D01*
X96973999Y-88818556D01*
X97019054Y-88779515D01*
X97027816Y-88775051D01*
X97186458Y-88659792D01*
X97199786Y-88650109D01*
X97199788Y-88650106D01*
X97199792Y-88650104D01*
X97350104Y-88499792D01*
X97350106Y-88499788D01*
X97350109Y-88499786D01*
X97475048Y-88327820D01*
X97475047Y-88327820D01*
X97475051Y-88327816D01*
X97571557Y-88138412D01*
X97637246Y-87936243D01*
X97670500Y-87726287D01*
X97670500Y-87513713D01*
X97637246Y-87303757D01*
X97571557Y-87101588D01*
X97475051Y-86912184D01*
X97475049Y-86912181D01*
X97475048Y-86912179D01*
X97350109Y-86740213D01*
X97199786Y-86589890D01*
X97027820Y-86464951D01*
X97019600Y-86460763D01*
X97019054Y-86460485D01*
X96968259Y-86412512D01*
X96951463Y-86344692D01*
X96973999Y-86278556D01*
X97019054Y-86239515D01*
X97027816Y-86235051D01*
X97186458Y-86119792D01*
X97199786Y-86110109D01*
X97199788Y-86110106D01*
X97199792Y-86110104D01*
X97350104Y-85959792D01*
X97350106Y-85959788D01*
X97350109Y-85959786D01*
X97475048Y-85787820D01*
X97475047Y-85787820D01*
X97475051Y-85787816D01*
X97571557Y-85598412D01*
X97637246Y-85396243D01*
X97670500Y-85186287D01*
X97670500Y-84973713D01*
X97637246Y-84763757D01*
X97571557Y-84561588D01*
X97475051Y-84372184D01*
X97475049Y-84372181D01*
X97475048Y-84372179D01*
X97350109Y-84200213D01*
X97199786Y-84049890D01*
X97027820Y-83924951D01*
X97027115Y-83924591D01*
X97019054Y-83920485D01*
X96968259Y-83872512D01*
X96951463Y-83804692D01*
X96973999Y-83738556D01*
X97019054Y-83699515D01*
X97027816Y-83695051D01*
X97186458Y-83579792D01*
X97199786Y-83570109D01*
X97199788Y-83570106D01*
X97199792Y-83570104D01*
X97350104Y-83419792D01*
X97350106Y-83419788D01*
X97350109Y-83419786D01*
X97475048Y-83247820D01*
X97475047Y-83247820D01*
X97475051Y-83247816D01*
X97571557Y-83058412D01*
X97637246Y-82856243D01*
X97670500Y-82646287D01*
X97670500Y-82433713D01*
X97637246Y-82223757D01*
X97571557Y-82021588D01*
X97475051Y-81832184D01*
X97475049Y-81832181D01*
X97475048Y-81832179D01*
X97350109Y-81660213D01*
X97236569Y-81546673D01*
X97203084Y-81485350D01*
X97208068Y-81415658D01*
X97249940Y-81359725D01*
X97280915Y-81342810D01*
X97412331Y-81293796D01*
X97527546Y-81207546D01*
X97613796Y-81092331D01*
X97664091Y-80957483D01*
X97670500Y-80897873D01*
X97670499Y-79102128D01*
X97664091Y-79042517D01*
X97662387Y-79037949D01*
X97613797Y-78907671D01*
X97613793Y-78907664D01*
X97527547Y-78792455D01*
X97527544Y-78792452D01*
X97412335Y-78706206D01*
X97412328Y-78706202D01*
X97277482Y-78655908D01*
X97277483Y-78655908D01*
X97217883Y-78649501D01*
X97217881Y-78649500D01*
X97217873Y-78649500D01*
X97217864Y-78649500D01*
X95422129Y-78649500D01*
X95422123Y-78649501D01*
X95362516Y-78655908D01*
X95227671Y-78706202D01*
X95227664Y-78706206D01*
X95112455Y-78792452D01*
X95112452Y-78792455D01*
X95026206Y-78907664D01*
X95026202Y-78907671D01*
X94975908Y-79042517D01*
X94969501Y-79102116D01*
X94969501Y-79102123D01*
X94969500Y-79102135D01*
X82281161Y-79102135D01*
X95528003Y-65855292D01*
X95589324Y-65821809D01*
X95635079Y-65820502D01*
X95690757Y-65829321D01*
X95690758Y-65829321D01*
X95895460Y-65829321D01*
X95895461Y-65829321D01*
X96097643Y-65797298D01*
X96292328Y-65734041D01*
X96474719Y-65641108D01*
X96567699Y-65573553D01*
X96640322Y-65520792D01*
X96640324Y-65520789D01*
X96640328Y-65520787D01*
X96785075Y-65376040D01*
X96785077Y-65376036D01*
X96785080Y-65376034D01*
X96855345Y-65279321D01*
X96905396Y-65210431D01*
X96998329Y-65028040D01*
X97061586Y-64833355D01*
X97093609Y-64631173D01*
X97093609Y-64426469D01*
X97061586Y-64224287D01*
X96998329Y-64029602D01*
X96998327Y-64029599D01*
X96998327Y-64029597D01*
X96929429Y-63894379D01*
X96905396Y-63847211D01*
X96855345Y-63778321D01*
X96785080Y-63681607D01*
X96640326Y-63536853D01*
X96640321Y-63536849D01*
X96594724Y-63503721D01*
X96552058Y-63448392D01*
X96543609Y-63403403D01*
X96543609Y-59686153D01*
X96514768Y-59541166D01*
X96514767Y-59541165D01*
X96514767Y-59541161D01*
X96458193Y-59404579D01*
X96422538Y-59351217D01*
X96422538Y-59351216D01*
X96376059Y-59281655D01*
X91381372Y-54286968D01*
X91381365Y-54286962D01*
X91307680Y-54237728D01*
X91307680Y-54237729D01*
X91258442Y-54204829D01*
X91121868Y-54148259D01*
X91121858Y-54148256D01*
X90976871Y-54119416D01*
X90976869Y-54119416D01*
X88642224Y-54119416D01*
X88575185Y-54099731D01*
X88534837Y-54057416D01*
X88500273Y-53997550D01*
X88356593Y-53810302D01*
X88356587Y-53810295D01*
X88189704Y-53643412D01*
X88189697Y-53643406D01*
X88002457Y-53499732D01*
X88002455Y-53499730D01*
X88002450Y-53499727D01*
X87893548Y-53436852D01*
X87812499Y-53390058D01*
X87764284Y-53339490D01*
X87750500Y-53282671D01*
X87750500Y-51878711D01*
X113149500Y-51878711D01*
X113149500Y-52121288D01*
X113181161Y-52361785D01*
X113243947Y-52596104D01*
X113336773Y-52820205D01*
X113336776Y-52820212D01*
X113458064Y-53030289D01*
X113458066Y-53030292D01*
X113458067Y-53030293D01*
X113605733Y-53222736D01*
X113605739Y-53222743D01*
X113777256Y-53394260D01*
X113777262Y-53394265D01*
X113969711Y-53541936D01*
X114179788Y-53663224D01*
X114403900Y-53756054D01*
X114638211Y-53818838D01*
X114818586Y-53842584D01*
X114878711Y-53850500D01*
X114878712Y-53850500D01*
X115121289Y-53850500D01*
X115169388Y-53844167D01*
X115361789Y-53818838D01*
X115596100Y-53756054D01*
X115820212Y-53663224D01*
X116030289Y-53541936D01*
X116222738Y-53394265D01*
X116394265Y-53222738D01*
X116541936Y-53030289D01*
X116663224Y-52820212D01*
X116756054Y-52596100D01*
X116818838Y-52361789D01*
X116850500Y-52121288D01*
X116850500Y-51878712D01*
X116818838Y-51638211D01*
X116756054Y-51403900D01*
X116663224Y-51179788D01*
X116541936Y-50969711D01*
X116394265Y-50777262D01*
X116394260Y-50777256D01*
X116222743Y-50605739D01*
X116222736Y-50605733D01*
X116030293Y-50458067D01*
X116030292Y-50458066D01*
X116030289Y-50458064D01*
X115820212Y-50336776D01*
X115820205Y-50336773D01*
X115596104Y-50243947D01*
X115361785Y-50181161D01*
X115121289Y-50149500D01*
X115121288Y-50149500D01*
X114878712Y-50149500D01*
X114878711Y-50149500D01*
X114638214Y-50181161D01*
X114403895Y-50243947D01*
X114179794Y-50336773D01*
X114179785Y-50336777D01*
X113969706Y-50458067D01*
X113777263Y-50605733D01*
X113777256Y-50605739D01*
X113605739Y-50777256D01*
X113605733Y-50777263D01*
X113458067Y-50969706D01*
X113336777Y-51179785D01*
X113336773Y-51179794D01*
X113243947Y-51403895D01*
X113181161Y-51638214D01*
X113149500Y-51878711D01*
X87750500Y-51878711D01*
X87750500Y-51678871D01*
X87721659Y-51533884D01*
X87721658Y-51533883D01*
X87721658Y-51533879D01*
X87665084Y-51397297D01*
X87632186Y-51348062D01*
X87632185Y-51348060D01*
X87582956Y-51274381D01*
X87582952Y-51274376D01*
X84982496Y-48673919D01*
X84982489Y-48673913D01*
X84908804Y-48624679D01*
X84908804Y-48624680D01*
X84859566Y-48591780D01*
X84722992Y-48535210D01*
X84722982Y-48535207D01*
X84577995Y-48506367D01*
X84577993Y-48506367D01*
X70708661Y-48506367D01*
X70560826Y-48506367D01*
X70560824Y-48506367D01*
X70415836Y-48535207D01*
X70415826Y-48535210D01*
X70279255Y-48591779D01*
X70279242Y-48591786D01*
X70156328Y-48673915D01*
X70156324Y-48673918D01*
X66417048Y-52413194D01*
X66396516Y-52443923D01*
X66376120Y-52474450D01*
X66355518Y-52505283D01*
X66334916Y-52536115D01*
X66334912Y-52536122D01*
X66278343Y-52672693D01*
X66278340Y-52672703D01*
X66249500Y-52817690D01*
X66249500Y-53282671D01*
X66229815Y-53349710D01*
X66187501Y-53390058D01*
X66063699Y-53461535D01*
X65997550Y-53499727D01*
X65997547Y-53499728D01*
X65997542Y-53499732D01*
X65810302Y-53643406D01*
X65810295Y-53643412D01*
X65643412Y-53810295D01*
X65643406Y-53810302D01*
X65499730Y-53997545D01*
X65499727Y-53997549D01*
X65499727Y-53997550D01*
X65492734Y-54009662D01*
X65381719Y-54201943D01*
X65381712Y-54201958D01*
X65364289Y-54244020D01*
X65320447Y-54298422D01*
X65254153Y-54320486D01*
X65186454Y-54303206D01*
X65138844Y-54252068D01*
X65135168Y-54244017D01*
X65117839Y-54202180D01*
X65117834Y-54202171D01*
X64999855Y-53997828D01*
X64999854Y-53997827D01*
X64937277Y-53916275D01*
X64101041Y-54752511D01*
X64076022Y-54692110D01*
X64004888Y-54585649D01*
X63914351Y-54495112D01*
X63807890Y-54423978D01*
X63747488Y-54398958D01*
X64583723Y-53562721D01*
X64502172Y-53500145D01*
X64502171Y-53500144D01*
X64297828Y-53382165D01*
X64297819Y-53382160D01*
X64079836Y-53291870D01*
X64079838Y-53291870D01*
X63851914Y-53230799D01*
X63617985Y-53200000D01*
X63382014Y-53200000D01*
X63148085Y-53230799D01*
X62920162Y-53291870D01*
X62702180Y-53382160D01*
X62702171Y-53382165D01*
X62497828Y-53500144D01*
X62497818Y-53500150D01*
X62416275Y-53562720D01*
X62416275Y-53562721D01*
X63252512Y-54398958D01*
X63192110Y-54423978D01*
X63085649Y-54495112D01*
X62995112Y-54585649D01*
X62923978Y-54692110D01*
X62898958Y-54752512D01*
X62062721Y-53916275D01*
X62062719Y-53916275D01*
X62022678Y-53968459D01*
X61966250Y-54009662D01*
X61896504Y-54013817D01*
X61835584Y-53979605D01*
X61802831Y-53917887D01*
X61800952Y-53903118D01*
X61800820Y-53903132D01*
X61789999Y-53797203D01*
X61789998Y-53797200D01*
X61741114Y-53649678D01*
X61741113Y-53649676D01*
X61739037Y-53643412D01*
X61734814Y-53630666D01*
X61642712Y-53481344D01*
X61518656Y-53357288D01*
X61369334Y-53265186D01*
X61202797Y-53210001D01*
X61202795Y-53210000D01*
X61100010Y-53199500D01*
X58899998Y-53199500D01*
X58899981Y-53199501D01*
X58797203Y-53210000D01*
X58797200Y-53210001D01*
X58630668Y-53265185D01*
X58630663Y-53265187D01*
X58481342Y-53357289D01*
X58357289Y-53481342D01*
X58265187Y-53630663D01*
X58265185Y-53630668D01*
X58237349Y-53714670D01*
X58210001Y-53797203D01*
X58210001Y-53797204D01*
X58210000Y-53797204D01*
X58199500Y-53899983D01*
X58199500Y-54125500D01*
X58179815Y-54192539D01*
X58127011Y-54238294D01*
X58075500Y-54249500D01*
X56421308Y-54249500D01*
X56392474Y-54255234D01*
X56392475Y-54255235D01*
X56276325Y-54278339D01*
X56276315Y-54278342D01*
X56196313Y-54311479D01*
X56196314Y-54311480D01*
X56139737Y-54334915D01*
X56057604Y-54389795D01*
X56016817Y-54417047D01*
X56016813Y-54417050D01*
X52282723Y-58151139D01*
X52282717Y-58151147D01*
X52233485Y-58224827D01*
X52233486Y-58224828D01*
X52200594Y-58274055D01*
X52200587Y-58274067D01*
X52144015Y-58410645D01*
X52144013Y-58410651D01*
X52115173Y-58555638D01*
X52115173Y-58555641D01*
X52115173Y-74559591D01*
X52115173Y-74559593D01*
X52115172Y-74559593D01*
X43000500Y-74559593D01*
X43000500Y-51878711D01*
X46149500Y-51878711D01*
X46149500Y-52121288D01*
X46181161Y-52361785D01*
X46243947Y-52596104D01*
X46336773Y-52820205D01*
X46336776Y-52820212D01*
X46458064Y-53030289D01*
X46458066Y-53030292D01*
X46458067Y-53030293D01*
X46605733Y-53222736D01*
X46605739Y-53222743D01*
X46777256Y-53394260D01*
X46777262Y-53394265D01*
X46969711Y-53541936D01*
X47179788Y-53663224D01*
X47403900Y-53756054D01*
X47638211Y-53818838D01*
X47818586Y-53842584D01*
X47878711Y-53850500D01*
X47878712Y-53850500D01*
X48121289Y-53850500D01*
X48169388Y-53844167D01*
X48361789Y-53818838D01*
X48596100Y-53756054D01*
X48820212Y-53663224D01*
X49030289Y-53541936D01*
X49222738Y-53394265D01*
X49394265Y-53222738D01*
X49541936Y-53030289D01*
X49663224Y-52820212D01*
X49756054Y-52596100D01*
X49818838Y-52361789D01*
X49850500Y-52121288D01*
X49850500Y-51878712D01*
X49818838Y-51638211D01*
X49756054Y-51403900D01*
X49663224Y-51179788D01*
X49541936Y-50969711D01*
X49394265Y-50777262D01*
X49394260Y-50777256D01*
X49222743Y-50605739D01*
X49222736Y-50605733D01*
X49030293Y-50458067D01*
X49030292Y-50458066D01*
X49030289Y-50458064D01*
X48820212Y-50336776D01*
X48820205Y-50336773D01*
X48596104Y-50243947D01*
X48361785Y-50181161D01*
X48121289Y-50149500D01*
X48121288Y-50149500D01*
X47878712Y-50149500D01*
X47878711Y-50149500D01*
X47638214Y-50181161D01*
X47403895Y-50243947D01*
X47179794Y-50336773D01*
X47179785Y-50336777D01*
X46969706Y-50458067D01*
X46777263Y-50605733D01*
X46777256Y-50605739D01*
X46605739Y-50777256D01*
X46605733Y-50777263D01*
X46458067Y-50969706D01*
X46336777Y-51179785D01*
X46336773Y-51179794D01*
X46243947Y-51403895D01*
X46181161Y-51638214D01*
X46149500Y-51878711D01*
X43000500Y-51878711D01*
X43000500Y-46124500D01*
X43020185Y-46057461D01*
X43072989Y-46011706D01*
X43124500Y-46000500D01*
X121875500Y-46000500D01*
X121942539Y-46020185D01*
G37*
%TD.AperFunction*%
%TD*%
M02*
