%TF.GenerationSoftware,KiCad,Pcbnew,9.0.7*%
%TF.CreationDate,2026-01-30T14:29:26-05:00*%
%TF.ProjectId,CatShelterMonitor_Carrier,43617453-6865-46c7-9465-724d6f6e6974,rev?*%
%TF.SameCoordinates,Original*%
%TF.FileFunction,Legend,Top*%
%TF.FilePolarity,Positive*%
%FSLAX46Y46*%
G04 Gerber Fmt 4.6, Leading zero omitted, Abs format (unit mm)*
G04 Created by KiCad (PCBNEW 9.0.7) date 2026-01-30 14:29:26*
%MOMM*%
%LPD*%
G01*
G04 APERTURE LIST*
%ADD10C,0.100000*%
%ADD11C,0.150000*%
%ADD12C,0.120000*%
G04 APERTURE END LIST*
D10*
X45478239Y-100950150D02*
X45537763Y-101009674D01*
X45537763Y-101009674D02*
X45597287Y-101128721D01*
X45597287Y-101128721D02*
X45597287Y-101426340D01*
X45597287Y-101426340D02*
X45537763Y-101545388D01*
X45537763Y-101545388D02*
X45478239Y-101604912D01*
X45478239Y-101604912D02*
X45359191Y-101664435D01*
X45359191Y-101664435D02*
X45240144Y-101664435D01*
X45240144Y-101664435D02*
X45061572Y-101604912D01*
X45061572Y-101604912D02*
X44347287Y-100890626D01*
X44347287Y-100890626D02*
X44347287Y-101664435D01*
X45597287Y-102438245D02*
X45597287Y-102557292D01*
X45597287Y-102557292D02*
X45537763Y-102676340D01*
X45537763Y-102676340D02*
X45478239Y-102735864D01*
X45478239Y-102735864D02*
X45359191Y-102795388D01*
X45359191Y-102795388D02*
X45121096Y-102854911D01*
X45121096Y-102854911D02*
X44823477Y-102854911D01*
X44823477Y-102854911D02*
X44585382Y-102795388D01*
X44585382Y-102795388D02*
X44466334Y-102735864D01*
X44466334Y-102735864D02*
X44406811Y-102676340D01*
X44406811Y-102676340D02*
X44347287Y-102557292D01*
X44347287Y-102557292D02*
X44347287Y-102438245D01*
X44347287Y-102438245D02*
X44406811Y-102319197D01*
X44406811Y-102319197D02*
X44466334Y-102259673D01*
X44466334Y-102259673D02*
X44585382Y-102200150D01*
X44585382Y-102200150D02*
X44823477Y-102140626D01*
X44823477Y-102140626D02*
X45121096Y-102140626D01*
X45121096Y-102140626D02*
X45359191Y-102200150D01*
X45359191Y-102200150D02*
X45478239Y-102259673D01*
X45478239Y-102259673D02*
X45537763Y-102319197D01*
X45537763Y-102319197D02*
X45597287Y-102438245D01*
X45478239Y-103331102D02*
X45537763Y-103390626D01*
X45537763Y-103390626D02*
X45597287Y-103509673D01*
X45597287Y-103509673D02*
X45597287Y-103807292D01*
X45597287Y-103807292D02*
X45537763Y-103926340D01*
X45537763Y-103926340D02*
X45478239Y-103985864D01*
X45478239Y-103985864D02*
X45359191Y-104045387D01*
X45359191Y-104045387D02*
X45240144Y-104045387D01*
X45240144Y-104045387D02*
X45061572Y-103985864D01*
X45061572Y-103985864D02*
X44347287Y-103271578D01*
X44347287Y-103271578D02*
X44347287Y-104045387D01*
X45597287Y-105116816D02*
X45597287Y-104878721D01*
X45597287Y-104878721D02*
X45537763Y-104759673D01*
X45537763Y-104759673D02*
X45478239Y-104700149D01*
X45478239Y-104700149D02*
X45299668Y-104581102D01*
X45299668Y-104581102D02*
X45061572Y-104521578D01*
X45061572Y-104521578D02*
X44585382Y-104521578D01*
X44585382Y-104521578D02*
X44466334Y-104581102D01*
X44466334Y-104581102D02*
X44406811Y-104640625D01*
X44406811Y-104640625D02*
X44347287Y-104759673D01*
X44347287Y-104759673D02*
X44347287Y-104997768D01*
X44347287Y-104997768D02*
X44406811Y-105116816D01*
X44406811Y-105116816D02*
X44466334Y-105176340D01*
X44466334Y-105176340D02*
X44585382Y-105235863D01*
X44585382Y-105235863D02*
X44883001Y-105235863D01*
X44883001Y-105235863D02*
X45002049Y-105176340D01*
X45002049Y-105176340D02*
X45061572Y-105116816D01*
X45061572Y-105116816D02*
X45121096Y-104997768D01*
X45121096Y-104997768D02*
X45121096Y-104759673D01*
X45121096Y-104759673D02*
X45061572Y-104640625D01*
X45061572Y-104640625D02*
X45002049Y-104581102D01*
X45002049Y-104581102D02*
X44883001Y-104521578D01*
X44823477Y-105771578D02*
X44823477Y-106723959D01*
X45597287Y-107557292D02*
X45597287Y-107676339D01*
X45597287Y-107676339D02*
X45537763Y-107795387D01*
X45537763Y-107795387D02*
X45478239Y-107854911D01*
X45478239Y-107854911D02*
X45359191Y-107914435D01*
X45359191Y-107914435D02*
X45121096Y-107973958D01*
X45121096Y-107973958D02*
X44823477Y-107973958D01*
X44823477Y-107973958D02*
X44585382Y-107914435D01*
X44585382Y-107914435D02*
X44466334Y-107854911D01*
X44466334Y-107854911D02*
X44406811Y-107795387D01*
X44406811Y-107795387D02*
X44347287Y-107676339D01*
X44347287Y-107676339D02*
X44347287Y-107557292D01*
X44347287Y-107557292D02*
X44406811Y-107438244D01*
X44406811Y-107438244D02*
X44466334Y-107378720D01*
X44466334Y-107378720D02*
X44585382Y-107319197D01*
X44585382Y-107319197D02*
X44823477Y-107259673D01*
X44823477Y-107259673D02*
X45121096Y-107259673D01*
X45121096Y-107259673D02*
X45359191Y-107319197D01*
X45359191Y-107319197D02*
X45478239Y-107378720D01*
X45478239Y-107378720D02*
X45537763Y-107438244D01*
X45537763Y-107438244D02*
X45597287Y-107557292D01*
X44347287Y-109164434D02*
X44347287Y-108450149D01*
X44347287Y-108807292D02*
X45597287Y-108807292D01*
X45597287Y-108807292D02*
X45418715Y-108688244D01*
X45418715Y-108688244D02*
X45299668Y-108569196D01*
X45299668Y-108569196D02*
X45240144Y-108450149D01*
X44823477Y-109700149D02*
X44823477Y-110652530D01*
X45597287Y-111128720D02*
X45597287Y-111902529D01*
X45597287Y-111902529D02*
X45121096Y-111485863D01*
X45121096Y-111485863D02*
X45121096Y-111664434D01*
X45121096Y-111664434D02*
X45061572Y-111783482D01*
X45061572Y-111783482D02*
X45002049Y-111843006D01*
X45002049Y-111843006D02*
X44883001Y-111902529D01*
X44883001Y-111902529D02*
X44585382Y-111902529D01*
X44585382Y-111902529D02*
X44466334Y-111843006D01*
X44466334Y-111843006D02*
X44406811Y-111783482D01*
X44406811Y-111783482D02*
X44347287Y-111664434D01*
X44347287Y-111664434D02*
X44347287Y-111307291D01*
X44347287Y-111307291D02*
X44406811Y-111188244D01*
X44406811Y-111188244D02*
X44466334Y-111128720D01*
X45597287Y-112676339D02*
X45597287Y-112795386D01*
X45597287Y-112795386D02*
X45537763Y-112914434D01*
X45537763Y-112914434D02*
X45478239Y-112973958D01*
X45478239Y-112973958D02*
X45359191Y-113033482D01*
X45359191Y-113033482D02*
X45121096Y-113093005D01*
X45121096Y-113093005D02*
X44823477Y-113093005D01*
X44823477Y-113093005D02*
X44585382Y-113033482D01*
X44585382Y-113033482D02*
X44466334Y-112973958D01*
X44466334Y-112973958D02*
X44406811Y-112914434D01*
X44406811Y-112914434D02*
X44347287Y-112795386D01*
X44347287Y-112795386D02*
X44347287Y-112676339D01*
X44347287Y-112676339D02*
X44406811Y-112557291D01*
X44406811Y-112557291D02*
X44466334Y-112497767D01*
X44466334Y-112497767D02*
X44585382Y-112438244D01*
X44585382Y-112438244D02*
X44823477Y-112378720D01*
X44823477Y-112378720D02*
X45121096Y-112378720D01*
X45121096Y-112378720D02*
X45359191Y-112438244D01*
X45359191Y-112438244D02*
X45478239Y-112497767D01*
X45478239Y-112497767D02*
X45537763Y-112557291D01*
X45537763Y-112557291D02*
X45597287Y-112676339D01*
D11*
X48006555Y-69270751D02*
X48601793Y-68854085D01*
X48006555Y-68556466D02*
X49256555Y-68556466D01*
X49256555Y-68556466D02*
X49256555Y-69032656D01*
X49256555Y-69032656D02*
X49197031Y-69151704D01*
X49197031Y-69151704D02*
X49137507Y-69211227D01*
X49137507Y-69211227D02*
X49018459Y-69270751D01*
X49018459Y-69270751D02*
X48839888Y-69270751D01*
X48839888Y-69270751D02*
X48720840Y-69211227D01*
X48720840Y-69211227D02*
X48661317Y-69151704D01*
X48661317Y-69151704D02*
X48601793Y-69032656D01*
X48601793Y-69032656D02*
X48601793Y-68556466D01*
X48006555Y-69985037D02*
X48066079Y-69865989D01*
X48066079Y-69865989D02*
X48125602Y-69806466D01*
X48125602Y-69806466D02*
X48244650Y-69746942D01*
X48244650Y-69746942D02*
X48601793Y-69746942D01*
X48601793Y-69746942D02*
X48720840Y-69806466D01*
X48720840Y-69806466D02*
X48780364Y-69865989D01*
X48780364Y-69865989D02*
X48839888Y-69985037D01*
X48839888Y-69985037D02*
X48839888Y-70163608D01*
X48839888Y-70163608D02*
X48780364Y-70282656D01*
X48780364Y-70282656D02*
X48720840Y-70342180D01*
X48720840Y-70342180D02*
X48601793Y-70401704D01*
X48601793Y-70401704D02*
X48244650Y-70401704D01*
X48244650Y-70401704D02*
X48125602Y-70342180D01*
X48125602Y-70342180D02*
X48066079Y-70282656D01*
X48066079Y-70282656D02*
X48006555Y-70163608D01*
X48006555Y-70163608D02*
X48006555Y-69985037D01*
X48066079Y-71473132D02*
X48006555Y-71354084D01*
X48006555Y-71354084D02*
X48006555Y-71115989D01*
X48006555Y-71115989D02*
X48066079Y-70996941D01*
X48066079Y-70996941D02*
X48125602Y-70937418D01*
X48125602Y-70937418D02*
X48244650Y-70877894D01*
X48244650Y-70877894D02*
X48601793Y-70877894D01*
X48601793Y-70877894D02*
X48720840Y-70937418D01*
X48720840Y-70937418D02*
X48780364Y-70996941D01*
X48780364Y-70996941D02*
X48839888Y-71115989D01*
X48839888Y-71115989D02*
X48839888Y-71354084D01*
X48839888Y-71354084D02*
X48780364Y-71473132D01*
X48006555Y-72008847D02*
X49256555Y-72008847D01*
X48482745Y-72127894D02*
X48006555Y-72485037D01*
X48839888Y-72485037D02*
X48363698Y-72008847D01*
X48125602Y-73735037D02*
X48066079Y-73675513D01*
X48066079Y-73675513D02*
X48006555Y-73496942D01*
X48006555Y-73496942D02*
X48006555Y-73377894D01*
X48006555Y-73377894D02*
X48066079Y-73199323D01*
X48066079Y-73199323D02*
X48185126Y-73080275D01*
X48185126Y-73080275D02*
X48304174Y-73020752D01*
X48304174Y-73020752D02*
X48542269Y-72961228D01*
X48542269Y-72961228D02*
X48720840Y-72961228D01*
X48720840Y-72961228D02*
X48958936Y-73020752D01*
X48958936Y-73020752D02*
X49077983Y-73080275D01*
X49077983Y-73080275D02*
X49197031Y-73199323D01*
X49197031Y-73199323D02*
X49256555Y-73377894D01*
X49256555Y-73377894D02*
X49256555Y-73496942D01*
X49256555Y-73496942D02*
X49197031Y-73675513D01*
X49197031Y-73675513D02*
X49137507Y-73735037D01*
X48006555Y-74806466D02*
X48661317Y-74806466D01*
X48661317Y-74806466D02*
X48780364Y-74746942D01*
X48780364Y-74746942D02*
X48839888Y-74627894D01*
X48839888Y-74627894D02*
X48839888Y-74389799D01*
X48839888Y-74389799D02*
X48780364Y-74270752D01*
X48066079Y-74806466D02*
X48006555Y-74687418D01*
X48006555Y-74687418D02*
X48006555Y-74389799D01*
X48006555Y-74389799D02*
X48066079Y-74270752D01*
X48066079Y-74270752D02*
X48185126Y-74211228D01*
X48185126Y-74211228D02*
X48304174Y-74211228D01*
X48304174Y-74211228D02*
X48423221Y-74270752D01*
X48423221Y-74270752D02*
X48482745Y-74389799D01*
X48482745Y-74389799D02*
X48482745Y-74687418D01*
X48482745Y-74687418D02*
X48542269Y-74806466D01*
X48839888Y-75223132D02*
X48839888Y-75699323D01*
X49256555Y-75401704D02*
X48185126Y-75401704D01*
X48185126Y-75401704D02*
X48066079Y-75461227D01*
X48066079Y-75461227D02*
X48006555Y-75580275D01*
X48006555Y-75580275D02*
X48006555Y-75699323D01*
X48066079Y-76056466D02*
X48006555Y-76175513D01*
X48006555Y-76175513D02*
X48006555Y-76413609D01*
X48006555Y-76413609D02*
X48066079Y-76532656D01*
X48066079Y-76532656D02*
X48185126Y-76592180D01*
X48185126Y-76592180D02*
X48244650Y-76592180D01*
X48244650Y-76592180D02*
X48363698Y-76532656D01*
X48363698Y-76532656D02*
X48423221Y-76413609D01*
X48423221Y-76413609D02*
X48423221Y-76235037D01*
X48423221Y-76235037D02*
X48482745Y-76115990D01*
X48482745Y-76115990D02*
X48601793Y-76056466D01*
X48601793Y-76056466D02*
X48661317Y-76056466D01*
X48661317Y-76056466D02*
X48780364Y-76115990D01*
X48780364Y-76115990D02*
X48839888Y-76235037D01*
X48839888Y-76235037D02*
X48839888Y-76413609D01*
X48839888Y-76413609D02*
X48780364Y-76532656D01*
X48125602Y-78794561D02*
X48066079Y-78735037D01*
X48066079Y-78735037D02*
X48006555Y-78556466D01*
X48006555Y-78556466D02*
X48006555Y-78437418D01*
X48006555Y-78437418D02*
X48066079Y-78258847D01*
X48066079Y-78258847D02*
X48185126Y-78139799D01*
X48185126Y-78139799D02*
X48304174Y-78080276D01*
X48304174Y-78080276D02*
X48542269Y-78020752D01*
X48542269Y-78020752D02*
X48720840Y-78020752D01*
X48720840Y-78020752D02*
X48958936Y-78080276D01*
X48958936Y-78080276D02*
X49077983Y-78139799D01*
X49077983Y-78139799D02*
X49197031Y-78258847D01*
X49197031Y-78258847D02*
X49256555Y-78437418D01*
X49256555Y-78437418D02*
X49256555Y-78556466D01*
X49256555Y-78556466D02*
X49197031Y-78735037D01*
X49197031Y-78735037D02*
X49137507Y-78794561D01*
X48006555Y-79865990D02*
X48661317Y-79865990D01*
X48661317Y-79865990D02*
X48780364Y-79806466D01*
X48780364Y-79806466D02*
X48839888Y-79687418D01*
X48839888Y-79687418D02*
X48839888Y-79449323D01*
X48839888Y-79449323D02*
X48780364Y-79330276D01*
X48066079Y-79865990D02*
X48006555Y-79746942D01*
X48006555Y-79746942D02*
X48006555Y-79449323D01*
X48006555Y-79449323D02*
X48066079Y-79330276D01*
X48066079Y-79330276D02*
X48185126Y-79270752D01*
X48185126Y-79270752D02*
X48304174Y-79270752D01*
X48304174Y-79270752D02*
X48423221Y-79330276D01*
X48423221Y-79330276D02*
X48482745Y-79449323D01*
X48482745Y-79449323D02*
X48482745Y-79746942D01*
X48482745Y-79746942D02*
X48542269Y-79865990D01*
X48839888Y-80282656D02*
X48839888Y-80758847D01*
X49256555Y-80461228D02*
X48185126Y-80461228D01*
X48185126Y-80461228D02*
X48066079Y-80520751D01*
X48066079Y-80520751D02*
X48006555Y-80639799D01*
X48006555Y-80639799D02*
X48006555Y-80758847D01*
X48066079Y-82068371D02*
X48006555Y-82246942D01*
X48006555Y-82246942D02*
X48006555Y-82544561D01*
X48006555Y-82544561D02*
X48066079Y-82663609D01*
X48066079Y-82663609D02*
X48125602Y-82723133D01*
X48125602Y-82723133D02*
X48244650Y-82782656D01*
X48244650Y-82782656D02*
X48363698Y-82782656D01*
X48363698Y-82782656D02*
X48482745Y-82723133D01*
X48482745Y-82723133D02*
X48542269Y-82663609D01*
X48542269Y-82663609D02*
X48601793Y-82544561D01*
X48601793Y-82544561D02*
X48661317Y-82306466D01*
X48661317Y-82306466D02*
X48720840Y-82187418D01*
X48720840Y-82187418D02*
X48780364Y-82127895D01*
X48780364Y-82127895D02*
X48899412Y-82068371D01*
X48899412Y-82068371D02*
X49018459Y-82068371D01*
X49018459Y-82068371D02*
X49137507Y-82127895D01*
X49137507Y-82127895D02*
X49197031Y-82187418D01*
X49197031Y-82187418D02*
X49256555Y-82306466D01*
X49256555Y-82306466D02*
X49256555Y-82604085D01*
X49256555Y-82604085D02*
X49197031Y-82782656D01*
X48006555Y-83318371D02*
X49256555Y-83318371D01*
X48006555Y-83854085D02*
X48661317Y-83854085D01*
X48661317Y-83854085D02*
X48780364Y-83794561D01*
X48780364Y-83794561D02*
X48839888Y-83675513D01*
X48839888Y-83675513D02*
X48839888Y-83496942D01*
X48839888Y-83496942D02*
X48780364Y-83377894D01*
X48780364Y-83377894D02*
X48720840Y-83318371D01*
X48066079Y-84925513D02*
X48006555Y-84806465D01*
X48006555Y-84806465D02*
X48006555Y-84568370D01*
X48006555Y-84568370D02*
X48066079Y-84449323D01*
X48066079Y-84449323D02*
X48185126Y-84389799D01*
X48185126Y-84389799D02*
X48661317Y-84389799D01*
X48661317Y-84389799D02*
X48780364Y-84449323D01*
X48780364Y-84449323D02*
X48839888Y-84568370D01*
X48839888Y-84568370D02*
X48839888Y-84806465D01*
X48839888Y-84806465D02*
X48780364Y-84925513D01*
X48780364Y-84925513D02*
X48661317Y-84985037D01*
X48661317Y-84985037D02*
X48542269Y-84985037D01*
X48542269Y-84985037D02*
X48423221Y-84389799D01*
X48006555Y-85699323D02*
X48066079Y-85580275D01*
X48066079Y-85580275D02*
X48185126Y-85520752D01*
X48185126Y-85520752D02*
X49256555Y-85520752D01*
X48839888Y-85996942D02*
X48839888Y-86473133D01*
X49256555Y-86175514D02*
X48185126Y-86175514D01*
X48185126Y-86175514D02*
X48066079Y-86235037D01*
X48066079Y-86235037D02*
X48006555Y-86354085D01*
X48006555Y-86354085D02*
X48006555Y-86473133D01*
X48066079Y-87365990D02*
X48006555Y-87246942D01*
X48006555Y-87246942D02*
X48006555Y-87008847D01*
X48006555Y-87008847D02*
X48066079Y-86889800D01*
X48066079Y-86889800D02*
X48185126Y-86830276D01*
X48185126Y-86830276D02*
X48661317Y-86830276D01*
X48661317Y-86830276D02*
X48780364Y-86889800D01*
X48780364Y-86889800D02*
X48839888Y-87008847D01*
X48839888Y-87008847D02*
X48839888Y-87246942D01*
X48839888Y-87246942D02*
X48780364Y-87365990D01*
X48780364Y-87365990D02*
X48661317Y-87425514D01*
X48661317Y-87425514D02*
X48542269Y-87425514D01*
X48542269Y-87425514D02*
X48423221Y-86830276D01*
X48006555Y-87961229D02*
X48839888Y-87961229D01*
X48601793Y-87961229D02*
X48720840Y-88020752D01*
X48720840Y-88020752D02*
X48780364Y-88080276D01*
X48780364Y-88080276D02*
X48839888Y-88199324D01*
X48839888Y-88199324D02*
X48839888Y-88318371D01*
X48006555Y-89687420D02*
X49256555Y-89687420D01*
X49256555Y-89687420D02*
X48363698Y-90104086D01*
X48363698Y-90104086D02*
X49256555Y-90520753D01*
X49256555Y-90520753D02*
X48006555Y-90520753D01*
X48006555Y-91294562D02*
X48066079Y-91175514D01*
X48066079Y-91175514D02*
X48125602Y-91115991D01*
X48125602Y-91115991D02*
X48244650Y-91056467D01*
X48244650Y-91056467D02*
X48601793Y-91056467D01*
X48601793Y-91056467D02*
X48720840Y-91115991D01*
X48720840Y-91115991D02*
X48780364Y-91175514D01*
X48780364Y-91175514D02*
X48839888Y-91294562D01*
X48839888Y-91294562D02*
X48839888Y-91473133D01*
X48839888Y-91473133D02*
X48780364Y-91592181D01*
X48780364Y-91592181D02*
X48720840Y-91651705D01*
X48720840Y-91651705D02*
X48601793Y-91711229D01*
X48601793Y-91711229D02*
X48244650Y-91711229D01*
X48244650Y-91711229D02*
X48125602Y-91651705D01*
X48125602Y-91651705D02*
X48066079Y-91592181D01*
X48066079Y-91592181D02*
X48006555Y-91473133D01*
X48006555Y-91473133D02*
X48006555Y-91294562D01*
X48839888Y-92246943D02*
X48006555Y-92246943D01*
X48720840Y-92246943D02*
X48780364Y-92306466D01*
X48780364Y-92306466D02*
X48839888Y-92425514D01*
X48839888Y-92425514D02*
X48839888Y-92604085D01*
X48839888Y-92604085D02*
X48780364Y-92723133D01*
X48780364Y-92723133D02*
X48661317Y-92782657D01*
X48661317Y-92782657D02*
X48006555Y-92782657D01*
X48006555Y-93377895D02*
X48839888Y-93377895D01*
X49256555Y-93377895D02*
X49197031Y-93318371D01*
X49197031Y-93318371D02*
X49137507Y-93377895D01*
X49137507Y-93377895D02*
X49197031Y-93437418D01*
X49197031Y-93437418D02*
X49256555Y-93377895D01*
X49256555Y-93377895D02*
X49137507Y-93377895D01*
X48839888Y-93794561D02*
X48839888Y-94270752D01*
X49256555Y-93973133D02*
X48185126Y-93973133D01*
X48185126Y-93973133D02*
X48066079Y-94032656D01*
X48066079Y-94032656D02*
X48006555Y-94151704D01*
X48006555Y-94151704D02*
X48006555Y-94270752D01*
X48006555Y-94865990D02*
X48066079Y-94746942D01*
X48066079Y-94746942D02*
X48125602Y-94687419D01*
X48125602Y-94687419D02*
X48244650Y-94627895D01*
X48244650Y-94627895D02*
X48601793Y-94627895D01*
X48601793Y-94627895D02*
X48720840Y-94687419D01*
X48720840Y-94687419D02*
X48780364Y-94746942D01*
X48780364Y-94746942D02*
X48839888Y-94865990D01*
X48839888Y-94865990D02*
X48839888Y-95044561D01*
X48839888Y-95044561D02*
X48780364Y-95163609D01*
X48780364Y-95163609D02*
X48720840Y-95223133D01*
X48720840Y-95223133D02*
X48601793Y-95282657D01*
X48601793Y-95282657D02*
X48244650Y-95282657D01*
X48244650Y-95282657D02*
X48125602Y-95223133D01*
X48125602Y-95223133D02*
X48066079Y-95163609D01*
X48066079Y-95163609D02*
X48006555Y-95044561D01*
X48006555Y-95044561D02*
X48006555Y-94865990D01*
X48006555Y-95818371D02*
X48839888Y-95818371D01*
X48601793Y-95818371D02*
X48720840Y-95877894D01*
X48720840Y-95877894D02*
X48780364Y-95937418D01*
X48780364Y-95937418D02*
X48839888Y-96056466D01*
X48839888Y-96056466D02*
X48839888Y-96175513D01*
X49256555Y-97365990D02*
X48006555Y-97782657D01*
X48006555Y-97782657D02*
X49256555Y-98199323D01*
X48006555Y-99270752D02*
X48006555Y-98556467D01*
X48006555Y-98913610D02*
X49256555Y-98913610D01*
X49256555Y-98913610D02*
X49077983Y-98794562D01*
X49077983Y-98794562D02*
X48958936Y-98675514D01*
X48958936Y-98675514D02*
X48899412Y-98556467D01*
X48125602Y-99806467D02*
X48066079Y-99865990D01*
X48066079Y-99865990D02*
X48006555Y-99806467D01*
X48006555Y-99806467D02*
X48066079Y-99746943D01*
X48066079Y-99746943D02*
X48125602Y-99806467D01*
X48125602Y-99806467D02*
X48006555Y-99806467D01*
X48006555Y-101056466D02*
X48006555Y-100342181D01*
X48006555Y-100699324D02*
X49256555Y-100699324D01*
X49256555Y-100699324D02*
X49077983Y-100580276D01*
X49077983Y-100580276D02*
X48958936Y-100461228D01*
X48958936Y-100461228D02*
X48899412Y-100342181D01*
X45994125Y-71621941D02*
X47244125Y-71621941D01*
X45994125Y-72157655D02*
X46648887Y-72157655D01*
X46648887Y-72157655D02*
X46767934Y-72098131D01*
X46767934Y-72098131D02*
X46827458Y-71979083D01*
X46827458Y-71979083D02*
X46827458Y-71800512D01*
X46827458Y-71800512D02*
X46767934Y-71681464D01*
X46767934Y-71681464D02*
X46708410Y-71621941D01*
X46827458Y-72574321D02*
X46827458Y-73050512D01*
X47244125Y-72752893D02*
X46172696Y-72752893D01*
X46172696Y-72752893D02*
X46053649Y-72812416D01*
X46053649Y-72812416D02*
X45994125Y-72931464D01*
X45994125Y-72931464D02*
X45994125Y-73050512D01*
X46827458Y-73288607D02*
X46827458Y-73764798D01*
X47244125Y-73467179D02*
X46172696Y-73467179D01*
X46172696Y-73467179D02*
X46053649Y-73526702D01*
X46053649Y-73526702D02*
X45994125Y-73645750D01*
X45994125Y-73645750D02*
X45994125Y-73764798D01*
X46827458Y-74181465D02*
X45577458Y-74181465D01*
X46767934Y-74181465D02*
X46827458Y-74300512D01*
X46827458Y-74300512D02*
X46827458Y-74538607D01*
X46827458Y-74538607D02*
X46767934Y-74657655D01*
X46767934Y-74657655D02*
X46708410Y-74717179D01*
X46708410Y-74717179D02*
X46589363Y-74776703D01*
X46589363Y-74776703D02*
X46232220Y-74776703D01*
X46232220Y-74776703D02*
X46113172Y-74717179D01*
X46113172Y-74717179D02*
X46053649Y-74657655D01*
X46053649Y-74657655D02*
X45994125Y-74538607D01*
X45994125Y-74538607D02*
X45994125Y-74300512D01*
X45994125Y-74300512D02*
X46053649Y-74181465D01*
X46053649Y-75252893D02*
X45994125Y-75371940D01*
X45994125Y-75371940D02*
X45994125Y-75610036D01*
X45994125Y-75610036D02*
X46053649Y-75729083D01*
X46053649Y-75729083D02*
X46172696Y-75788607D01*
X46172696Y-75788607D02*
X46232220Y-75788607D01*
X46232220Y-75788607D02*
X46351268Y-75729083D01*
X46351268Y-75729083D02*
X46410791Y-75610036D01*
X46410791Y-75610036D02*
X46410791Y-75431464D01*
X46410791Y-75431464D02*
X46470315Y-75312417D01*
X46470315Y-75312417D02*
X46589363Y-75252893D01*
X46589363Y-75252893D02*
X46648887Y-75252893D01*
X46648887Y-75252893D02*
X46767934Y-75312417D01*
X46767934Y-75312417D02*
X46827458Y-75431464D01*
X46827458Y-75431464D02*
X46827458Y-75610036D01*
X46827458Y-75610036D02*
X46767934Y-75729083D01*
X46113172Y-76324322D02*
X46053649Y-76383845D01*
X46053649Y-76383845D02*
X45994125Y-76324322D01*
X45994125Y-76324322D02*
X46053649Y-76264798D01*
X46053649Y-76264798D02*
X46113172Y-76324322D01*
X46113172Y-76324322D02*
X45994125Y-76324322D01*
X46767934Y-76324322D02*
X46708410Y-76383845D01*
X46708410Y-76383845D02*
X46648887Y-76324322D01*
X46648887Y-76324322D02*
X46708410Y-76264798D01*
X46708410Y-76264798D02*
X46767934Y-76324322D01*
X46767934Y-76324322D02*
X46648887Y-76324322D01*
X47303649Y-77812417D02*
X45696506Y-76740988D01*
X47303649Y-79121941D02*
X45696506Y-78050512D01*
X45994125Y-79538608D02*
X46827458Y-79538608D01*
X46589363Y-79538608D02*
X46708410Y-79598131D01*
X46708410Y-79598131D02*
X46767934Y-79657655D01*
X46767934Y-79657655D02*
X46827458Y-79776703D01*
X46827458Y-79776703D02*
X46827458Y-79895750D01*
X45994125Y-80490989D02*
X46053649Y-80371941D01*
X46053649Y-80371941D02*
X46113172Y-80312418D01*
X46113172Y-80312418D02*
X46232220Y-80252894D01*
X46232220Y-80252894D02*
X46589363Y-80252894D01*
X46589363Y-80252894D02*
X46708410Y-80312418D01*
X46708410Y-80312418D02*
X46767934Y-80371941D01*
X46767934Y-80371941D02*
X46827458Y-80490989D01*
X46827458Y-80490989D02*
X46827458Y-80669560D01*
X46827458Y-80669560D02*
X46767934Y-80788608D01*
X46767934Y-80788608D02*
X46708410Y-80848132D01*
X46708410Y-80848132D02*
X46589363Y-80907656D01*
X46589363Y-80907656D02*
X46232220Y-80907656D01*
X46232220Y-80907656D02*
X46113172Y-80848132D01*
X46113172Y-80848132D02*
X46053649Y-80788608D01*
X46053649Y-80788608D02*
X45994125Y-80669560D01*
X45994125Y-80669560D02*
X45994125Y-80490989D01*
X46053649Y-81979084D02*
X45994125Y-81860036D01*
X45994125Y-81860036D02*
X45994125Y-81621941D01*
X45994125Y-81621941D02*
X46053649Y-81502893D01*
X46053649Y-81502893D02*
X46113172Y-81443370D01*
X46113172Y-81443370D02*
X46232220Y-81383846D01*
X46232220Y-81383846D02*
X46589363Y-81383846D01*
X46589363Y-81383846D02*
X46708410Y-81443370D01*
X46708410Y-81443370D02*
X46767934Y-81502893D01*
X46767934Y-81502893D02*
X46827458Y-81621941D01*
X46827458Y-81621941D02*
X46827458Y-81860036D01*
X46827458Y-81860036D02*
X46767934Y-81979084D01*
X45994125Y-82514799D02*
X47244125Y-82514799D01*
X46470315Y-82633846D02*
X45994125Y-82990989D01*
X46827458Y-82990989D02*
X46351268Y-82514799D01*
X46053649Y-84062418D02*
X45994125Y-83943370D01*
X45994125Y-83943370D02*
X45994125Y-83705275D01*
X45994125Y-83705275D02*
X46053649Y-83586227D01*
X46053649Y-83586227D02*
X46113172Y-83526704D01*
X46113172Y-83526704D02*
X46232220Y-83467180D01*
X46232220Y-83467180D02*
X46589363Y-83467180D01*
X46589363Y-83467180D02*
X46708410Y-83526704D01*
X46708410Y-83526704D02*
X46767934Y-83586227D01*
X46767934Y-83586227D02*
X46827458Y-83705275D01*
X46827458Y-83705275D02*
X46827458Y-83943370D01*
X46827458Y-83943370D02*
X46767934Y-84062418D01*
X45994125Y-85133847D02*
X46648887Y-85133847D01*
X46648887Y-85133847D02*
X46767934Y-85074323D01*
X46767934Y-85074323D02*
X46827458Y-84955275D01*
X46827458Y-84955275D02*
X46827458Y-84717180D01*
X46827458Y-84717180D02*
X46767934Y-84598133D01*
X46053649Y-85133847D02*
X45994125Y-85014799D01*
X45994125Y-85014799D02*
X45994125Y-84717180D01*
X45994125Y-84717180D02*
X46053649Y-84598133D01*
X46053649Y-84598133D02*
X46172696Y-84538609D01*
X46172696Y-84538609D02*
X46291744Y-84538609D01*
X46291744Y-84538609D02*
X46410791Y-84598133D01*
X46410791Y-84598133D02*
X46470315Y-84717180D01*
X46470315Y-84717180D02*
X46470315Y-85014799D01*
X46470315Y-85014799D02*
X46529839Y-85133847D01*
X46827458Y-85550513D02*
X46827458Y-86026704D01*
X47244125Y-85729085D02*
X46172696Y-85729085D01*
X46172696Y-85729085D02*
X46053649Y-85788608D01*
X46053649Y-85788608D02*
X45994125Y-85907656D01*
X45994125Y-85907656D02*
X45994125Y-86026704D01*
X46053649Y-86383847D02*
X45994125Y-86502894D01*
X45994125Y-86502894D02*
X45994125Y-86740990D01*
X45994125Y-86740990D02*
X46053649Y-86860037D01*
X46053649Y-86860037D02*
X46172696Y-86919561D01*
X46172696Y-86919561D02*
X46232220Y-86919561D01*
X46232220Y-86919561D02*
X46351268Y-86860037D01*
X46351268Y-86860037D02*
X46410791Y-86740990D01*
X46410791Y-86740990D02*
X46410791Y-86562418D01*
X46410791Y-86562418D02*
X46470315Y-86443371D01*
X46470315Y-86443371D02*
X46589363Y-86383847D01*
X46589363Y-86383847D02*
X46648887Y-86383847D01*
X46648887Y-86383847D02*
X46767934Y-86443371D01*
X46767934Y-86443371D02*
X46827458Y-86562418D01*
X46827458Y-86562418D02*
X46827458Y-86740990D01*
X46827458Y-86740990D02*
X46767934Y-86860037D01*
X45994125Y-87455276D02*
X46827458Y-87455276D01*
X46589363Y-87455276D02*
X46708410Y-87514799D01*
X46708410Y-87514799D02*
X46767934Y-87574323D01*
X46767934Y-87574323D02*
X46827458Y-87693371D01*
X46827458Y-87693371D02*
X46827458Y-87812418D01*
X46053649Y-88705276D02*
X45994125Y-88586228D01*
X45994125Y-88586228D02*
X45994125Y-88348133D01*
X45994125Y-88348133D02*
X46053649Y-88229086D01*
X46053649Y-88229086D02*
X46172696Y-88169562D01*
X46172696Y-88169562D02*
X46648887Y-88169562D01*
X46648887Y-88169562D02*
X46767934Y-88229086D01*
X46767934Y-88229086D02*
X46827458Y-88348133D01*
X46827458Y-88348133D02*
X46827458Y-88586228D01*
X46827458Y-88586228D02*
X46767934Y-88705276D01*
X46767934Y-88705276D02*
X46648887Y-88764800D01*
X46648887Y-88764800D02*
X46529839Y-88764800D01*
X46529839Y-88764800D02*
X46410791Y-88169562D01*
X46053649Y-89240991D02*
X45994125Y-89360038D01*
X45994125Y-89360038D02*
X45994125Y-89598134D01*
X45994125Y-89598134D02*
X46053649Y-89717181D01*
X46053649Y-89717181D02*
X46172696Y-89776705D01*
X46172696Y-89776705D02*
X46232220Y-89776705D01*
X46232220Y-89776705D02*
X46351268Y-89717181D01*
X46351268Y-89717181D02*
X46410791Y-89598134D01*
X46410791Y-89598134D02*
X46410791Y-89419562D01*
X46410791Y-89419562D02*
X46470315Y-89300515D01*
X46470315Y-89300515D02*
X46589363Y-89240991D01*
X46589363Y-89240991D02*
X46648887Y-89240991D01*
X46648887Y-89240991D02*
X46767934Y-89300515D01*
X46767934Y-89300515D02*
X46827458Y-89419562D01*
X46827458Y-89419562D02*
X46827458Y-89598134D01*
X46827458Y-89598134D02*
X46767934Y-89717181D01*
X46053649Y-90848134D02*
X45994125Y-90729086D01*
X45994125Y-90729086D02*
X45994125Y-90490991D01*
X45994125Y-90490991D02*
X46053649Y-90371943D01*
X46053649Y-90371943D02*
X46113172Y-90312420D01*
X46113172Y-90312420D02*
X46232220Y-90252896D01*
X46232220Y-90252896D02*
X46589363Y-90252896D01*
X46589363Y-90252896D02*
X46708410Y-90312420D01*
X46708410Y-90312420D02*
X46767934Y-90371943D01*
X46767934Y-90371943D02*
X46827458Y-90490991D01*
X46827458Y-90490991D02*
X46827458Y-90729086D01*
X46827458Y-90729086D02*
X46767934Y-90848134D01*
X46827458Y-91919563D02*
X45994125Y-91919563D01*
X46827458Y-91383849D02*
X46172696Y-91383849D01*
X46172696Y-91383849D02*
X46053649Y-91443372D01*
X46053649Y-91443372D02*
X45994125Y-91562420D01*
X45994125Y-91562420D02*
X45994125Y-91740991D01*
X45994125Y-91740991D02*
X46053649Y-91860039D01*
X46053649Y-91860039D02*
X46113172Y-91919563D01*
X46053649Y-92990991D02*
X45994125Y-92871943D01*
X45994125Y-92871943D02*
X45994125Y-92633848D01*
X45994125Y-92633848D02*
X46053649Y-92514801D01*
X46053649Y-92514801D02*
X46172696Y-92455277D01*
X46172696Y-92455277D02*
X46648887Y-92455277D01*
X46648887Y-92455277D02*
X46767934Y-92514801D01*
X46767934Y-92514801D02*
X46827458Y-92633848D01*
X46827458Y-92633848D02*
X46827458Y-92871943D01*
X46827458Y-92871943D02*
X46767934Y-92990991D01*
X46767934Y-92990991D02*
X46648887Y-93050515D01*
X46648887Y-93050515D02*
X46529839Y-93050515D01*
X46529839Y-93050515D02*
X46410791Y-92455277D01*
X46113172Y-93586230D02*
X46053649Y-93645753D01*
X46053649Y-93645753D02*
X45994125Y-93586230D01*
X45994125Y-93586230D02*
X46053649Y-93526706D01*
X46053649Y-93526706D02*
X46113172Y-93586230D01*
X46113172Y-93586230D02*
X45994125Y-93586230D01*
X45994125Y-94360039D02*
X46053649Y-94240991D01*
X46053649Y-94240991D02*
X46113172Y-94181468D01*
X46113172Y-94181468D02*
X46232220Y-94121944D01*
X46232220Y-94121944D02*
X46589363Y-94121944D01*
X46589363Y-94121944D02*
X46708410Y-94181468D01*
X46708410Y-94181468D02*
X46767934Y-94240991D01*
X46767934Y-94240991D02*
X46827458Y-94360039D01*
X46827458Y-94360039D02*
X46827458Y-94538610D01*
X46827458Y-94538610D02*
X46767934Y-94657658D01*
X46767934Y-94657658D02*
X46708410Y-94717182D01*
X46708410Y-94717182D02*
X46589363Y-94776706D01*
X46589363Y-94776706D02*
X46232220Y-94776706D01*
X46232220Y-94776706D02*
X46113172Y-94717182D01*
X46113172Y-94717182D02*
X46053649Y-94657658D01*
X46053649Y-94657658D02*
X45994125Y-94538610D01*
X45994125Y-94538610D02*
X45994125Y-94360039D01*
X45994125Y-95312420D02*
X46827458Y-95312420D01*
X46589363Y-95312420D02*
X46708410Y-95371943D01*
X46708410Y-95371943D02*
X46767934Y-95431467D01*
X46767934Y-95431467D02*
X46827458Y-95550515D01*
X46827458Y-95550515D02*
X46827458Y-95669562D01*
X46827458Y-96621944D02*
X45815553Y-96621944D01*
X45815553Y-96621944D02*
X45696506Y-96562420D01*
X45696506Y-96562420D02*
X45636982Y-96502896D01*
X45636982Y-96502896D02*
X45577458Y-96383849D01*
X45577458Y-96383849D02*
X45577458Y-96205277D01*
X45577458Y-96205277D02*
X45636982Y-96086230D01*
X46053649Y-96621944D02*
X45994125Y-96502896D01*
X45994125Y-96502896D02*
X45994125Y-96264801D01*
X45994125Y-96264801D02*
X46053649Y-96145753D01*
X46053649Y-96145753D02*
X46113172Y-96086230D01*
X46113172Y-96086230D02*
X46232220Y-96026706D01*
X46232220Y-96026706D02*
X46589363Y-96026706D01*
X46589363Y-96026706D02*
X46708410Y-96086230D01*
X46708410Y-96086230D02*
X46767934Y-96145753D01*
X46767934Y-96145753D02*
X46827458Y-96264801D01*
X46827458Y-96264801D02*
X46827458Y-96502896D01*
X46827458Y-96502896D02*
X46767934Y-96621944D01*
X47303649Y-98110039D02*
X45696506Y-97038610D01*
X47238095Y-48304819D02*
X47238095Y-47304819D01*
X47238095Y-47781009D02*
X47809523Y-47781009D01*
X47809523Y-48304819D02*
X47809523Y-47304819D01*
X48809523Y-48304819D02*
X48238095Y-48304819D01*
X48523809Y-48304819D02*
X48523809Y-47304819D01*
X48523809Y-47304819D02*
X48428571Y-47447676D01*
X48428571Y-47447676D02*
X48333333Y-47542914D01*
X48333333Y-47542914D02*
X48238095Y-47590533D01*
X101214285Y-102164819D02*
X101214285Y-102879104D01*
X101214285Y-102879104D02*
X101166666Y-103021961D01*
X101166666Y-103021961D02*
X101071428Y-103117200D01*
X101071428Y-103117200D02*
X100928571Y-103164819D01*
X100928571Y-103164819D02*
X100833333Y-103164819D01*
X102214285Y-103164819D02*
X101642857Y-103164819D01*
X101928571Y-103164819D02*
X101928571Y-102164819D01*
X101928571Y-102164819D02*
X101833333Y-102307676D01*
X101833333Y-102307676D02*
X101738095Y-102402914D01*
X101738095Y-102402914D02*
X101642857Y-102450533D01*
X102404762Y-103260057D02*
X103166666Y-103260057D01*
X103404762Y-103164819D02*
X103404762Y-102164819D01*
X103404762Y-102641009D02*
X103976190Y-102641009D01*
X103976190Y-103164819D02*
X103976190Y-102164819D01*
X104833333Y-103117200D02*
X104738095Y-103164819D01*
X104738095Y-103164819D02*
X104547619Y-103164819D01*
X104547619Y-103164819D02*
X104452381Y-103117200D01*
X104452381Y-103117200D02*
X104404762Y-103021961D01*
X104404762Y-103021961D02*
X104404762Y-102641009D01*
X104404762Y-102641009D02*
X104452381Y-102545771D01*
X104452381Y-102545771D02*
X104547619Y-102498152D01*
X104547619Y-102498152D02*
X104738095Y-102498152D01*
X104738095Y-102498152D02*
X104833333Y-102545771D01*
X104833333Y-102545771D02*
X104880952Y-102641009D01*
X104880952Y-102641009D02*
X104880952Y-102736247D01*
X104880952Y-102736247D02*
X104404762Y-102831485D01*
X105738095Y-103164819D02*
X105738095Y-102641009D01*
X105738095Y-102641009D02*
X105690476Y-102545771D01*
X105690476Y-102545771D02*
X105595238Y-102498152D01*
X105595238Y-102498152D02*
X105404762Y-102498152D01*
X105404762Y-102498152D02*
X105309524Y-102545771D01*
X105738095Y-103117200D02*
X105642857Y-103164819D01*
X105642857Y-103164819D02*
X105404762Y-103164819D01*
X105404762Y-103164819D02*
X105309524Y-103117200D01*
X105309524Y-103117200D02*
X105261905Y-103021961D01*
X105261905Y-103021961D02*
X105261905Y-102926723D01*
X105261905Y-102926723D02*
X105309524Y-102831485D01*
X105309524Y-102831485D02*
X105404762Y-102783866D01*
X105404762Y-102783866D02*
X105642857Y-102783866D01*
X105642857Y-102783866D02*
X105738095Y-102736247D01*
X106642857Y-103164819D02*
X106642857Y-102164819D01*
X106642857Y-103117200D02*
X106547619Y-103164819D01*
X106547619Y-103164819D02*
X106357143Y-103164819D01*
X106357143Y-103164819D02*
X106261905Y-103117200D01*
X106261905Y-103117200D02*
X106214286Y-103069580D01*
X106214286Y-103069580D02*
X106166667Y-102974342D01*
X106166667Y-102974342D02*
X106166667Y-102688628D01*
X106166667Y-102688628D02*
X106214286Y-102593390D01*
X106214286Y-102593390D02*
X106261905Y-102545771D01*
X106261905Y-102545771D02*
X106357143Y-102498152D01*
X106357143Y-102498152D02*
X106547619Y-102498152D01*
X106547619Y-102498152D02*
X106642857Y-102545771D01*
X107500000Y-103117200D02*
X107404762Y-103164819D01*
X107404762Y-103164819D02*
X107214286Y-103164819D01*
X107214286Y-103164819D02*
X107119048Y-103117200D01*
X107119048Y-103117200D02*
X107071429Y-103021961D01*
X107071429Y-103021961D02*
X107071429Y-102641009D01*
X107071429Y-102641009D02*
X107119048Y-102545771D01*
X107119048Y-102545771D02*
X107214286Y-102498152D01*
X107214286Y-102498152D02*
X107404762Y-102498152D01*
X107404762Y-102498152D02*
X107500000Y-102545771D01*
X107500000Y-102545771D02*
X107547619Y-102641009D01*
X107547619Y-102641009D02*
X107547619Y-102736247D01*
X107547619Y-102736247D02*
X107071429Y-102831485D01*
X107976191Y-103164819D02*
X107976191Y-102498152D01*
X107976191Y-102688628D02*
X108023810Y-102593390D01*
X108023810Y-102593390D02*
X108071429Y-102545771D01*
X108071429Y-102545771D02*
X108166667Y-102498152D01*
X108166667Y-102498152D02*
X108261905Y-102498152D01*
X109119048Y-103164819D02*
X108547620Y-103164819D01*
X108833334Y-103164819D02*
X108833334Y-102164819D01*
X108833334Y-102164819D02*
X108738096Y-102307676D01*
X108738096Y-102307676D02*
X108642858Y-102402914D01*
X108642858Y-102402914D02*
X108547620Y-102450533D01*
X91558094Y-76684819D02*
X91558094Y-77399104D01*
X91558094Y-77399104D02*
X91510475Y-77541961D01*
X91510475Y-77541961D02*
X91415237Y-77637200D01*
X91415237Y-77637200D02*
X91272380Y-77684819D01*
X91272380Y-77684819D02*
X91177142Y-77684819D01*
X91796190Y-77780057D02*
X92558094Y-77780057D01*
X93129523Y-77161009D02*
X92796190Y-77161009D01*
X92796190Y-77684819D02*
X92796190Y-76684819D01*
X92796190Y-76684819D02*
X93272380Y-76684819D01*
X93653333Y-77161009D02*
X93986666Y-77161009D01*
X94129523Y-77684819D02*
X93653333Y-77684819D01*
X93653333Y-77684819D02*
X93653333Y-76684819D01*
X93653333Y-76684819D02*
X94129523Y-76684819D01*
X94510476Y-77399104D02*
X94986666Y-77399104D01*
X94415238Y-77684819D02*
X94748571Y-76684819D01*
X94748571Y-76684819D02*
X95081904Y-77684819D01*
X95272381Y-76684819D02*
X95843809Y-76684819D01*
X95558095Y-77684819D02*
X95558095Y-76684819D01*
X96177143Y-77684819D02*
X96177143Y-76684819D01*
X96177143Y-77161009D02*
X96748571Y-77161009D01*
X96748571Y-77684819D02*
X96748571Y-76684819D01*
X97224762Y-77161009D02*
X97558095Y-77161009D01*
X97700952Y-77684819D02*
X97224762Y-77684819D01*
X97224762Y-77684819D02*
X97224762Y-76684819D01*
X97224762Y-76684819D02*
X97700952Y-76684819D01*
X98700952Y-77684819D02*
X98367619Y-77208628D01*
X98129524Y-77684819D02*
X98129524Y-76684819D01*
X98129524Y-76684819D02*
X98510476Y-76684819D01*
X98510476Y-76684819D02*
X98605714Y-76732438D01*
X98605714Y-76732438D02*
X98653333Y-76780057D01*
X98653333Y-76780057D02*
X98700952Y-76875295D01*
X98700952Y-76875295D02*
X98700952Y-77018152D01*
X98700952Y-77018152D02*
X98653333Y-77113390D01*
X98653333Y-77113390D02*
X98605714Y-77161009D01*
X98605714Y-77161009D02*
X98510476Y-77208628D01*
X98510476Y-77208628D02*
X98129524Y-77208628D01*
X98891429Y-77780057D02*
X99653333Y-77780057D01*
X100462857Y-77684819D02*
X100129524Y-77208628D01*
X99891429Y-77684819D02*
X99891429Y-76684819D01*
X99891429Y-76684819D02*
X100272381Y-76684819D01*
X100272381Y-76684819D02*
X100367619Y-76732438D01*
X100367619Y-76732438D02*
X100415238Y-76780057D01*
X100415238Y-76780057D02*
X100462857Y-76875295D01*
X100462857Y-76875295D02*
X100462857Y-77018152D01*
X100462857Y-77018152D02*
X100415238Y-77113390D01*
X100415238Y-77113390D02*
X100367619Y-77161009D01*
X100367619Y-77161009D02*
X100272381Y-77208628D01*
X100272381Y-77208628D02*
X99891429Y-77208628D01*
X101415238Y-77684819D02*
X100843810Y-77684819D01*
X101129524Y-77684819D02*
X101129524Y-76684819D01*
X101129524Y-76684819D02*
X101034286Y-76827676D01*
X101034286Y-76827676D02*
X100939048Y-76922914D01*
X100939048Y-76922914D02*
X100843810Y-76970533D01*
X114238095Y-48304819D02*
X114238095Y-47304819D01*
X114238095Y-47781009D02*
X114809523Y-47781009D01*
X114809523Y-48304819D02*
X114809523Y-47304819D01*
X115190476Y-47304819D02*
X115809523Y-47304819D01*
X115809523Y-47304819D02*
X115476190Y-47685771D01*
X115476190Y-47685771D02*
X115619047Y-47685771D01*
X115619047Y-47685771D02*
X115714285Y-47733390D01*
X115714285Y-47733390D02*
X115761904Y-47781009D01*
X115761904Y-47781009D02*
X115809523Y-47876247D01*
X115809523Y-47876247D02*
X115809523Y-48114342D01*
X115809523Y-48114342D02*
X115761904Y-48209580D01*
X115761904Y-48209580D02*
X115714285Y-48257200D01*
X115714285Y-48257200D02*
X115619047Y-48304819D01*
X115619047Y-48304819D02*
X115333333Y-48304819D01*
X115333333Y-48304819D02*
X115238095Y-48257200D01*
X115238095Y-48257200D02*
X115190476Y-48209580D01*
X71333332Y-76684819D02*
X71333332Y-77399104D01*
X71333332Y-77399104D02*
X71285713Y-77541961D01*
X71285713Y-77541961D02*
X71190475Y-77637200D01*
X71190475Y-77637200D02*
X71047618Y-77684819D01*
X71047618Y-77684819D02*
X70952380Y-77684819D01*
X71571428Y-77780057D02*
X72333332Y-77780057D01*
X72904761Y-77161009D02*
X72571428Y-77161009D01*
X72571428Y-77684819D02*
X72571428Y-76684819D01*
X72571428Y-76684819D02*
X73047618Y-76684819D01*
X73428571Y-77161009D02*
X73761904Y-77161009D01*
X73904761Y-77684819D02*
X73428571Y-77684819D01*
X73428571Y-77684819D02*
X73428571Y-76684819D01*
X73428571Y-76684819D02*
X73904761Y-76684819D01*
X74285714Y-77399104D02*
X74761904Y-77399104D01*
X74190476Y-77684819D02*
X74523809Y-76684819D01*
X74523809Y-76684819D02*
X74857142Y-77684819D01*
X75047619Y-76684819D02*
X75619047Y-76684819D01*
X75333333Y-77684819D02*
X75333333Y-76684819D01*
X75952381Y-77684819D02*
X75952381Y-76684819D01*
X75952381Y-77161009D02*
X76523809Y-77161009D01*
X76523809Y-77684819D02*
X76523809Y-76684819D01*
X77000000Y-77161009D02*
X77333333Y-77161009D01*
X77476190Y-77684819D02*
X77000000Y-77684819D01*
X77000000Y-77684819D02*
X77000000Y-76684819D01*
X77000000Y-76684819D02*
X77476190Y-76684819D01*
X78476190Y-77684819D02*
X78142857Y-77208628D01*
X77904762Y-77684819D02*
X77904762Y-76684819D01*
X77904762Y-76684819D02*
X78285714Y-76684819D01*
X78285714Y-76684819D02*
X78380952Y-76732438D01*
X78380952Y-76732438D02*
X78428571Y-76780057D01*
X78428571Y-76780057D02*
X78476190Y-76875295D01*
X78476190Y-76875295D02*
X78476190Y-77018152D01*
X78476190Y-77018152D02*
X78428571Y-77113390D01*
X78428571Y-77113390D02*
X78380952Y-77161009D01*
X78380952Y-77161009D02*
X78285714Y-77208628D01*
X78285714Y-77208628D02*
X77904762Y-77208628D01*
X78666667Y-77780057D02*
X79428571Y-77780057D01*
X80142857Y-77684819D02*
X79666667Y-77684819D01*
X79666667Y-77684819D02*
X79666667Y-76684819D01*
X81000000Y-77684819D02*
X80428572Y-77684819D01*
X80714286Y-77684819D02*
X80714286Y-76684819D01*
X80714286Y-76684819D02*
X80619048Y-76827676D01*
X80619048Y-76827676D02*
X80523810Y-76922914D01*
X80523810Y-76922914D02*
X80428572Y-76970533D01*
X87768822Y-67353640D02*
X87435489Y-66877449D01*
X87197394Y-67353640D02*
X87197394Y-66353640D01*
X87197394Y-66353640D02*
X87578346Y-66353640D01*
X87578346Y-66353640D02*
X87673584Y-66401259D01*
X87673584Y-66401259D02*
X87721203Y-66448878D01*
X87721203Y-66448878D02*
X87768822Y-66544116D01*
X87768822Y-66544116D02*
X87768822Y-66686973D01*
X87768822Y-66686973D02*
X87721203Y-66782211D01*
X87721203Y-66782211D02*
X87673584Y-66829830D01*
X87673584Y-66829830D02*
X87578346Y-66877449D01*
X87578346Y-66877449D02*
X87197394Y-66877449D01*
X87959299Y-67448878D02*
X88721203Y-67448878D01*
X88959299Y-67353640D02*
X88959299Y-66353640D01*
X88959299Y-66353640D02*
X89340251Y-66353640D01*
X89340251Y-66353640D02*
X89435489Y-66401259D01*
X89435489Y-66401259D02*
X89483108Y-66448878D01*
X89483108Y-66448878D02*
X89530727Y-66544116D01*
X89530727Y-66544116D02*
X89530727Y-66686973D01*
X89530727Y-66686973D02*
X89483108Y-66782211D01*
X89483108Y-66782211D02*
X89435489Y-66829830D01*
X89435489Y-66829830D02*
X89340251Y-66877449D01*
X89340251Y-66877449D02*
X88959299Y-66877449D01*
X89959299Y-66353640D02*
X89959299Y-67163163D01*
X89959299Y-67163163D02*
X90006918Y-67258401D01*
X90006918Y-67258401D02*
X90054537Y-67306021D01*
X90054537Y-67306021D02*
X90149775Y-67353640D01*
X90149775Y-67353640D02*
X90340251Y-67353640D01*
X90340251Y-67353640D02*
X90435489Y-67306021D01*
X90435489Y-67306021D02*
X90483108Y-67258401D01*
X90483108Y-67258401D02*
X90530727Y-67163163D01*
X90530727Y-67163163D02*
X90530727Y-66353640D01*
X91483108Y-67353640D02*
X91006918Y-67353640D01*
X91006918Y-67353640D02*
X91006918Y-66353640D01*
X92292632Y-67353640D02*
X91816442Y-67353640D01*
X91816442Y-67353640D02*
X91816442Y-66353640D01*
X92625966Y-66353640D02*
X92625966Y-67163163D01*
X92625966Y-67163163D02*
X92673585Y-67258401D01*
X92673585Y-67258401D02*
X92721204Y-67306021D01*
X92721204Y-67306021D02*
X92816442Y-67353640D01*
X92816442Y-67353640D02*
X93006918Y-67353640D01*
X93006918Y-67353640D02*
X93102156Y-67306021D01*
X93102156Y-67306021D02*
X93149775Y-67258401D01*
X93149775Y-67258401D02*
X93197394Y-67163163D01*
X93197394Y-67163163D02*
X93197394Y-66353640D01*
X93673585Y-67353640D02*
X93673585Y-66353640D01*
X93673585Y-66353640D02*
X94054537Y-66353640D01*
X94054537Y-66353640D02*
X94149775Y-66401259D01*
X94149775Y-66401259D02*
X94197394Y-66448878D01*
X94197394Y-66448878D02*
X94245013Y-66544116D01*
X94245013Y-66544116D02*
X94245013Y-66686973D01*
X94245013Y-66686973D02*
X94197394Y-66782211D01*
X94197394Y-66782211D02*
X94149775Y-66829830D01*
X94149775Y-66829830D02*
X94054537Y-66877449D01*
X94054537Y-66877449D02*
X93673585Y-66877449D01*
X94435490Y-67448878D02*
X95197394Y-67448878D01*
X95387871Y-67067925D02*
X95864061Y-67067925D01*
X95292633Y-67353640D02*
X95625966Y-66353640D01*
X95625966Y-66353640D02*
X95959299Y-67353640D01*
X96816442Y-67353640D02*
X96245014Y-67353640D01*
X96530728Y-67353640D02*
X96530728Y-66353640D01*
X96530728Y-66353640D02*
X96435490Y-66496497D01*
X96435490Y-66496497D02*
X96340252Y-66591735D01*
X96340252Y-66591735D02*
X96245014Y-66639354D01*
X79928571Y-49634819D02*
X79928571Y-50349104D01*
X79928571Y-50349104D02*
X79880952Y-50491961D01*
X79880952Y-50491961D02*
X79785714Y-50587200D01*
X79785714Y-50587200D02*
X79642857Y-50634819D01*
X79642857Y-50634819D02*
X79547619Y-50634819D01*
X80166667Y-50730057D02*
X80928571Y-50730057D01*
X81166667Y-50634819D02*
X81166667Y-49634819D01*
X81166667Y-49634819D02*
X81547619Y-49634819D01*
X81547619Y-49634819D02*
X81642857Y-49682438D01*
X81642857Y-49682438D02*
X81690476Y-49730057D01*
X81690476Y-49730057D02*
X81738095Y-49825295D01*
X81738095Y-49825295D02*
X81738095Y-49968152D01*
X81738095Y-49968152D02*
X81690476Y-50063390D01*
X81690476Y-50063390D02*
X81642857Y-50111009D01*
X81642857Y-50111009D02*
X81547619Y-50158628D01*
X81547619Y-50158628D02*
X81166667Y-50158628D01*
X82738095Y-50634819D02*
X82404762Y-50158628D01*
X82166667Y-50634819D02*
X82166667Y-49634819D01*
X82166667Y-49634819D02*
X82547619Y-49634819D01*
X82547619Y-49634819D02*
X82642857Y-49682438D01*
X82642857Y-49682438D02*
X82690476Y-49730057D01*
X82690476Y-49730057D02*
X82738095Y-49825295D01*
X82738095Y-49825295D02*
X82738095Y-49968152D01*
X82738095Y-49968152D02*
X82690476Y-50063390D01*
X82690476Y-50063390D02*
X82642857Y-50111009D01*
X82642857Y-50111009D02*
X82547619Y-50158628D01*
X82547619Y-50158628D02*
X82166667Y-50158628D01*
X83357143Y-49634819D02*
X83547619Y-49634819D01*
X83547619Y-49634819D02*
X83642857Y-49682438D01*
X83642857Y-49682438D02*
X83738095Y-49777676D01*
X83738095Y-49777676D02*
X83785714Y-49968152D01*
X83785714Y-49968152D02*
X83785714Y-50301485D01*
X83785714Y-50301485D02*
X83738095Y-50491961D01*
X83738095Y-50491961D02*
X83642857Y-50587200D01*
X83642857Y-50587200D02*
X83547619Y-50634819D01*
X83547619Y-50634819D02*
X83357143Y-50634819D01*
X83357143Y-50634819D02*
X83261905Y-50587200D01*
X83261905Y-50587200D02*
X83166667Y-50491961D01*
X83166667Y-50491961D02*
X83119048Y-50301485D01*
X83119048Y-50301485D02*
X83119048Y-49968152D01*
X83119048Y-49968152D02*
X83166667Y-49777676D01*
X83166667Y-49777676D02*
X83261905Y-49682438D01*
X83261905Y-49682438D02*
X83357143Y-49634819D01*
X84547619Y-50111009D02*
X84690476Y-50158628D01*
X84690476Y-50158628D02*
X84738095Y-50206247D01*
X84738095Y-50206247D02*
X84785714Y-50301485D01*
X84785714Y-50301485D02*
X84785714Y-50444342D01*
X84785714Y-50444342D02*
X84738095Y-50539580D01*
X84738095Y-50539580D02*
X84690476Y-50587200D01*
X84690476Y-50587200D02*
X84595238Y-50634819D01*
X84595238Y-50634819D02*
X84214286Y-50634819D01*
X84214286Y-50634819D02*
X84214286Y-49634819D01*
X84214286Y-49634819D02*
X84547619Y-49634819D01*
X84547619Y-49634819D02*
X84642857Y-49682438D01*
X84642857Y-49682438D02*
X84690476Y-49730057D01*
X84690476Y-49730057D02*
X84738095Y-49825295D01*
X84738095Y-49825295D02*
X84738095Y-49920533D01*
X84738095Y-49920533D02*
X84690476Y-50015771D01*
X84690476Y-50015771D02*
X84642857Y-50063390D01*
X84642857Y-50063390D02*
X84547619Y-50111009D01*
X84547619Y-50111009D02*
X84214286Y-50111009D01*
X85214286Y-50111009D02*
X85547619Y-50111009D01*
X85690476Y-50634819D02*
X85214286Y-50634819D01*
X85214286Y-50634819D02*
X85214286Y-49634819D01*
X85214286Y-49634819D02*
X85690476Y-49634819D01*
X85880953Y-50730057D02*
X86642857Y-50730057D01*
X86833334Y-49730057D02*
X86880953Y-49682438D01*
X86880953Y-49682438D02*
X86976191Y-49634819D01*
X86976191Y-49634819D02*
X87214286Y-49634819D01*
X87214286Y-49634819D02*
X87309524Y-49682438D01*
X87309524Y-49682438D02*
X87357143Y-49730057D01*
X87357143Y-49730057D02*
X87404762Y-49825295D01*
X87404762Y-49825295D02*
X87404762Y-49920533D01*
X87404762Y-49920533D02*
X87357143Y-50063390D01*
X87357143Y-50063390D02*
X86785715Y-50634819D01*
X86785715Y-50634819D02*
X87404762Y-50634819D01*
X53357142Y-66684819D02*
X53357142Y-67399104D01*
X53357142Y-67399104D02*
X53309523Y-67541961D01*
X53309523Y-67541961D02*
X53214285Y-67637200D01*
X53214285Y-67637200D02*
X53071428Y-67684819D01*
X53071428Y-67684819D02*
X52976190Y-67684819D01*
X53595238Y-67780057D02*
X54357142Y-67780057D01*
X54928571Y-67161009D02*
X54595238Y-67161009D01*
X54595238Y-67684819D02*
X54595238Y-66684819D01*
X54595238Y-66684819D02*
X55071428Y-66684819D01*
X56023809Y-67684819D02*
X55690476Y-67208628D01*
X55452381Y-67684819D02*
X55452381Y-66684819D01*
X55452381Y-66684819D02*
X55833333Y-66684819D01*
X55833333Y-66684819D02*
X55928571Y-66732438D01*
X55928571Y-66732438D02*
X55976190Y-66780057D01*
X55976190Y-66780057D02*
X56023809Y-66875295D01*
X56023809Y-66875295D02*
X56023809Y-67018152D01*
X56023809Y-67018152D02*
X55976190Y-67113390D01*
X55976190Y-67113390D02*
X55928571Y-67161009D01*
X55928571Y-67161009D02*
X55833333Y-67208628D01*
X55833333Y-67208628D02*
X55452381Y-67208628D01*
X56404762Y-67399104D02*
X56880952Y-67399104D01*
X56309524Y-67684819D02*
X56642857Y-66684819D01*
X56642857Y-66684819D02*
X56976190Y-67684819D01*
X57309524Y-67684819D02*
X57309524Y-66684819D01*
X57309524Y-66684819D02*
X57642857Y-67399104D01*
X57642857Y-67399104D02*
X57976190Y-66684819D01*
X57976190Y-66684819D02*
X57976190Y-67684819D01*
X58976190Y-67684819D02*
X58404762Y-67684819D01*
X58690476Y-67684819D02*
X58690476Y-66684819D01*
X58690476Y-66684819D02*
X58595238Y-66827676D01*
X58595238Y-66827676D02*
X58500000Y-66922914D01*
X58500000Y-66922914D02*
X58404762Y-66970533D01*
X47238095Y-116304819D02*
X47238095Y-115304819D01*
X47238095Y-115781009D02*
X47809523Y-115781009D01*
X47809523Y-116304819D02*
X47809523Y-115304819D01*
X48238095Y-115400057D02*
X48285714Y-115352438D01*
X48285714Y-115352438D02*
X48380952Y-115304819D01*
X48380952Y-115304819D02*
X48619047Y-115304819D01*
X48619047Y-115304819D02*
X48714285Y-115352438D01*
X48714285Y-115352438D02*
X48761904Y-115400057D01*
X48761904Y-115400057D02*
X48809523Y-115495295D01*
X48809523Y-115495295D02*
X48809523Y-115590533D01*
X48809523Y-115590533D02*
X48761904Y-115733390D01*
X48761904Y-115733390D02*
X48190476Y-116304819D01*
X48190476Y-116304819D02*
X48809523Y-116304819D01*
X59928571Y-49634819D02*
X59928571Y-50349104D01*
X59928571Y-50349104D02*
X59880952Y-50491961D01*
X59880952Y-50491961D02*
X59785714Y-50587200D01*
X59785714Y-50587200D02*
X59642857Y-50634819D01*
X59642857Y-50634819D02*
X59547619Y-50634819D01*
X60166667Y-50730057D02*
X60928571Y-50730057D01*
X61166667Y-50634819D02*
X61166667Y-49634819D01*
X61166667Y-49634819D02*
X61547619Y-49634819D01*
X61547619Y-49634819D02*
X61642857Y-49682438D01*
X61642857Y-49682438D02*
X61690476Y-49730057D01*
X61690476Y-49730057D02*
X61738095Y-49825295D01*
X61738095Y-49825295D02*
X61738095Y-49968152D01*
X61738095Y-49968152D02*
X61690476Y-50063390D01*
X61690476Y-50063390D02*
X61642857Y-50111009D01*
X61642857Y-50111009D02*
X61547619Y-50158628D01*
X61547619Y-50158628D02*
X61166667Y-50158628D01*
X62738095Y-50634819D02*
X62404762Y-50158628D01*
X62166667Y-50634819D02*
X62166667Y-49634819D01*
X62166667Y-49634819D02*
X62547619Y-49634819D01*
X62547619Y-49634819D02*
X62642857Y-49682438D01*
X62642857Y-49682438D02*
X62690476Y-49730057D01*
X62690476Y-49730057D02*
X62738095Y-49825295D01*
X62738095Y-49825295D02*
X62738095Y-49968152D01*
X62738095Y-49968152D02*
X62690476Y-50063390D01*
X62690476Y-50063390D02*
X62642857Y-50111009D01*
X62642857Y-50111009D02*
X62547619Y-50158628D01*
X62547619Y-50158628D02*
X62166667Y-50158628D01*
X63357143Y-49634819D02*
X63547619Y-49634819D01*
X63547619Y-49634819D02*
X63642857Y-49682438D01*
X63642857Y-49682438D02*
X63738095Y-49777676D01*
X63738095Y-49777676D02*
X63785714Y-49968152D01*
X63785714Y-49968152D02*
X63785714Y-50301485D01*
X63785714Y-50301485D02*
X63738095Y-50491961D01*
X63738095Y-50491961D02*
X63642857Y-50587200D01*
X63642857Y-50587200D02*
X63547619Y-50634819D01*
X63547619Y-50634819D02*
X63357143Y-50634819D01*
X63357143Y-50634819D02*
X63261905Y-50587200D01*
X63261905Y-50587200D02*
X63166667Y-50491961D01*
X63166667Y-50491961D02*
X63119048Y-50301485D01*
X63119048Y-50301485D02*
X63119048Y-49968152D01*
X63119048Y-49968152D02*
X63166667Y-49777676D01*
X63166667Y-49777676D02*
X63261905Y-49682438D01*
X63261905Y-49682438D02*
X63357143Y-49634819D01*
X64547619Y-50111009D02*
X64690476Y-50158628D01*
X64690476Y-50158628D02*
X64738095Y-50206247D01*
X64738095Y-50206247D02*
X64785714Y-50301485D01*
X64785714Y-50301485D02*
X64785714Y-50444342D01*
X64785714Y-50444342D02*
X64738095Y-50539580D01*
X64738095Y-50539580D02*
X64690476Y-50587200D01*
X64690476Y-50587200D02*
X64595238Y-50634819D01*
X64595238Y-50634819D02*
X64214286Y-50634819D01*
X64214286Y-50634819D02*
X64214286Y-49634819D01*
X64214286Y-49634819D02*
X64547619Y-49634819D01*
X64547619Y-49634819D02*
X64642857Y-49682438D01*
X64642857Y-49682438D02*
X64690476Y-49730057D01*
X64690476Y-49730057D02*
X64738095Y-49825295D01*
X64738095Y-49825295D02*
X64738095Y-49920533D01*
X64738095Y-49920533D02*
X64690476Y-50015771D01*
X64690476Y-50015771D02*
X64642857Y-50063390D01*
X64642857Y-50063390D02*
X64547619Y-50111009D01*
X64547619Y-50111009D02*
X64214286Y-50111009D01*
X65214286Y-50111009D02*
X65547619Y-50111009D01*
X65690476Y-50634819D02*
X65214286Y-50634819D01*
X65214286Y-50634819D02*
X65214286Y-49634819D01*
X65214286Y-49634819D02*
X65690476Y-49634819D01*
X65880953Y-50730057D02*
X66642857Y-50730057D01*
X67404762Y-50634819D02*
X66833334Y-50634819D01*
X67119048Y-50634819D02*
X67119048Y-49634819D01*
X67119048Y-49634819D02*
X67023810Y-49777676D01*
X67023810Y-49777676D02*
X66928572Y-49872914D01*
X66928572Y-49872914D02*
X66833334Y-49920533D01*
X114238095Y-116304819D02*
X114238095Y-115304819D01*
X114238095Y-115781009D02*
X114809523Y-115781009D01*
X114809523Y-116304819D02*
X114809523Y-115304819D01*
X115714285Y-115638152D02*
X115714285Y-116304819D01*
X115476190Y-115257200D02*
X115238095Y-115971485D01*
X115238095Y-115971485D02*
X115857142Y-115971485D01*
X53904761Y-96684819D02*
X53904761Y-97399104D01*
X53904761Y-97399104D02*
X53857142Y-97541961D01*
X53857142Y-97541961D02*
X53761904Y-97637200D01*
X53761904Y-97637200D02*
X53619047Y-97684819D01*
X53619047Y-97684819D02*
X53523809Y-97684819D01*
X54142857Y-97780057D02*
X54904761Y-97780057D01*
X55714285Y-97684819D02*
X55380952Y-97208628D01*
X55142857Y-97684819D02*
X55142857Y-96684819D01*
X55142857Y-96684819D02*
X55523809Y-96684819D01*
X55523809Y-96684819D02*
X55619047Y-96732438D01*
X55619047Y-96732438D02*
X55666666Y-96780057D01*
X55666666Y-96780057D02*
X55714285Y-96875295D01*
X55714285Y-96875295D02*
X55714285Y-97018152D01*
X55714285Y-97018152D02*
X55666666Y-97113390D01*
X55666666Y-97113390D02*
X55619047Y-97161009D01*
X55619047Y-97161009D02*
X55523809Y-97208628D01*
X55523809Y-97208628D02*
X55142857Y-97208628D01*
X56000000Y-96684819D02*
X56571428Y-96684819D01*
X56285714Y-97684819D02*
X56285714Y-96684819D01*
X57476190Y-97589580D02*
X57428571Y-97637200D01*
X57428571Y-97637200D02*
X57285714Y-97684819D01*
X57285714Y-97684819D02*
X57190476Y-97684819D01*
X57190476Y-97684819D02*
X57047619Y-97637200D01*
X57047619Y-97637200D02*
X56952381Y-97541961D01*
X56952381Y-97541961D02*
X56904762Y-97446723D01*
X56904762Y-97446723D02*
X56857143Y-97256247D01*
X56857143Y-97256247D02*
X56857143Y-97113390D01*
X56857143Y-97113390D02*
X56904762Y-96922914D01*
X56904762Y-96922914D02*
X56952381Y-96827676D01*
X56952381Y-96827676D02*
X57047619Y-96732438D01*
X57047619Y-96732438D02*
X57190476Y-96684819D01*
X57190476Y-96684819D02*
X57285714Y-96684819D01*
X57285714Y-96684819D02*
X57428571Y-96732438D01*
X57428571Y-96732438D02*
X57476190Y-96780057D01*
X58428571Y-97684819D02*
X57857143Y-97684819D01*
X58142857Y-97684819D02*
X58142857Y-96684819D01*
X58142857Y-96684819D02*
X58047619Y-96827676D01*
X58047619Y-96827676D02*
X57952381Y-96922914D01*
X57952381Y-96922914D02*
X57857143Y-96970533D01*
D12*
%TO.C,J1_Header1*%
X103670000Y-106750000D02*
X103670000Y-119510000D01*
X103670000Y-106750000D02*
X106330000Y-106750000D01*
X103670000Y-119510000D02*
X106330000Y-119510000D01*
X105000000Y-104150000D02*
X106330000Y-104150000D01*
X106330000Y-104150000D02*
X106330000Y-105480000D01*
X106330000Y-106750000D02*
X106330000Y-119510000D01*
%TO.C,J_FEATHER_R1*%
X94990000Y-81270000D02*
X94990000Y-119430000D01*
X94990000Y-81270000D02*
X97650000Y-81270000D01*
X94990000Y-119430000D02*
X97650000Y-119430000D01*
X96320000Y-78670000D02*
X97650000Y-78670000D01*
X97650000Y-78670000D02*
X97650000Y-80000000D01*
X97650000Y-81270000D02*
X97650000Y-119430000D01*
%TO.C,J_FEATHER_L1*%
X74670000Y-81270000D02*
X74670000Y-119430000D01*
X74670000Y-81270000D02*
X77330000Y-81270000D01*
X74670000Y-119430000D02*
X77330000Y-119430000D01*
X76000000Y-78670000D02*
X77330000Y-78670000D01*
X77330000Y-78670000D02*
X77330000Y-80000000D01*
X77330000Y-81270000D02*
X77330000Y-119430000D01*
%TO.C,R_PULLUP_A1*%
X88713109Y-63158821D02*
X88713109Y-63488821D01*
X88713109Y-65898821D02*
X88713109Y-65568821D01*
X95253109Y-63158821D02*
X88713109Y-63158821D01*
X95253109Y-63488821D02*
X95253109Y-63158821D01*
X95253109Y-65568821D02*
X95253109Y-65898821D01*
X95253109Y-65898821D02*
X88713109Y-65898821D01*
%TO.C,J_PROBE_2*%
X77630000Y-51180000D02*
X89370000Y-51180000D01*
X77630000Y-56100000D02*
X78220000Y-56100000D01*
X77630000Y-59720000D02*
X77630000Y-51180000D01*
X78600000Y-52000000D02*
X81400000Y-52000000D01*
X78600000Y-53220000D02*
X78600000Y-52000000D01*
X79700000Y-59720000D02*
X77630000Y-59720000D01*
X81400000Y-52000000D02*
X81400000Y-53220000D01*
X81780000Y-56100000D02*
X82101000Y-56100000D01*
X82100000Y-52000000D02*
X84900000Y-52000000D01*
X82100000Y-53901000D02*
X82100000Y-52000000D01*
X84899000Y-56100000D02*
X85601000Y-56100000D01*
X84900000Y-52000000D02*
X84900000Y-53901000D01*
X85600000Y-52000000D02*
X88400000Y-52000000D01*
X85600000Y-53901000D02*
X85600000Y-52000000D01*
X88399000Y-56100000D02*
X89370000Y-56100000D01*
X88400000Y-52000000D02*
X88400000Y-53901000D01*
X89370000Y-51180000D02*
X89370000Y-59720000D01*
X89370000Y-59720000D02*
X80300000Y-59720000D01*
X79016000Y-53220000D02*
G75*
G02*
X80984000Y-53220000I984000J-180400D01*
G01*
X82508000Y-53522000D02*
G75*
G02*
X84492000Y-53522000I992000J122469D01*
G01*
X86008000Y-53522000D02*
G75*
G02*
X87992000Y-53522000I992000J122469D01*
G01*
X80440000Y-60330000D02*
X79560000Y-60330000D01*
X80000000Y-59720000D01*
X80440000Y-60330000D01*
G36*
X80440000Y-60330000D02*
G01*
X79560000Y-60330000D01*
X80000000Y-59720000D01*
X80440000Y-60330000D01*
G37*
%TO.C,J_FRAM1*%
X54670000Y-71270000D02*
X54670000Y-91650000D01*
X54670000Y-71270000D02*
X57330000Y-71270000D01*
X54670000Y-91650000D02*
X57330000Y-91650000D01*
X56000000Y-68670000D02*
X57330000Y-68670000D01*
X57330000Y-68670000D02*
X57330000Y-70000000D01*
X57330000Y-71270000D02*
X57330000Y-91650000D01*
%TO.C,J_PROBE_1*%
X57630000Y-51180000D02*
X69370000Y-51180000D01*
X57630000Y-56100000D02*
X58220000Y-56100000D01*
X57630000Y-59720000D02*
X57630000Y-51180000D01*
X58600000Y-52000000D02*
X61400000Y-52000000D01*
X58600000Y-53220000D02*
X58600000Y-52000000D01*
X59700000Y-59720000D02*
X57630000Y-59720000D01*
X61400000Y-52000000D02*
X61400000Y-53220000D01*
X61780000Y-56100000D02*
X62101000Y-56100000D01*
X62100000Y-52000000D02*
X64900000Y-52000000D01*
X62100000Y-53901000D02*
X62100000Y-52000000D01*
X64899000Y-56100000D02*
X65601000Y-56100000D01*
X64900000Y-52000000D02*
X64900000Y-53901000D01*
X65600000Y-52000000D02*
X68400000Y-52000000D01*
X65600000Y-53901000D02*
X65600000Y-52000000D01*
X68399000Y-56100000D02*
X69370000Y-56100000D01*
X68400000Y-52000000D02*
X68400000Y-53901000D01*
X69370000Y-51180000D02*
X69370000Y-59720000D01*
X69370000Y-59720000D02*
X60300000Y-59720000D01*
X59016000Y-53220000D02*
G75*
G02*
X60984000Y-53220000I984000J-180400D01*
G01*
X62508000Y-53522000D02*
G75*
G02*
X64492000Y-53522000I992000J122469D01*
G01*
X66008000Y-53522000D02*
G75*
G02*
X67992000Y-53522000I992000J122469D01*
G01*
X60440000Y-60330000D02*
X59560000Y-60330000D01*
X60000000Y-59720000D01*
X60440000Y-60330000D01*
G36*
X60440000Y-60330000D02*
G01*
X59560000Y-60330000D01*
X60000000Y-59720000D01*
X60440000Y-60330000D01*
G37*
%TO.C,J_RTC1*%
X54670000Y-101270000D02*
X54670000Y-119110000D01*
X54670000Y-101270000D02*
X57330000Y-101270000D01*
X54670000Y-119110000D02*
X57330000Y-119110000D01*
X56000000Y-98670000D02*
X57330000Y-98670000D01*
X57330000Y-98670000D02*
X57330000Y-100000000D01*
X57330000Y-101270000D02*
X57330000Y-119110000D01*
%TD*%
M02*
